<mxfile host="app.diagrams.net" modified="2024-01-21T19:40:33.090Z" agent="Mozilla/5.0 (Linux; Android 10; K) AppleWebKit/537.36 (KHTML, like Gecko) Chrome/119.0.0.0 Mobile Safari/537.36" etag="gnOJVOboUiE_ZoX-Lw6U" version="22.1.21" type="google">
  <diagram name="Page-1" id="FxWjSBHPJkTlIboZU50Y">
    <mxGraphModel grid="1" page="1" gridSize="10" guides="1" tooltips="1" connect="1" arrows="1" fold="1" pageScale="1" pageWidth="827" pageHeight="1169" background="none" math="0" shadow="0">
      <root>
        <mxCell id="0" />
        <mxCell id="1" parent="0" />
        <mxCell id="cIGaNZu12qdIPbNKis_7-3" value="" style="edgeStyle=orthogonalEdgeStyle;rounded=1;orthogonalLoop=1;jettySize=auto;html=1;" edge="1" parent="1" source="cIGaNZu12qdIPbNKis_7-1">
          <mxGeometry relative="1" as="geometry">
            <mxPoint x="275" y="210" as="targetPoint" />
          </mxGeometry>
        </mxCell>
        <mxCell id="cIGaNZu12qdIPbNKis_7-1" value="Network Perimeter Device&lt;br&gt;&lt;br&gt;Firewall&lt;br&gt;IDS/IPS&lt;br&gt;Router&lt;br&gt;Switch" style="whiteSpace=wrap;html=1;aspect=fixed;rounded=1;" vertex="1" parent="1">
          <mxGeometry x="405" y="120" width="180" height="180" as="geometry" />
        </mxCell>
        <mxCell id="cIGaNZu12qdIPbNKis_7-4" value="NOC&lt;br&gt;Network Operation Center" style="whiteSpace=wrap;html=1;aspect=fixed;rounded=1;" vertex="1" parent="1">
          <mxGeometry x="195" y="170" width="80" height="80" as="geometry" />
        </mxCell>
        <mxCell id="cIGaNZu12qdIPbNKis_7-8" style="edgeStyle=orthogonalEdgeStyle;rounded=1;orthogonalLoop=1;jettySize=auto;html=1;exitX=0;exitY=0.5;exitDx=0;exitDy=0;" edge="1" parent="1" source="cIGaNZu12qdIPbNKis_7-5" target="cIGaNZu12qdIPbNKis_7-7">
          <mxGeometry relative="1" as="geometry">
            <Array as="points">
              <mxPoint x="405" y="430" />
              <mxPoint x="405" y="430" />
            </Array>
          </mxGeometry>
        </mxCell>
        <mxCell id="cIGaNZu12qdIPbNKis_7-5" value="Os &lt;br&gt;Application" style="whiteSpace=wrap;html=1;aspect=fixed;rounded=1;" vertex="1" parent="1">
          <mxGeometry x="455" y="390" width="80" height="80" as="geometry" />
        </mxCell>
        <mxCell id="cIGaNZu12qdIPbNKis_7-11" style="edgeStyle=orthogonalEdgeStyle;rounded=1;orthogonalLoop=1;jettySize=auto;html=1;" edge="1" parent="1" source="cIGaNZu12qdIPbNKis_7-6">
          <mxGeometry relative="1" as="geometry">
            <mxPoint x="85" y="380" as="targetPoint" />
            <Array as="points">
              <mxPoint x="85" y="430" />
            </Array>
          </mxGeometry>
        </mxCell>
        <mxCell id="cIGaNZu12qdIPbNKis_7-6" value="Firewall" style="image;html=1;image=img/lib/clip_art/networking/Firewall_128x128.png;rounded=1;" vertex="1" parent="1">
          <mxGeometry x="165" y="390" width="90" height="80" as="geometry" />
        </mxCell>
        <mxCell id="cIGaNZu12qdIPbNKis_7-10" value="" style="edgeStyle=orthogonalEdgeStyle;rounded=1;orthogonalLoop=1;jettySize=auto;html=1;" edge="1" parent="1" source="cIGaNZu12qdIPbNKis_7-7" target="cIGaNZu12qdIPbNKis_7-6">
          <mxGeometry relative="1" as="geometry">
            <Array as="points">
              <mxPoint x="295" y="430" />
              <mxPoint x="295" y="430" />
            </Array>
          </mxGeometry>
        </mxCell>
        <mxCell id="cIGaNZu12qdIPbNKis_7-7" value="" style="outlineConnect=0;fontColor=#232F3E;gradientColor=none;strokeColor=#ffffff;fillColor=#232F3E;dashed=0;verticalLabelPosition=middle;verticalAlign=bottom;align=center;html=1;whiteSpace=wrap;fontSize=10;fontStyle=1;spacing=3;shape=mxgraph.aws4.productIcon;prIcon=mxgraph.aws4.firewall_manager;rounded=1;" vertex="1" parent="1">
          <mxGeometry x="305" y="385" width="80" height="85" as="geometry" />
        </mxCell>
        <mxCell id="cIGaNZu12qdIPbNKis_7-12" value="" style="image;html=1;image=img/lib/clip_art/networking/Wireless_Router_128x128.png;rounded=1;" vertex="1" parent="1">
          <mxGeometry x="45" y="300" width="80" height="80" as="geometry" />
        </mxCell>
        <mxCell id="cIGaNZu12qdIPbNKis_7-14" style="edgeStyle=orthogonalEdgeStyle;rounded=1;orthogonalLoop=1;jettySize=auto;html=1;entryX=1;entryY=0.5;entryDx=0;entryDy=0;" edge="1" parent="1" source="cIGaNZu12qdIPbNKis_7-13" target="cIGaNZu12qdIPbNKis_7-5">
          <mxGeometry relative="1" as="geometry" />
        </mxCell>
        <mxCell id="cIGaNZu12qdIPbNKis_7-13" value="" style="rounded=1;whiteSpace=wrap;html=1;" vertex="1" parent="1">
          <mxGeometry x="645" y="400" width="120" height="60" as="geometry" />
        </mxCell>
        <mxCell id="cIGaNZu12qdIPbNKis_7-15" value="SEIM" style="text;html=1;align=center;verticalAlign=middle;resizable=0;points=[];autosize=1;strokeColor=none;fillColor=none;rounded=1;" vertex="1" parent="1">
          <mxGeometry x="710" y="488" width="50" height="30" as="geometry" />
        </mxCell>
        <mxCell id="cIGaNZu12qdIPbNKis_7-16" value="EDR" style="text;html=1;align=center;verticalAlign=middle;resizable=0;points=[];autosize=1;strokeColor=none;fillColor=none;rounded=1;" vertex="1" parent="1">
          <mxGeometry x="558" y="448" width="50" height="30" as="geometry" />
        </mxCell>
        <mxCell id="cIGaNZu12qdIPbNKis_7-17" value="Defence in Depth&lt;br&gt;Zero Trust Model&lt;br&gt;" style="text;html=1;align=center;verticalAlign=middle;resizable=0;points=[];autosize=1;strokeColor=none;fillColor=none;rounded=1;" vertex="1" parent="1">
          <mxGeometry x="140" y="295" width="120" height="40" as="geometry" />
        </mxCell>
        <mxCell id="cIGaNZu12qdIPbNKis_7-18" value="IDS&lt;br style=&quot;border-color: var(--border-color); color: rgb(35, 47, 62); font-size: 10px; font-weight: 700;&quot;&gt;&lt;span style=&quot;color: rgb(35, 47, 62); font-size: 10px; font-weight: 700;&quot;&gt;Intrude Defence System&lt;/span&gt;" style="text;html=1;align=center;verticalAlign=middle;resizable=0;points=[];autosize=1;strokeColor=none;fillColor=none;rounded=1;" vertex="1" parent="1">
          <mxGeometry x="265" y="470" width="140" height="40" as="geometry" />
        </mxCell>
        <mxCell id="XT3elcvMHsSuDj7sta1s-2" value="" style="strokeWidth=2;html=1;shape=mxgraph.flowchart.annotation_2;align=left;labelPosition=right;pointerEvents=1;direction=south;rounded=1;" vertex="1" parent="1">
          <mxGeometry x="685" y="60" width="100" height="50" as="geometry" />
        </mxCell>
        <mxCell id="cepljsiRx4jbrfhGxiTV-35" style="edgeStyle=orthogonalEdgeStyle;rounded=0;orthogonalLoop=1;jettySize=auto;html=1;entryX=0.5;entryY=0;entryDx=0;entryDy=0;" edge="1" parent="1" source="cepljsiRx4jbrfhGxiTV-2" target="cepljsiRx4jbrfhGxiTV-33">
          <mxGeometry relative="1" as="geometry" />
        </mxCell>
        <mxCell id="cepljsiRx4jbrfhGxiTV-36" style="edgeStyle=orthogonalEdgeStyle;rounded=0;orthogonalLoop=1;jettySize=auto;html=1;entryX=0.5;entryY=0;entryDx=0;entryDy=0;" edge="1" parent="1" source="cepljsiRx4jbrfhGxiTV-2" target="cepljsiRx4jbrfhGxiTV-34">
          <mxGeometry relative="1" as="geometry" />
        </mxCell>
        <mxCell id="cepljsiRx4jbrfhGxiTV-2" value="Penetration Testing" style="rounded=0;whiteSpace=wrap;html=1;" vertex="1" parent="1">
          <mxGeometry x="370" y="846" width="120" height="60" as="geometry" />
        </mxCell>
        <mxCell id="cepljsiRx4jbrfhGxiTV-3" value="Ping&lt;br&gt;tracert/ traceroute&lt;br&gt;host and service discovery&lt;br&gt;enumaration" style="rounded=0;whiteSpace=wrap;html=1;" vertex="1" parent="1">
          <mxGeometry x="165" y="936" width="185" height="100" as="geometry" />
        </mxCell>
        <mxCell id="cepljsiRx4jbrfhGxiTV-4" value="nslookup/ dig (dnsinfo)&lt;br&gt;public hosted sites&lt;br&gt;centralops.net (who info)&lt;br&gt;dnsdumpster.com (dns info)&lt;br&gt;netcraft.com / archive.org/ myip.ms/ virustotal.com" style="rounded=0;whiteSpace=wrap;html=1;" vertex="1" parent="1">
          <mxGeometry x="550" y="936" width="200" height="120" as="geometry" />
        </mxCell>
        <mxCell id="cepljsiRx4jbrfhGxiTV-5" value="DNS/Name server" style="rounded=0;whiteSpace=wrap;html=1;" vertex="1" parent="1">
          <mxGeometry x="550" y="1076" width="120" height="60" as="geometry" />
        </mxCell>
        <mxCell id="cepljsiRx4jbrfhGxiTV-54" style="edgeStyle=orthogonalEdgeStyle;rounded=0;orthogonalLoop=1;jettySize=auto;html=1;entryX=0.5;entryY=0;entryDx=0;entryDy=0;" edge="1" parent="1" source="cepljsiRx4jbrfhGxiTV-6" target="cepljsiRx4jbrfhGxiTV-7">
          <mxGeometry relative="1" as="geometry" />
        </mxCell>
        <mxCell id="cepljsiRx4jbrfhGxiTV-6" value="13 root servers" style="text;html=1;align=center;verticalAlign=middle;whiteSpace=wrap;rounded=0;" vertex="1" parent="1">
          <mxGeometry x="360" y="1200" width="90" height="30" as="geometry" />
        </mxCell>
        <mxCell id="cepljsiRx4jbrfhGxiTV-55" style="edgeStyle=orthogonalEdgeStyle;rounded=0;orthogonalLoop=1;jettySize=auto;html=1;" edge="1" parent="1" source="cepljsiRx4jbrfhGxiTV-7">
          <mxGeometry relative="1" as="geometry">
            <mxPoint x="405" y="1340" as="targetPoint" />
          </mxGeometry>
        </mxCell>
        <mxCell id="cepljsiRx4jbrfhGxiTV-7" value="5 Zones" style="text;html=1;strokeColor=none;fillColor=none;align=center;verticalAlign=middle;whiteSpace=wrap;rounded=0;" vertex="1" parent="1">
          <mxGeometry x="360" y="1275" width="90" height="30" as="geometry" />
        </mxCell>
        <mxCell id="cepljsiRx4jbrfhGxiTV-8" value="ANR" style="text;html=1;strokeColor=none;fillColor=none;align=center;verticalAlign=middle;whiteSpace=wrap;rounded=0;" vertex="1" parent="1">
          <mxGeometry x="125" y="1423" width="90" height="30" as="geometry" />
        </mxCell>
        <mxCell id="cepljsiRx4jbrfhGxiTV-64" style="edgeStyle=orthogonalEdgeStyle;rounded=0;orthogonalLoop=1;jettySize=auto;html=1;" edge="1" parent="1" source="cepljsiRx4jbrfhGxiTV-9">
          <mxGeometry relative="1" as="geometry">
            <mxPoint x="275" y="1480" as="targetPoint" />
          </mxGeometry>
        </mxCell>
        <mxCell id="cepljsiRx4jbrfhGxiTV-9" value="APNIC" style="text;html=1;strokeColor=none;fillColor=none;align=center;verticalAlign=middle;whiteSpace=wrap;rounded=0;" vertex="1" parent="1">
          <mxGeometry x="230" y="1423" width="90" height="30" as="geometry" />
        </mxCell>
        <mxCell id="cepljsiRx4jbrfhGxiTV-10" value="AFRINIC" style="text;html=1;strokeColor=none;fillColor=none;align=center;verticalAlign=middle;whiteSpace=wrap;rounded=0;" vertex="1" parent="1">
          <mxGeometry x="340" y="1423" width="90" height="30" as="geometry" />
        </mxCell>
        <mxCell id="cepljsiRx4jbrfhGxiTV-11" value="RIPE" style="text;html=1;strokeColor=none;fillColor=none;align=center;verticalAlign=middle;whiteSpace=wrap;rounded=0;" vertex="1" parent="1">
          <mxGeometry x="460" y="1423" width="90" height="30" as="geometry" />
        </mxCell>
        <mxCell id="cepljsiRx4jbrfhGxiTV-13" value="LACNIC" style="text;html=1;strokeColor=none;fillColor=none;align=center;verticalAlign=middle;whiteSpace=wrap;rounded=0;" vertex="1" parent="1">
          <mxGeometry x="570" y="1423" width="90" height="30" as="geometry" />
        </mxCell>
        <mxCell id="cepljsiRx4jbrfhGxiTV-14" value="Godady" style="rounded=0;whiteSpace=wrap;html=1;" vertex="1" parent="1">
          <mxGeometry x="50" y="1533" width="120" height="34" as="geometry" />
        </mxCell>
        <mxCell id="cepljsiRx4jbrfhGxiTV-15" style="edgeStyle=orthogonalEdgeStyle;rounded=0;orthogonalLoop=1;jettySize=auto;html=1;entryX=0.447;entryY=-0.077;entryDx=0;entryDy=0;entryPerimeter=0;" edge="1" parent="1" source="cepljsiRx4jbrfhGxiTV-8" target="cepljsiRx4jbrfhGxiTV-14">
          <mxGeometry relative="1" as="geometry" />
        </mxCell>
        <mxCell id="cepljsiRx4jbrfhGxiTV-18" value="DNS Records&lt;br&gt;NS-Name Server&lt;br&gt;SOA - start of authority&lt;br&gt;A -&amp;nbsp; Host Record( name to ip) (ipv4)&lt;br&gt;AAAA - Host Record (ipv6)&lt;br&gt;PTR--&lt;br&gt;CNAME--&lt;br&gt;MX--mail exchanger" style="rounded=0;whiteSpace=wrap;html=1;" vertex="1" parent="1">
          <mxGeometry x="50" y="1663" width="140" height="174" as="geometry" />
        </mxCell>
        <mxCell id="cepljsiRx4jbrfhGxiTV-19" value="Nslookup / dig" style="text;html=1;strokeColor=none;fillColor=none;align=center;verticalAlign=middle;whiteSpace=wrap;rounded=0;" vertex="1" parent="1">
          <mxGeometry x="325" y="1863" width="95" height="30" as="geometry" />
        </mxCell>
        <mxCell id="cepljsiRx4jbrfhGxiTV-20" value="Cloudfare/&lt;br&gt;Big Ip Security" style="text;html=1;strokeColor=none;fillColor=none;align=center;verticalAlign=middle;whiteSpace=wrap;rounded=0;" vertex="1" parent="1">
          <mxGeometry x="65" y="1863" width="85" height="30" as="geometry" />
        </mxCell>
        <mxCell id="cepljsiRx4jbrfhGxiTV-23" value="" style="edgeStyle=orthogonalEdgeStyle;rounded=0;orthogonalLoop=1;jettySize=auto;html=1;" edge="1" parent="1" source="cepljsiRx4jbrfhGxiTV-21" target="cepljsiRx4jbrfhGxiTV-22">
          <mxGeometry relative="1" as="geometry" />
        </mxCell>
        <mxCell id="cepljsiRx4jbrfhGxiTV-21" value="Centralops.net&amp;nbsp; -&amp;nbsp; Domain Dossier" style="text;html=1;strokeColor=none;fillColor=none;align=center;verticalAlign=middle;whiteSpace=wrap;rounded=0;" vertex="1" parent="1">
          <mxGeometry x="45" y="1933" width="255" height="30" as="geometry" />
        </mxCell>
        <mxCell id="cepljsiRx4jbrfhGxiTV-22" value="Website for tracking domain &amp;amp; ip address" style="whiteSpace=wrap;html=1;" vertex="1" parent="1">
          <mxGeometry x="447.5" y="1918" width="120" height="60" as="geometry" />
        </mxCell>
        <mxCell id="cepljsiRx4jbrfhGxiTV-27" style="edgeStyle=orthogonalEdgeStyle;rounded=0;orthogonalLoop=1;jettySize=auto;html=1;" edge="1" parent="1" source="cepljsiRx4jbrfhGxiTV-24">
          <mxGeometry relative="1" as="geometry">
            <mxPoint x="550" y="2008" as="targetPoint" />
          </mxGeometry>
        </mxCell>
        <mxCell id="cepljsiRx4jbrfhGxiTV-24" value="cvedetails.com ------- find the vanurabilites already published" style="text;html=1;strokeColor=none;fillColor=none;align=center;verticalAlign=middle;whiteSpace=wrap;rounded=0;" vertex="1" parent="1">
          <mxGeometry x="42.5" y="1993" width="417.5" height="30" as="geometry" />
        </mxCell>
        <mxCell id="cepljsiRx4jbrfhGxiTV-25" value="Vanurability Scanning Tool - Qualis/nessus&lt;br&gt;&lt;br&gt;Vanurability&amp;nbsp; Assement - Manual&lt;br&gt;&lt;br&gt;Vanurability Management -----Job" style="rounded=0;whiteSpace=wrap;html=1;" vertex="1" parent="1">
          <mxGeometry x="80" y="2072" width="440" height="111" as="geometry" />
        </mxCell>
        <mxCell id="cepljsiRx4jbrfhGxiTV-26" value="ubuntu/securities&lt;br&gt;microsoft/security" style="text;html=1;strokeColor=none;fillColor=none;align=center;verticalAlign=middle;whiteSpace=wrap;rounded=0;" vertex="1" parent="1">
          <mxGeometry x="590" y="1993" width="60" height="30" as="geometry" />
        </mxCell>
        <mxCell id="cepljsiRx4jbrfhGxiTV-30" style="edgeStyle=orthogonalEdgeStyle;rounded=0;orthogonalLoop=1;jettySize=auto;html=1;" edge="1" parent="1" source="cepljsiRx4jbrfhGxiTV-28" target="cepljsiRx4jbrfhGxiTV-29">
          <mxGeometry relative="1" as="geometry" />
        </mxCell>
        <mxCell id="cepljsiRx4jbrfhGxiTV-28" value="Wipro&lt;br&gt;Services/wiipro.com&lt;br&gt;product/wipro.com&lt;br&gt;" style="text;html=1;strokeColor=none;fillColor=none;align=center;verticalAlign=middle;whiteSpace=wrap;rounded=0;" vertex="1" parent="1">
          <mxGeometry x="290" y="2233" width="130" height="30" as="geometry" />
        </mxCell>
        <mxCell id="cepljsiRx4jbrfhGxiTV-29" value="DNSdumster.com" style="text;html=1;strokeColor=none;fillColor=none;align=center;verticalAlign=middle;whiteSpace=wrap;rounded=0;" vertex="1" parent="1">
          <mxGeometry x="531" y="2233" width="119" height="30" as="geometry" />
        </mxCell>
        <mxCell id="cepljsiRx4jbrfhGxiTV-32" style="edgeStyle=orthogonalEdgeStyle;rounded=0;orthogonalLoop=1;jettySize=auto;html=1;" edge="1" parent="1" source="cepljsiRx4jbrfhGxiTV-31">
          <mxGeometry relative="1" as="geometry">
            <mxPoint x="270" y="2258" as="targetPoint" />
          </mxGeometry>
        </mxCell>
        <mxCell id="cepljsiRx4jbrfhGxiTV-31" value="Subdomains" style="text;html=1;strokeColor=none;fillColor=none;align=center;verticalAlign=middle;whiteSpace=wrap;rounded=0;" vertex="1" parent="1">
          <mxGeometry x="107.5" y="2243" width="130" height="30" as="geometry" />
        </mxCell>
        <mxCell id="cepljsiRx4jbrfhGxiTV-33" value="&lt;br&gt;&lt;span style=&quot;color: rgb(0, 0, 0); font-family: Helvetica; font-size: 12px; font-style: normal; font-variant-ligatures: normal; font-variant-caps: normal; font-weight: 400; letter-spacing: normal; orphans: 2; text-align: center; text-indent: 0px; text-transform: none; widows: 2; word-spacing: 0px; -webkit-text-stroke-width: 0px; background-color: rgb(251, 251, 251); text-decoration-thickness: initial; text-decoration-style: initial; text-decoration-color: initial; float: none; display: inline !important;&quot;&gt;Passive (Indirect)&lt;/span&gt;&lt;br&gt;" style="text;html=1;strokeColor=none;fillColor=none;align=center;verticalAlign=middle;whiteSpace=wrap;rounded=0;" vertex="1" parent="1">
          <mxGeometry x="590" y="906" width="100" height="30" as="geometry" />
        </mxCell>
        <mxCell id="cepljsiRx4jbrfhGxiTV-34" value="Active (Direct)" style="text;html=1;strokeColor=none;fillColor=none;align=center;verticalAlign=middle;whiteSpace=wrap;rounded=0;" vertex="1" parent="1">
          <mxGeometry x="207.5" y="910" width="100" height="30" as="geometry" />
        </mxCell>
        <mxCell id="cepljsiRx4jbrfhGxiTV-37" value="Penetrating testing Methodology / Hacking Methodology" style="rounded=0;whiteSpace=wrap;html=1;" vertex="1" parent="1">
          <mxGeometry x="234" y="545" width="360" height="40" as="geometry" />
        </mxCell>
        <mxCell id="cepljsiRx4jbrfhGxiTV-38" value="1. Information Gathering or Reconnaissance or Recon (Manually Tool)&lt;br&gt;2. Host Discovery and Service Discovery (Scanning) nmap&lt;br&gt;3. Enumeration -- Its an activeway of Recon --- nmap&lt;br&gt;4. Weakness ( Vanurability)&lt;br&gt;5. Planning and Attack ( Penetration Testing) metasploit&lt;br&gt;6. Report /// maintain a session" style="text;html=1;strokeColor=none;fillColor=none;align=center;verticalAlign=middle;whiteSpace=wrap;rounded=0;" vertex="1" parent="1">
          <mxGeometry x="195" y="610" width="405" height="110" as="geometry" />
        </mxCell>
        <mxCell id="cepljsiRx4jbrfhGxiTV-40" value="" style="triangle;whiteSpace=wrap;html=1;rotation=-90;" vertex="1" parent="1">
          <mxGeometry x="260" y="30" width="60" height="80" as="geometry" />
        </mxCell>
        <mxCell id="cepljsiRx4jbrfhGxiTV-41" value="Authentication" style="text;html=1;strokeColor=none;fillColor=none;align=center;verticalAlign=middle;whiteSpace=wrap;rounded=0;" vertex="1" parent="1">
          <mxGeometry x="155" y="40" width="110" height="30" as="geometry" />
        </mxCell>
        <mxCell id="cepljsiRx4jbrfhGxiTV-43" value="Confidentility" style="text;html=1;strokeColor=none;fillColor=none;align=center;verticalAlign=middle;whiteSpace=wrap;rounded=0;" vertex="1" parent="1">
          <mxGeometry x="166" y="60" width="110" height="30" as="geometry" />
        </mxCell>
        <mxCell id="cepljsiRx4jbrfhGxiTV-44" value="Integrity" style="text;html=1;strokeColor=none;fillColor=none;align=center;verticalAlign=middle;whiteSpace=wrap;rounded=0;" vertex="1" parent="1">
          <mxGeometry x="310" y="60" width="110" height="30" as="geometry" />
        </mxCell>
        <mxCell id="cepljsiRx4jbrfhGxiTV-45" value="Availability" style="text;html=1;strokeColor=none;fillColor=none;align=center;verticalAlign=middle;whiteSpace=wrap;rounded=0;" vertex="1" parent="1">
          <mxGeometry x="234" y="100" width="110" height="30" as="geometry" />
        </mxCell>
        <mxCell id="cepljsiRx4jbrfhGxiTV-46" value="Accountability" style="text;html=1;strokeColor=none;fillColor=none;align=center;verticalAlign=middle;whiteSpace=wrap;rounded=0;" vertex="1" parent="1">
          <mxGeometry x="260" y="120" width="110" height="30" as="geometry" />
        </mxCell>
        <mxCell id="cepljsiRx4jbrfhGxiTV-47" value="Authorised" style="text;html=1;strokeColor=none;fillColor=none;align=center;verticalAlign=middle;whiteSpace=wrap;rounded=0;" vertex="1" parent="1">
          <mxGeometry x="290" y="40" width="110" height="30" as="geometry" />
        </mxCell>
        <mxCell id="cepljsiRx4jbrfhGxiTV-49" value="DNS" style="rounded=0;whiteSpace=wrap;html=1;" vertex="1" parent="1">
          <mxGeometry x="50" y="1593" width="120" height="30" as="geometry" />
        </mxCell>
        <mxCell id="cepljsiRx4jbrfhGxiTV-57" style="edgeStyle=orthogonalEdgeStyle;rounded=0;orthogonalLoop=1;jettySize=auto;html=1;" edge="1" parent="1" source="cepljsiRx4jbrfhGxiTV-56" target="cepljsiRx4jbrfhGxiTV-8">
          <mxGeometry relative="1" as="geometry" />
        </mxCell>
        <mxCell id="cepljsiRx4jbrfhGxiTV-58" style="edgeStyle=orthogonalEdgeStyle;rounded=0;orthogonalLoop=1;jettySize=auto;html=1;entryX=0.5;entryY=0;entryDx=0;entryDy=0;" edge="1" parent="1" source="cepljsiRx4jbrfhGxiTV-56" target="cepljsiRx4jbrfhGxiTV-9">
          <mxGeometry relative="1" as="geometry" />
        </mxCell>
        <mxCell id="cepljsiRx4jbrfhGxiTV-59" style="edgeStyle=orthogonalEdgeStyle;rounded=0;orthogonalLoop=1;jettySize=auto;html=1;" edge="1" parent="1" source="cepljsiRx4jbrfhGxiTV-56" target="cepljsiRx4jbrfhGxiTV-10">
          <mxGeometry relative="1" as="geometry" />
        </mxCell>
        <mxCell id="cepljsiRx4jbrfhGxiTV-60" style="edgeStyle=orthogonalEdgeStyle;rounded=0;orthogonalLoop=1;jettySize=auto;html=1;entryX=0.5;entryY=0;entryDx=0;entryDy=0;" edge="1" parent="1" source="cepljsiRx4jbrfhGxiTV-56" target="cepljsiRx4jbrfhGxiTV-11">
          <mxGeometry relative="1" as="geometry" />
        </mxCell>
        <mxCell id="cepljsiRx4jbrfhGxiTV-61" style="edgeStyle=orthogonalEdgeStyle;rounded=0;orthogonalLoop=1;jettySize=auto;html=1;" edge="1" parent="1" source="cepljsiRx4jbrfhGxiTV-56" target="cepljsiRx4jbrfhGxiTV-13">
          <mxGeometry relative="1" as="geometry" />
        </mxCell>
        <mxCell id="cepljsiRx4jbrfhGxiTV-56" value="RIR&amp;nbsp; (Regional Internet Registrant)" style="text;html=1;strokeColor=none;fillColor=none;align=center;verticalAlign=middle;whiteSpace=wrap;rounded=0;" vertex="1" parent="1">
          <mxGeometry x="301.5" y="1350" width="225" height="30" as="geometry" />
        </mxCell>
        <mxCell id="cepljsiRx4jbrfhGxiTV-62" value="&lt;span style=&quot;color: rgb(0, 0, 0); font-family: Helvetica; font-size: 12px; font-style: normal; font-variant-ligatures: normal; font-variant-caps: normal; font-weight: 400; letter-spacing: normal; orphans: 2; text-align: center; text-indent: 0px; text-transform: none; widows: 2; word-spacing: 0px; -webkit-text-stroke-width: 0px; background-color: rgb(251, 251, 251); text-decoration-thickness: initial; text-decoration-style: initial; text-decoration-color: initial; float: none; display: inline !important;&quot;&gt;DNS ISP&lt;/span&gt;" style="text;html=1;strokeColor=none;fillColor=none;align=center;verticalAlign=middle;whiteSpace=wrap;rounded=0;" vertex="1" parent="1">
          <mxGeometry x="243.5" y="1484" width="60" height="30" as="geometry" />
        </mxCell>
        <mxCell id="cepljsiRx4jbrfhGxiTV-65" value="&lt;span style=&quot;color: rgb(0, 0, 0); font-family: Helvetica; font-size: 12px; font-style: normal; font-variant-ligatures: normal; font-variant-caps: normal; font-weight: 400; letter-spacing: normal; orphans: 2; text-align: center; text-indent: 0px; text-transform: none; widows: 2; word-spacing: 0px; -webkit-text-stroke-width: 0px; background-color: rgb(251, 251, 251); text-decoration-thickness: initial; text-decoration-style: initial; text-decoration-color: initial; float: none; display: inline !important;&quot;&gt;DNS Server&lt;/span&gt;" style="text;html=1;strokeColor=none;fillColor=none;align=center;verticalAlign=middle;whiteSpace=wrap;rounded=0;" vertex="1" parent="1">
          <mxGeometry x="237.5" y="1549" width="76.5" height="30" as="geometry" />
        </mxCell>
        <mxCell id="cepljsiRx4jbrfhGxiTV-67" value="&lt;span style=&quot;color: rgb(0, 0, 0); font-family: Helvetica; font-size: 12px; font-style: normal; font-variant-ligatures: normal; font-variant-caps: normal; font-weight: 400; letter-spacing: normal; orphans: 2; text-align: center; text-indent: 0px; text-transform: none; widows: 2; word-spacing: 0px; -webkit-text-stroke-width: 0px; background-color: rgb(251, 251, 251); text-decoration-thickness: initial; text-decoration-style: initial; text-decoration-color: initial; float: none; display: inline !important;&quot;&gt;user@krishna.com&lt;br&gt;User /India&lt;br&gt;&lt;/span&gt;" style="text;html=1;strokeColor=none;fillColor=none;align=center;verticalAlign=middle;whiteSpace=wrap;rounded=0;" vertex="1" parent="1">
          <mxGeometry x="235.25" y="1605" width="76.5" height="30" as="geometry" />
        </mxCell>
        <mxCell id="cepljsiRx4jbrfhGxiTV-69" style="edgeStyle=orthogonalEdgeStyle;rounded=0;orthogonalLoop=1;jettySize=auto;html=1;" edge="1" parent="1">
          <mxGeometry relative="1" as="geometry">
            <mxPoint x="275" y="1603" as="targetPoint" />
            <mxPoint x="275" y="1576" as="sourcePoint" />
          </mxGeometry>
        </mxCell>
        <mxCell id="cepljsiRx4jbrfhGxiTV-70" style="edgeStyle=orthogonalEdgeStyle;rounded=0;orthogonalLoop=1;jettySize=auto;html=1;" edge="1" parent="1">
          <mxGeometry relative="1" as="geometry">
            <mxPoint x="276" y="1544" as="targetPoint" />
            <mxPoint x="276" y="1517" as="sourcePoint" />
          </mxGeometry>
        </mxCell>
        <mxCell id="GkUXto7e3dMDJ69Devyu-10" style="edgeStyle=none;curved=1;rounded=0;orthogonalLoop=1;jettySize=auto;html=1;entryX=0.5;entryY=0;entryDx=0;entryDy=0;fontSize=12;startSize=8;endSize=8;" edge="1" parent="1" source="GkUXto7e3dMDJ69Devyu-1" target="GkUXto7e3dMDJ69Devyu-3">
          <mxGeometry relative="1" as="geometry" />
        </mxCell>
        <mxCell id="GkUXto7e3dMDJ69Devyu-11" style="edgeStyle=none;curved=1;rounded=0;orthogonalLoop=1;jettySize=auto;html=1;entryX=0.5;entryY=0;entryDx=0;entryDy=0;fontSize=12;startSize=8;endSize=8;" edge="1" parent="1" source="GkUXto7e3dMDJ69Devyu-1" target="GkUXto7e3dMDJ69Devyu-4">
          <mxGeometry relative="1" as="geometry" />
        </mxCell>
        <mxCell id="GkUXto7e3dMDJ69Devyu-1" value="Hosting" style="text;html=1;align=center;verticalAlign=middle;resizable=0;points=[];autosize=1;strokeColor=none;fillColor=none;fontSize=16;" vertex="1" parent="1">
          <mxGeometry x="238" y="2360" width="80" height="30" as="geometry" />
        </mxCell>
        <mxCell id="GkUXto7e3dMDJ69Devyu-13" style="edgeStyle=none;curved=1;rounded=0;orthogonalLoop=1;jettySize=auto;html=1;fontSize=12;startSize=8;endSize=8;" edge="1" parent="1" source="GkUXto7e3dMDJ69Devyu-3">
          <mxGeometry relative="1" as="geometry">
            <mxPoint x="123" y="2480" as="targetPoint" />
          </mxGeometry>
        </mxCell>
        <mxCell id="GkUXto7e3dMDJ69Devyu-3" value="Shared" style="text;html=1;strokeColor=none;fillColor=none;align=center;verticalAlign=middle;whiteSpace=wrap;rounded=0;fontSize=16;" vertex="1" parent="1">
          <mxGeometry x="93" y="2410" width="60" height="30" as="geometry" />
        </mxCell>
        <mxCell id="GkUXto7e3dMDJ69Devyu-14" style="edgeStyle=none;curved=1;rounded=0;orthogonalLoop=1;jettySize=auto;html=1;fontSize=12;startSize=8;endSize=8;" edge="1" parent="1" source="GkUXto7e3dMDJ69Devyu-4">
          <mxGeometry relative="1" as="geometry">
            <mxPoint x="456" y="2480" as="targetPoint" />
          </mxGeometry>
        </mxCell>
        <mxCell id="GkUXto7e3dMDJ69Devyu-4" value="Dedicated" style="text;html=1;strokeColor=none;fillColor=none;align=center;verticalAlign=middle;whiteSpace=wrap;rounded=0;fontSize=16;" vertex="1" parent="1">
          <mxGeometry x="426" y="2410" width="60" height="30" as="geometry" />
        </mxCell>
        <mxCell id="GkUXto7e3dMDJ69Devyu-5" value="Single Ip Multiple Websites" style="text;html=1;strokeColor=none;fillColor=none;align=center;verticalAlign=middle;whiteSpace=wrap;rounded=0;fontSize=16;" vertex="1" parent="1">
          <mxGeometry x="35.5" y="2490" width="205" height="30" as="geometry" />
        </mxCell>
        <mxCell id="GkUXto7e3dMDJ69Devyu-6" value="Single Ip Single Domain" style="text;html=1;strokeColor=none;fillColor=none;align=center;verticalAlign=middle;whiteSpace=wrap;rounded=0;fontSize=16;" vertex="1" parent="1">
          <mxGeometry x="358" y="2490" width="205" height="30" as="geometry" />
        </mxCell>
        <mxCell id="GkUXto7e3dMDJ69Devyu-7" value="&lt;b&gt;netcraft.com&lt;/b&gt; - check the site servers side technologies &amp;amp; site report&lt;br style=&quot;border-color: var(--border-color);&quot;&gt;&lt;b&gt;yougetsignal.com&lt;/b&gt; to check the domains &amp;amp; ips in shared hosting or dedicated Hosting&lt;br&gt;&lt;b&gt;builtwith.com&lt;/b&gt; - to check the site build with&lt;br&gt;&lt;b&gt;wpscan.com&lt;/b&gt; - to find the venerability&#39;s&lt;br&gt;nvd.nist / cert-in.org.in /&lt;br&gt;&lt;b&gt;virustotal.com&lt;/b&gt; -&amp;nbsp;&lt;br&gt;&lt;b&gt;Hunter.io&lt;/b&gt; - give the emails of an organization&lt;br&gt;&lt;b&gt;censys.io - &lt;/b&gt;search engine to find the host details &amp;amp; port numbers&lt;br&gt;&lt;b&gt;shodan.io&lt;/b&gt; - search engine&lt;br&gt;&lt;b&gt;myip.ms - &lt;/b&gt;search engine for domain&amp;nbsp;&lt;br&gt;&lt;b&gt;ipinfo.io&lt;/b&gt; - to track ip address" style="text;html=1;strokeColor=none;fillColor=none;align=center;verticalAlign=middle;whiteSpace=wrap;rounded=0;fontSize=16;" vertex="1" parent="1">
          <mxGeometry x="16" y="2582" width="750" height="230" as="geometry" />
        </mxCell>
        <mxCell id="GkUXto7e3dMDJ69Devyu-8" value="www.abc.com&lt;br&gt;www--&lt;b&gt;host&lt;/b&gt;&lt;br&gt;abc.com &lt;b&gt;Domain&lt;/b&gt;&lt;br&gt;&lt;b&gt;www.abc.com &lt;br&gt;&lt;/b&gt;fully qualified domain" style="text;html=1;strokeColor=none;fillColor=none;align=center;verticalAlign=middle;whiteSpace=wrap;rounded=0;fontSize=16;" vertex="1" parent="1">
          <mxGeometry x="634" y="2660" width="160" height="114" as="geometry" />
        </mxCell>
        <mxCell id="GkUXto7e3dMDJ69Devyu-31" style="edgeStyle=none;curved=1;rounded=0;orthogonalLoop=1;jettySize=auto;html=1;fontSize=12;startSize=8;endSize=8;" edge="1" parent="1" source="GkUXto7e3dMDJ69Devyu-17">
          <mxGeometry relative="1" as="geometry">
            <mxPoint x="400" y="2887" as="targetPoint" />
          </mxGeometry>
        </mxCell>
        <mxCell id="GkUXto7e3dMDJ69Devyu-17" value="Google Dorks or google hacking database" style="text;html=1;strokeColor=none;fillColor=none;align=center;verticalAlign=middle;whiteSpace=wrap;rounded=0;fontSize=16;" vertex="1" parent="1">
          <mxGeometry x="30" y="2872" width="330" height="30" as="geometry" />
        </mxCell>
        <mxCell id="GkUXto7e3dMDJ69Devyu-18" value="intitle: /&lt;span style=&quot;box-sizing: border-box; color: rgb(34, 34, 34); font-family: Poppins; font-size: 15px; text-align: left; background-color: rgb(255, 255, 255);&quot;&gt;inurl: /&lt;/span&gt;&lt;span style=&quot;box-sizing: border-box; color: rgb(34, 34, 34); font-family: Poppins; font-size: 15px; text-align: left; background-color: rgb(255, 255, 255);&quot;&gt;intext: /&lt;/span&gt;&lt;span style=&quot;box-sizing: border-box; color: rgb(34, 34, 34); font-family: Poppins; font-size: 15px; text-align: left; background-color: rgb(255, 255, 255);&quot;&gt;define: /&lt;/span&gt;&lt;span style=&quot;box-sizing: border-box; color: rgb(34, 34, 34); font-family: Poppins; font-size: 15px; text-align: left; background-color: rgb(255, 255, 255);&quot;&gt;site: /&lt;/span&gt;&lt;span style=&quot;box-sizing: border-box; color: rgb(34, 34, 34); font-family: Poppins; font-size: 15px; text-align: left; background-color: rgb(255, 255, 255);&quot;&gt;phonebook: /&lt;/span&gt;&lt;span style=&quot;box-sizing: border-box; color: rgb(34, 34, 34); font-family: Poppins; font-size: 15px; text-align: left; background-color: rgb(255, 255, 255);&quot;&gt;maps: /&amp;nbsp;&lt;/span&gt;&lt;span style=&quot;box-sizing: border-box; color: rgb(34, 34, 34); font-family: Poppins; font-size: 15px; text-align: left; background-color: rgb(255, 255, 255);&quot;&gt;book: /&lt;/span&gt;&lt;span style=&quot;box-sizing: border-box; color: rgb(34, 34, 34); font-family: Poppins; font-size: 15px; text-align: left; background-color: rgb(255, 255, 255);&quot;&gt;info: /&lt;/span&gt;&lt;span style=&quot;box-sizing: border-box; color: rgb(34, 34, 34); font-family: Poppins; font-size: 15px; text-align: left; background-color: rgb(255, 255, 255);&quot;&gt;movie: /&lt;/span&gt;&lt;span style=&quot;box-sizing: border-box; color: rgb(34, 34, 34); font-family: Poppins; font-size: 15px; text-align: left; background-color: rgb(255, 255, 255);&quot;&gt;weather: /&lt;/span&gt;&lt;span style=&quot;box-sizing: border-box; color: rgb(34, 34, 34); font-family: Poppins; font-size: 15px; text-align: left; background-color: rgb(255, 255, 255);&quot;&gt;related: /&amp;nbsp;&lt;/span&gt;&lt;span style=&quot;box-sizing: border-box; color: rgb(34, 34, 34); font-family: Poppins; font-size: 15px; text-align: left; background-color: rgb(255, 255, 255);&quot;&gt;link:&lt;br&gt;&lt;/span&gt;" style="rounded=0;whiteSpace=wrap;html=1;fontSize=16;fontStyle=0" vertex="1" parent="1">
          <mxGeometry x="414" y="2852" width="380" height="70" as="geometry" />
        </mxCell>
        <mxCell id="GkUXto7e3dMDJ69Devyu-19" value="&lt;b&gt;exploit-db.com&lt;/b&gt; - Google Hacking data base &amp;amp; syntaxes (ex: to find the aws secret keys)" style="text;html=1;align=center;verticalAlign=middle;resizable=0;points=[];autosize=1;strokeColor=none;fillColor=none;fontSize=16;" vertex="1" parent="1">
          <mxGeometry x="152" y="2995" width="650" height="30" as="geometry" />
        </mxCell>
        <mxCell id="GkUXto7e3dMDJ69Devyu-20" value="17.01.24 - OL" style="text;html=1;strokeColor=none;fillColor=none;align=center;verticalAlign=middle;whiteSpace=wrap;rounded=0;fontSize=16;fontStyle=1" vertex="1" parent="1">
          <mxGeometry x="9" y="2360" width="105" height="30" as="geometry" />
        </mxCell>
        <mxCell id="GkUXto7e3dMDJ69Devyu-22" value="&lt;b&gt;OSINT&lt;/b&gt; - Open Source Intelligence is Collection and Research the data that is publicly aviable" style="text;html=1;align=center;verticalAlign=middle;resizable=0;points=[];autosize=1;strokeColor=none;fillColor=none;fontSize=16;" vertex="1" parent="1">
          <mxGeometry x="91" y="2536" width="680" height="30" as="geometry" />
        </mxCell>
        <mxCell id="GkUXto7e3dMDJ69Devyu-23" value="to get breached data - &lt;b&gt;haveibeenpwned.com&lt;/b&gt;" style="text;html=1;align=center;verticalAlign=middle;resizable=0;points=[];autosize=1;strokeColor=none;fillColor=none;fontSize=16;" vertex="1" parent="1">
          <mxGeometry x="228" y="3048" width="350" height="30" as="geometry" />
        </mxCell>
        <mxCell id="GkUXto7e3dMDJ69Devyu-26" value="&lt;div style=&quot;margin-bottom: 12px; color: rgb(32, 33, 36); font-family: &amp;quot;Google Sans&amp;quot;, arial, sans-serif; text-align: start; background-color: rgb(255, 255, 255);&quot; role=&quot;heading&quot; aria-level=&quot;3&quot; class=&quot;co8aDb&quot;&gt;&lt;b&gt;Types of web hosting&lt;/b&gt;&lt;/div&gt;&lt;div style=&quot;padding: 0px 20px; color: rgb(32, 33, 36); font-family: &amp;quot;Google Sans&amp;quot;, arial, sans-serif; text-align: start; background-color: rgb(255, 255, 255);&quot; class=&quot;RqBzHd&quot;&gt;&lt;ul style=&quot;margin: 0px; padding: 0px;&quot; class=&quot;i8Z77e&quot;&gt;&lt;li style=&quot;margin: 0px 0px 4px; padding: 0px; list-style-type: disc;&quot; class=&quot;TrT0Xe&quot;&gt;Shared hosting.&lt;/li&gt;&lt;li style=&quot;margin: 0px 0px 4px; padding: 0px; list-style-type: disc;&quot; class=&quot;TrT0Xe&quot;&gt;Dedicated hosting.&lt;/li&gt;&lt;li style=&quot;margin: 0px 0px 4px; padding: 0px; list-style-type: disc;&quot; class=&quot;TrT0Xe&quot;&gt;VPS hosting.&lt;/li&gt;&lt;li style=&quot;margin: 0px 0px 4px; padding: 0px; list-style-type: disc;&quot; class=&quot;TrT0Xe&quot;&gt;Cloud server.&lt;/li&gt;&lt;li style=&quot;margin: 0px 0px 4px; padding: 0px; list-style-type: disc;&quot; class=&quot;TrT0Xe&quot;&gt;Managed server.&lt;/li&gt;&lt;li style=&quot;margin: 0px 0px 4px; padding: 0px; list-style-type: disc;&quot; class=&quot;TrT0Xe&quot;&gt;Colocated server.&lt;/li&gt;&lt;/ul&gt;&lt;/div&gt;" style="rounded=0;whiteSpace=wrap;html=1;fontSize=16;" vertex="1" parent="1">
          <mxGeometry x="557" y="2350" width="220" height="180" as="geometry" />
        </mxCell>
        <mxCell id="GkUXto7e3dMDJ69Devyu-29" value="18.01.24 - OL" style="text;html=1;strokeColor=none;fillColor=none;align=center;verticalAlign=middle;whiteSpace=wrap;rounded=0;fontSize=16;fontStyle=1" vertex="1" parent="1">
          <mxGeometry x="9" y="3130" width="105" height="30" as="geometry" />
        </mxCell>
        <mxCell id="GkUXto7e3dMDJ69Devyu-30" value="OSINT Related tools and resources" style="text;html=1;strokeColor=none;fillColor=none;align=center;verticalAlign=middle;whiteSpace=wrap;rounded=0;fontSize=16;" vertex="1" parent="1">
          <mxGeometry x="170" y="3130" width="290" height="30" as="geometry" />
        </mxCell>
        <mxCell id="qGJAQJ1Hvy59XYS_05tu-1" value="&lt;b&gt;OSINT Framework.com&lt;/b&gt; - free resources/tools for Researcher" style="text;html=1;strokeColor=none;fillColor=default;align=center;verticalAlign=middle;whiteSpace=wrap;rounded=0;" vertex="1" parent="1">
          <mxGeometry x="14.75" y="3180" width="409" height="30" as="geometry" />
        </mxCell>
        <mxCell id="qGJAQJ1Hvy59XYS_05tu-2" value="Reversesearchimages --in google to search original or/ morphed images" style="text;html=1;align=center;verticalAlign=middle;resizable=0;points=[];autosize=1;strokeColor=none;fillColor=none;" vertex="1" parent="1">
          <mxGeometry x="47" y="3279" width="410" height="30" as="geometry" />
        </mxCell>
        <mxCell id="qGJAQJ1Hvy59XYS_05tu-3" value="Follow &quot;Justin nordine&quot; --- in x platform for latest updates" style="text;html=1;align=center;verticalAlign=middle;resizable=0;points=[];autosize=1;strokeColor=none;fillColor=none;" vertex="1" parent="1">
          <mxGeometry x="51.25" y="3309" width="320" height="30" as="geometry" />
        </mxCell>
        <mxCell id="qGJAQJ1Hvy59XYS_05tu-4" value="Kali -&amp;nbsp; applications -&amp;nbsp; information gathering - DNS Analysis" style="text;html=1;align=center;verticalAlign=middle;resizable=0;points=[];autosize=1;strokeColor=none;fillColor=none;" vertex="1" parent="1">
          <mxGeometry x="107" y="3348" width="330" height="30" as="geometry" />
        </mxCell>
        <mxCell id="qGJAQJ1Hvy59XYS_05tu-14" style="edgeStyle=orthogonalEdgeStyle;rounded=0;orthogonalLoop=1;jettySize=auto;html=1;" edge="1" parent="1" source="qGJAQJ1Hvy59XYS_05tu-5">
          <mxGeometry relative="1" as="geometry">
            <mxPoint x="320" y="3522" as="targetPoint" />
          </mxGeometry>
        </mxCell>
        <mxCell id="qGJAQJ1Hvy59XYS_05tu-5" value="&lt;b&gt;recorn-ng&lt;/b&gt; - tool in kali linux" style="text;html=1;strokeColor=none;fillColor=none;align=center;verticalAlign=middle;whiteSpace=wrap;rounded=0;" vertex="1" parent="1">
          <mxGeometry x="63" y="3507" width="155" height="30" as="geometry" />
        </mxCell>
        <mxCell id="qGJAQJ1Hvy59XYS_05tu-8" value="to use api modules you have to register with certain websites/vendors" style="text;html=1;strokeColor=none;fillColor=none;align=center;verticalAlign=middle;whiteSpace=wrap;rounded=0;" vertex="1" parent="1">
          <mxGeometry x="215" y="3680" width="408.75" height="30" as="geometry" />
        </mxCell>
        <mxCell id="qGJAQJ1Hvy59XYS_05tu-9" value="&lt;div style=&quot;text-align: left;&quot;&gt;&lt;span style=&quot;background-color: initial;&quot;&gt;&lt;b&gt;today practice comands&lt;/b&gt;&lt;/span&gt;&lt;/div&gt;&lt;div style=&quot;text-align: left;&quot;&gt;&lt;span style=&quot;background-color: initial;&quot;&gt;&amp;gt;recon-ng&lt;/span&gt;&lt;/div&gt;&lt;div style=&quot;text-align: left;&quot;&gt;&lt;span style=&quot;background-color: initial;&quot;&gt;&amp;gt;module search&lt;/span&gt;&lt;/div&gt;&lt;div style=&quot;text-align: left;&quot;&gt;&lt;span style=&quot;background-color: initial;&quot;&gt;&amp;gt;marketplace install all&lt;/span&gt;&lt;/div&gt;&lt;div style=&quot;text-align: left;&quot;&gt;&lt;span style=&quot;background-color: initial;&quot;&gt;&amp;gt;db schema&lt;/span&gt;&lt;/div&gt;&lt;div style=&quot;text-align: left;&quot;&gt;&lt;span style=&quot;background-color: initial;&quot;&gt;&amp;gt;show table name(syntax)&lt;/span&gt;&lt;/div&gt;&lt;div style=&quot;text-align: left;&quot;&gt;&lt;span style=&quot;background-color: initial;&quot;&gt;&amp;gt;show domains (Eg)&lt;/span&gt;&lt;/div&gt;&lt;div style=&quot;text-align: left;&quot;&gt;&lt;span style=&quot;background-color: initial;&quot;&gt;&amp;gt;db insert table (syntax)&lt;/span&gt;&lt;/div&gt;&lt;div style=&quot;text-align: left;&quot;&gt;&lt;span style=&quot;background-color: initial;&quot;&gt;&amp;gt;db insert domains&lt;/span&gt;&lt;/div&gt;&lt;div style=&quot;text-align: left;&quot;&gt;&lt;span style=&quot;background-color: initial;&quot;&gt;&amp;gt;wipro.com&lt;/span&gt;&lt;/div&gt;&lt;div style=&quot;text-align: left;&quot;&gt;&lt;span style=&quot;background-color: initial;&quot;&gt;&amp;gt;modules load &lt;/span&gt;&lt;b style=&quot;background-color: initial;&quot;&gt;module name&lt;/b&gt;&lt;span style=&quot;background-color: initial;&quot;&gt; (syntax)&lt;/span&gt;&lt;/div&gt;&lt;div style=&quot;text-align: left;&quot;&gt;&lt;span style=&quot;background-color: initial;&quot;&gt;&amp;gt;run&lt;/span&gt;&lt;/div&gt;&lt;div style=&quot;text-align: left;&quot;&gt;&lt;span style=&quot;background-color: initial;&quot;&gt;&amp;gt;modules load reporting/-- html&lt;/span&gt;&lt;/div&gt;&lt;div style=&quot;text-align: left;&quot;&gt;&lt;span style=&quot;background-color: initial;&quot;&gt;&amp;gt;run&lt;/span&gt;&lt;/div&gt;&lt;div style=&quot;text-align: left;&quot;&gt;&lt;span style=&quot;background-color: initial;&quot;&gt;&amp;gt;show op --show options&lt;/span&gt;&lt;/div&gt;&lt;div style=&quot;text-align: left;&quot;&gt;&lt;br&gt;&lt;/div&gt;&lt;div style=&quot;text-align: left;&quot;&gt;&lt;span style=&quot;background-color: initial;&quot;&gt;&amp;gt;options set CREATOR satish&lt;/span&gt;&lt;/div&gt;&lt;div style=&quot;text-align: left;&quot;&gt;&lt;span style=&quot;background-color: initial;&quot;&gt;option set CUSTOMER wipro&lt;/span&gt;&lt;/div&gt;&lt;div style=&quot;text-align: left;&quot;&gt;&lt;span style=&quot;background-color: initial;&quot;&gt;option set FILE NAME /root/Desktop/wipro.html&lt;/span&gt;&lt;/div&gt;&lt;div style=&quot;text-align: left;&quot;&gt;&lt;span style=&quot;background-color: initial;&quot;&gt;&amp;gt;run&lt;/span&gt;&lt;/div&gt;&lt;div style=&quot;text-align: left;&quot;&gt;&lt;span style=&quot;background-color: initial;&quot;&gt;&amp;gt;modules load recon&lt;/span&gt;&lt;/div&gt;" style="rounded=0;whiteSpace=wrap;html=1;" vertex="1" parent="1">
          <mxGeometry x="126.75" y="3730" width="185" height="370" as="geometry" />
        </mxCell>
        <mxCell id="qGJAQJ1Hvy59XYS_05tu-10" value="search &quot;Kali tools&quot; for more tolls on web" style="text;html=1;align=center;verticalAlign=middle;resizable=0;points=[];autosize=1;strokeColor=none;fillColor=none;" vertex="1" parent="1">
          <mxGeometry x="438" y="3348" width="230" height="30" as="geometry" />
        </mxCell>
        <mxCell id="qGJAQJ1Hvy59XYS_05tu-11" value="127.0.0.1:5000&amp;nbsp;&lt;br&gt;to search data in web browser" style="text;html=1;align=center;verticalAlign=middle;resizable=0;points=[];autosize=1;strokeColor=none;fillColor=none;" vertex="1" parent="1">
          <mxGeometry x="63" y="3594" width="180" height="40" as="geometry" />
        </mxCell>
        <mxCell id="qGJAQJ1Hvy59XYS_05tu-12" value="&lt;b style=&quot;border-color: var(--border-color);&quot;&gt;Commands&lt;/b&gt;&lt;br style=&quot;border-color: var(--border-color);&quot;&gt;workspaces - create a work space&lt;br style=&quot;border-color: var(--border-color);&quot;&gt;&lt;span style=&quot;&quot;&gt;workspacelist - list of work spaces&lt;/span&gt;&lt;br style=&quot;border-color: var(--border-color);&quot;&gt;&lt;span style=&quot;&quot;&gt;load - to load the work space&lt;/span&gt;&lt;br style=&quot;border-color: var(--border-color);&quot;&gt;&lt;span style=&quot;&quot;&gt;marketplace install all - to install all the modules&lt;/span&gt;&lt;br style=&quot;border-color: var(--border-color);&quot;&gt;&lt;span style=&quot;&quot;&gt;modules search - to search all the modules&lt;/span&gt;&lt;br style=&quot;border-color: var(--border-color);&quot;&gt;&lt;span style=&quot;&quot;&gt;db schema - list out the tables in backend&lt;/span&gt;&lt;br style=&quot;border-color: var(--border-color);&quot;&gt;&lt;span style=&quot;&quot;&gt;show domains - (show is cmd - domain is a table data&lt;/span&gt;&lt;br style=&quot;border-color: var(--border-color);&quot;&gt;&lt;span style=&quot;&quot;&gt;db insert domains - wipro -- data will be inserted&lt;/span&gt;&lt;br style=&quot;border-color: var(--border-color);&quot;&gt;&lt;span style=&quot;&quot;&gt;db delete domains 2 ---- 2is row id&lt;/span&gt;&lt;br style=&quot;border-color: var(--border-color);&quot;&gt;&lt;span style=&quot;&quot;&gt;modules search ----- list out all the modules&lt;/span&gt;&lt;br style=&quot;border-color: var(--border-color);&quot;&gt;&lt;span style=&quot;&quot;&gt;modules load recon/domains-hosts/google_sites&lt;/span&gt;&lt;br style=&quot;border-color: var(--border-color);&quot;&gt;&lt;span style=&quot;&quot;&gt;run &amp;gt; runs the command&lt;/span&gt;&lt;br style=&quot;border-color: var(--border-color);&quot;&gt;&lt;span style=&quot;&quot;&gt;show hosts &amp;gt; displays the wipro hosts&lt;/span&gt;&lt;br style=&quot;border-color: var(--border-color);&quot;&gt;&lt;span style=&quot;&quot;&gt;modules search recon/host &amp;gt; shows the host&lt;/span&gt;&lt;br style=&quot;border-color: var(--border-color);&quot;&gt;&lt;span style=&quot;&quot;&gt;modules load recon/hosts-hostts/resolve&amp;gt;run --- resolves the ip address&lt;/span&gt;" style="rounded=0;whiteSpace=wrap;html=1;" vertex="1" parent="1">
          <mxGeometry x="322" y="3390" width="440" height="260" as="geometry" />
        </mxCell>
        <mxCell id="qGJAQJ1Hvy59XYS_05tu-15" value="OSINT framework is&amp;nbsp;&lt;span style=&quot;background-color: rgba(80, 151, 255, 0.18); color: rgb(4, 12, 40); font-family: &amp;quot;Google Sans&amp;quot;, arial, sans-serif; font-size: 16px; text-align: start;&quot;&gt;a cybersecurity framework which consists of a collection of OSINT tools used for intelligence gathering about a target&lt;/span&gt;&lt;span style=&quot;color: rgb(77, 81, 86); font-family: &amp;quot;Google Sans&amp;quot;, arial, sans-serif; font-size: 16px; text-align: start; background-color: rgb(255, 255, 255);&quot;&gt;. These tools collect data through publicly available sources on the internet and are an important part of the reconnaissance.&lt;/span&gt;" style="rounded=0;whiteSpace=wrap;html=1;" vertex="1" parent="1">
          <mxGeometry x="50" y="3210" width="740" height="60" as="geometry" />
        </mxCell>
        <mxCell id="qGJAQJ1Hvy59XYS_05tu-18" value="&lt;img height=&quot;187&quot; width=&quot;708&quot; src=&quot;data:image/png;base64,iVBORw0KGgoAAAANSUhEUgAAAsQAAAC7CAYAAABivoi+AAAAAXNSR0IArs4c6QAAAARnQU1BAACxjwv8YQUAAAAJcEhZcwAAEnQAABJ0Ad5mH3gAAP+lSURBVHhe7J0HWBRHG8f/gGJX7BUFCxZURFCwRVGIMaIUESuCWGOLJsb6xZZYY9TYNdiwodixRRQpIgooIkiRjnSlFyl3vN/OcqcHHooRS5L9+fhwO7M78/5n3im7NzerQBwQEBAQEBAQEBAQ+I+iKPkrICAgICAgICAg8J9E4cKFC8ITYgEBAYG3kJOTg4KCAtja2kpC/j4nTpyASCRCvXr1JCECAgICAp+L58+fo3nz5lAYOXKkMCEWEBAQeAs+Pj5ITExEZawwU1BQQM2aNWFoaCgJERAQEBD4XFy6dAlKSkpQ+Pbbb4UJsYCAgEA5XL16FXZ2dti7dy8/Mf5Q2ER40qRJsLa2Btf/SkIFBAQEBD41rH//888/4enpCYVDhw5R48aNJVECAl8OUVFRuHDhAhYsWCAJERD49BgbG2PHjh04cuRIpU2ILSws8N133+Hy5cuS0P8W7Aajd+/e6N69uyREQEBA4NPD+vf9+/fj7t27UMjPz6dq1apJogQEvhzYus24uDh06tRJEiIg8Onp0aMHZs+ezXealTUhHjNmDNatW8ff9P0XCQ8PR6NGjaCioiIJERAQEPj0VKlSBXv27OEnxIqZmZmSYAGBL4vk5GT+CbGAgMC/ixs3bvxnbwYEBAS+TBTZDzwEBL5EmG8K/ikg8O9DaNsCAgJfGop16tSRfBQQ+LJo0qQJRowYITkSEPivUIy85AgEPnqM0IQc7ujfB1s20qZNG8mRgICAwOdHke2/JqU49jCsdXvwa+ZK/uvA9Hd/iCTxAgKfksjISGzcuFFyxPln/A4MrqYApWbmsH8mnSbk4ZRlXShWM8Ke5IpMHTIReGoVtlwXlgoJfHnkPTmK2QPV0KRlB3TT1kLnVo3RSt8We3wyJGcU4v7iLqhapS3m3i6QhMkg8sfKnsqo0moarsmJrjgft52wNXuPHj3iPong+7/uUFZURq9fAmXGGjGitg5CDcWq6LrU+z3HoHeUkYCAgIAcFGU3hy987IEbfo/xJCQMYWHsfziiX7z8Vz6hEPjyadq0Kf9r/LIUJ1/C8mXnkfI3HDP7uC36jtuAGzGFkhABgS+D4uTzmG08BXvu5KC9+UJs2LoZP0/Rg6LfYcz5dix2h4olZ74FxUboNWoaplsNRGslSdjf4GO3k2HDhqFt27bcpyroYWmO7lVE8L94FsHSma/4GS5euo+CKt0wamxP7iwBAQGBj4vi643mxYgNDEKqoga+d0lHbm4u9z8Tj9brQ1lyBk+eD3bNGAPLcYvhGMN10Pl+2DuTO574My4mCFNngcqD+SZ7O9ibiBHvsBgr/kqXHJdGnOiGHXNM0V+7K7T6GGPmNjckcq4qjj6FlbvvI49ECDgwA3MOBXGzkHR4758DY/3u6KYzGBNWXUKkMFcW+OSIELh3LY7HEDrMcoTr6U1YPP9HrP7zBm78OgA1U29i/RZnybkMQqbvDkwdqoceul9j6va7SGXdL+fbeZmpSE3LRRE77a3+nY+n51di/GBddNXUxlejFuFkUJ78dlLJFBUVQSwumeBX0RwDc+2qED2+gDOBJTPi4mcXcel+Aapqj8KYrtx0uFwdYoQf/wFjxy3H3n1zMaRnL5htecCnUW4ZoRhJtzdjyjd66N6lC3r0N8X3B/0gfGckIPDfRjE7O1vysQBPnoRBTNlw/kkPnbv2xajl5xBedj5SsyeG9szhOuzNmPfDIVxePwML/7yI4KZDMKiFouQkAYEPhy3nuX79uuRIiiLqdNVGe8VIHFr4K9xzJMFScu9g+bBv8f3++yhs3wudFR/h0I/D8M0SN2SL85CZw0ZRQmFuOjJy8xF1YBKGf7cP3iIN6LR6gau/WGLEMjfklqQmIPBpKE7F3buBECl1gOnEAXi9GZkyOk20hF7VYiR7eUjCOIpjcPzXA0hopoGG6XdwcIEpph55xrl2Bp7cPIezV3y5m0DxW/07/co8fDvmVzjFN4KunirSbv0Oa7OluJ1dtp3wU+tKxdXVFc+ecfYylDRgObo3lEVPcOEsW6JXjGdOF3EvXxm9LEajo9LbdIiR+vg6zp7ajPnz9sEzOBTZypJ99csrozRHzB+zBA6RKug1qD/a5npg14xRWHpTaPUCAv9p2D7EPEUBtFqnKiko1qE2On2oR8uapKBQjbou8qDckjNeI4qiQ2bNSEmhKlWtqkg1ey4jzxxJnIBAJcHdrFFISIjkiEgct50MlBWp4UR7ujCzPVVVqEE6KzzoiEUdUlA2pN1JYko9Zk4qilVI86e79JJdVPCIVvTk/LrOcLLj4jMOGlM1VKOhe1M4P35Cv/SqSooq5nT0BcsghnYMrkGKjSfRhTecXuC/ipaWFu3fv590dXUlIR/GkCFD+PTU1NQkIRyiEFqnX5VQtT/9FiGSBErIdaDRdRRISXUGd1BA9xZ1pioKtchwZwyJuZCiwDWkW1WBqhvu4g44f9euSkotp9LV3Lf5dyodNuHaTVU9WhfC8hNRhNMftGnHKfJOKdNOPgLh4eGUnp4uOeJMi/qDDGooUNWuS8k7n9nJjT81DGhbJGfbW9uppDxQhbr84E5ZBRmUIQ0rp4xEEb9RP27cUtGxpU3HnMkv4B7duuVFISkFvC0CAgL/HZSUlPj+2MbGhl7vQ1ylLaYddoXLvQCE+N7Fg4d7YVq/CCHnz+Fh2a+QldRgtekH9FEWoUjcECZLfkLfWpI4AYFKIikpCadPn5YcyaBQB0arN2Jcq0I83LoAByKlaytFiAkJRy7qooe+NqqzIOVO0NNuDMWXEQiJLPPTnKJIRD0Tgwof4I/RgzHY0AYHQ4tBGeEITajAek0BgcpCQQUN6ipBgV4gJbm07xWnJuNFAUGxXgNJCIdiE3Tq0hTsO7kq7bqhc10FiJMTSuKkvM2/Y2MRHZcP1GqLDqpssbES2hrPw09zLNGr8cf/pu/KlSv8j2alKLY2w+gBtSAKuQjHa+dx8V4+ag0YDfM2nG0VaaeKDdB7YC/UUa6HejVLgsorIyW1MZhv2xX06BAWTTRCzx5GmPrrCTxIlS4fFBAQ+C/yeh/iTG8c+30Ltl94jJcsom5jNKqhABIVouiNfiIDrjsOwpubKLMO/NJvW+HD9a0CApUJd+eGmjWlo1tpFJuYYt06UzTN9YX7wzyUuKgiGjSoz/nkS25SkS75MWgOUp5no1ihPho1LPMrI8U6qF1LEYoq2rCctwALFnyPn37ZhaOn1sO02Qf8IklA4H1RbIg+fTVRRRyOC/a38Xp1fAEC7R1wv0gJTfT6S8I4itORmMh6ao68dGTkcy2g7usfSPO8zb9b1Ee92lzfn5+G1JySlpId5IJLf93F0/SP/1uQ6tWr82+IeoViS5hZDkQdcShO/LgVHvm1McjSDC3ZbLYi7VShJmoyPbKUV0ZcXsbrnHD//i2c/ONnTB+minS3XZj36xXklZwtICDwH0Sxdu3aJZ9q1UH2Iydc2Pw9rBZvwMppy+CYCLQYPAw9q8bj2LT+0DdcAbaLTdr1ZZi15ylqDVmLvdM7oNB3M75be09YdylQqTRs2BBGRkaSo7IoouW4TVg5tAH/BKgERbT6diT61CqA629z8PsFF1z+Yy7W/5WLuv3HwKydEqpUrQolhWIkBbnCI0wV3wxuAST7wPWJCLXJHwcXTcfk5VeQVuqXpAICH5sq6Dp9McaoAuH7x3KTwUXY+McWrJxqiGGr7yG/3lf4ccHXknM5KBPX1v+IvVev4+CSP+CSVxVdBg+WREpQ1infv6u3hNHXPVG90AO7lh3AXy4OWGFjCjOzRbiQTKXbyZNkSYKVx4ABA9CyZUvJEUMRTUZaYkg9QnxkDIrqDoHlyCYlbfttOl61UwUoln3PRzllVHjnJ2g1VUe/hTeh1OMbWAzvgUZcRsrVqsn0JQICAv85YmNjJSspiLK8fqPhbWoQ168QFKpRy8Er6FaKmEgUTpv6VSUFlXF0KtaJprVj67kMaEtQEYlTnWiKehVSqN6DltzJlqQkIPDh+Pv706RJkyRHMmuIrc6XrA/mKAr6nQbVUyRI1hCzNZZhDrOpb4vqEj+uSs36zqdz0SXrMkVBW8lARZGLUyCVsY4kTr5BywY2J2UF9pBZgao2H0Qrbqfy6w4FBBifZA2xhJyAI/TdgFZUQ1GBfenB+2+jHmNps0eKxCcl62OrdieLKf2paVXuPAVlaj18M3llcNGya4jzuTbzNv/O9ac9YzpSHT4vBVKs2ZZMt/kS+zlI2XZS2SxYsIBcXFwkR1JS6eTohqQIRWo0xoHSJKGM8nVIykNJnea4SH4P864yEqeQy8oh1LK6tIyrkEr3KXQ8vKjkcgEBgf8MsmuIFbKysqjU2+oKUxERFIms2m2h2b5h6S3XBAQ+IWyXCV9fX37P0vdGlI6ooAhkVG+DLhqNUU0SzBClRyEoMhcqGp3Rug77yrUAz8ODEJVRA226dkJTfvGxgEAJ7CVFs2fPBtdpwsfHRxL692FvaRszZgzWrVuHqKgoSagsxchJCEVoXA6Um7RHZ7X65ezDy50XH4yogubo2LZBSV9deBc/dR+IrQUzcCNkJwbzjv82/xYjOzYIwUmEJhpdoKbyOqc320nlwXaZYPsQt27dWhJSEf5OO5VTRhJE6dEICktGUZ3W6NSxOWoJj4cFBP5zsKVb7EVBd+/ehaJ0L8hXKDdEux69oC1MhgU+MyKRCK9+9Pm+VKkP9e660C4zGWZUqa+O7jpdZQb5amjcXhu9dYXJsMCXgCJqt+gMnd690K3cyTCDO6+lJrpJJ3qpJzC5mwl2PhWjapt2UHt14dv8Wwl1WndD797dS02GGW+2k8qDbffJ9iJ+P/5OOy1TRjJUqa+G7r31oNNZmAwLCAhwvQV7AYeAwJdIamoq3NzcJEcCAgJvQ5wuRs32Whg46nvs3jYNbSt/HltpeHl5ISGhzK4YAgICAp8RJTMzs1XKyspIT0/nt8FhP7ILDw9HVlYWf0JgYCCqVq2KFy9eICYmBrVq1cLTp0/5N9mxp8tPnjxBtWrV+C2y4uLi+F0BQkJC+DeMFRYWIigoCDVq1EB8fDwSExP5zyyMPR14+fIlgoOD+TTZJu0pKSn8r49ZnsXFxcjJyeHTYks6oqOj+QkSs/Xx48dgu2Owp4fsFdMsntnONLCdCQICAvi/n1oTe6JZ2ZoyMjK+KE2xsbGVriktLa2UJunLYtjXyVpaWvznT6mJiEppYnZUliZpPbHlILKa8vLy/rYmds2HalJUVCylKSIiopQm9rXS59TE8pTVxGyS1VS3bt0P1sTOk9XE0mGaHBwc0Lt3bzx48ADTp0/n4z8Ee3t7dO3alb/ZGz58eKVpehKviJGTbPHtkF6olxf3Vk3SegoNDS1VT8wO2XpiZS9bTyysMuqJ2a6hocH7SWXV0+fW9DF8T9D0ZWhi1zGb/82aWLosf6kmli+zT6qJ2cVs/piaWF7M5k+pafPmzTA2Nubna0pcpqvU1dX5BC5fvozOnTvD0dGRN5ZdyNbNNW/enM/05s2bfCd24sQJfiLGjDlw4AC/DowNFu7u7vy6sCNHjvAFxCa97HO7du3g6ekJb29vtGnTBnZ2dvykghl87NgxdOrUiU+bCVdVVeXXc7CCZAJYXmzwYPtWss6zRYsW2LVrF1RUVHgBZ86cgaamJs6fP88fN2jQAHv37kXjxo1LaTp9+jSfnlQTS0eeJlbwZTUx+2U1HT58+L00tWrV6g1N3bp1422Tatq5c6dcTawC5Wli6ctq+vPPP9/QdPz4cd6espo8PDxKaWKOXFaTmpqaXE23bt2Sq+nkyZOlNDGfKVtPrB4roknqe//73/9w+/ZtfrcJpqlDhw5vaGJlz9YZSzUxHfI0sbWfZTUdPXq0QpqkvldW09mzZ9+oJ3a9PN+TaipbT1JNUt87ePBgKU2sPZXV1L59e9y5c+cNTSwNWU0sD9n2xGyQ+p6spt27d6NevXpyNdWvX79UPbHrZOuJpVue78m2J6aJ2cvslmpieth/5odME9PLdLNz2TVSTcz3OnbsWCFNzMZmzZq90sQ0ME1dunTBhQsXXmnat28fGjVq9EoTS1/a75XVxNaWfYwJsYuLC28r67CZ7zGbmY8kJyeXak+s82/atCkfz3yPDb6sfpgm9pcNTEwr08TqidXr1atX+Xo6deoUf5PMbkiYJrazA/N1lrdse2IDh9T3WPtnbUZaT6zPy8/P5+1m7Yn1iawsWH/CfI+NA2xwYmmxPJ2dnXlNLC9WT7KaunfvDicnJ75tszpn9rP6KKuJDajyNLF6Yr4n1cTyZ/Ukq4n5Cxtcy2pi9VhWk9T3pJrYuaycymq6ceOGXE3sZonVE9PE6qlJkyZ8PclqYu3p3Llzb2hig/K1a9deaWITAHmamH3MDllNrN3L08QmHbKaHj58+IYmVj6sXyqriU0k2ERHqunSpUtyNbF2xOpJVhPrI9h5Uk1S3yuryd/fn+/Ty2o6dOjQG/XEwqQTKaaJ1a08TewhUVlN0vYkq4m1ubL1xPps9hCnrCY20WT1JNUk256kmqTtqawm9sBGVtP9+/f5b0TYPIvVk1QTa0+y9cTaE0uTTe6kmphNTBObaMpqYpNNWU3sJoT5FKtHVk9STaxMympifQmbTEs1sXTkaZJtT1JNUt+TapLWE7sBkNXEbvb9/PxeaWIPTJgmVj7SemKaWF5ME5skSzVJfU+qSVpPbLIrq4l9w8Qmx2w+x+qJTbal7ams77F8Hj169EoTGydl60k6IVbgBn5iA4OAwJcGa9SsYcybN08SIiDw6fn0P6r798MGIV1dXX7wExAQEPhcsBsQdiPB/6iO3W0ICHyJsDvdfv36SY4EBAT+LbDJMHs6/iVTnOyKw2eDJEefH8EeAYGPiyL76qnyKETK02AkfpTX/RQjI8ofD3x98SAkCQWS0I9PMVIeOOPeszKv/f1IFGdEwf+BL3wfhCDplcjK0f4x0/4YsK/nduzYITkCRP7HsfF0EN63JvIiA/D0LZtViB4dw6azoRCLHuHYprMIrchbm/MiEcAnKoL/8Y04HfRp/EMe4ujL2HrwnuRIDu+jS+AfzOf3xYrCvjpmazC/ZIpT3HHcKVhyVA45Pji27hf8su4QPFM/4A1/Ob44ecIbb9tT54PsET3B0RVb4PK88t5CWCF7BAT+QSiyp3CVRnECjn9njT1PK94hi0MdsHLPXW4q/S5ECHX6AxtWTsMIaztEfKrBXRwF+/lmmL730XtPxF4hDoXDyj24+26REIU64Y8NKzFthDXsXomsHO0fM+2PAVtzNnHiRMkRh6ISlN54HdU7EAXgtwlzcP55+cIKA89h3/VIiAoDcW7fdUS+s6JFCPhtAuacfw4x57lBF/fg8nv4fGUjjnPBAUc/yZEcKqxL4J/N5/fFimJmZsav5ft4FOPZ/lEYa5fCffqIVGkINU11pDgdhPtz9p6Pv0dx1j3YH76LzA81tjx7RNlIeZaA1HzJcTkUP9uPUWPtkPJRC01A4MtEkS3E5xHlIjsvFwlB7OlhPhKDXz9FFOfE44n3PfiGJuNVeyrMQWaeGOKMSDx4EI50OfONwpw0pOe87pzzEgJw3ycEKZKJYUF2KpL9r+KEcwj/I6bUtBx+YizKzUROYTHyk4LgF5IimSwrQ2/eQThsGYP2ZTbmlGufhPzkYHjf90dMpoyBeQkIuO+DEKkh5VKInMy6mGj/EE6LtF/tB1pinwjp4b7wCX1eeqLMpR14/y68A6KRzpIvyEZqsj+unnBGCKfxeWoad23JqfLsVtabh4MOWzCmlMjytZfHx0z7U8F+SMZ+ECGluDAP2S+50i58gEMbj8Bx1/cYaz4WM9c5IYqVaW4gTv5vMkaZmGPysqN4xI0u8deOwTkmElc27IdXXgru7l8MG3NjGI+yxUrHkDf8RUpu4En8b/IomJhPxrKjj0o9uSmOv4ZjzjGIvLIB+71YCoQsv/2YP9YU5lN/gVNUiUcURl3BhpmjMdJsEpbY+73x9KfwwSFsPHQK2+dawtTye9h5P8HlX6fA3MwKP5/nJujspPwIOG2chbFm5rBeas9p4i8Fsv1xdMkkmJtPxQZXyaBf6AO71SdR8oBQjMhza7HTLYMdvKYwiiuLmRg90gyTltjDj08vF4En/4fJo0xgPnkZjr7KROBTIQ49jTW7PHgfKU5xxu+L7eDL+l/uhvzChr3wzGGu4ISNs8bCzNwaS+1LfLLQ5wDW79yORRPG4keHyNeTP1EMnDYsxx7PNDntosT31h88gW3fWcBs/A/Yfz+t5NrictpIAeeH62bC0swCU1efRQj/LWAhorg2MHP0SJhNWgL7Emd6a9uRwn68yH6EI6U44wGO/G8qLLn2PO9IAAtB2u3dsLvqjG1zxsJyth0esR1C84LgsMwKplybWuYQBN4M0WPY/2gN8xEmGL/wCPxzsuGxcwFWHOf6Z4flmDfne/x2PYnXlxfkgGVWppy9y+AQVAlfZVZvi/4mQ9GVvftZSnEq7u1bgHEmppi4+ChnDwsU4bH9j7A2HwGT8QtxpCQQOVxZrZg6GmbTDiO41EDyN5FnT4Ybti85hqi6zaAisyl7tt8RLOLKYoTpRKy9mYZMj51YsOI4fH0csHzeHHz/23UkfeDEuDjtNnbbXYXztjkYazkbdnwlvlkPokAHHDy4A9/ZrMep48tgNe8o/41Wceo97FswDiacjYuP+iNHFIjjaw7Cl3dKrn+/shm7PZiH5SHIgbvOlOvXljmgMqpW4L+HorRTKvBYjpFfW8BmkilMza1gbWUC03V+XJ93D+vHWWHJ73/gV6s+0JlxCexbl7wL0zHAwhpmI2ZgzfxvoM+Fv6YYGZ6/4tuvpuBEJOvVRQg9MAb9Ry7C7+smY0DfOXBKzsHNNWYwXXkD8R4bYWbMdcDjf8f9wkLcXzkIBiNNYGT1P/xk1gcW+yNKkpVHOfZxwwf8to2AVn9brNuyBjMX2CGca2Ci0AMY038kFv2+DpMH9MUcp7e8p7/gLn4bMwLDDPrAckcoN8VgMPsMMGg415jnrcNPxnqwOlkyaRM/3Q9zPWMs+mMvtq78BSdCRMi7uQZmpitxI94DG804jcbj8ft9bvZWrt2VwMdM+xPCfhHNfs0qRfT0Oo44R0AkeoqrG5dif8oQLPx5AupcnIWl59MQums2NiYPxbL1izEwbj2mbQlAzfbd0LZufWj000Ztpx9gc0wJo37eiF9smuLm/GU4zc0X3kAcil2zNyJ56DKsXzwQceunYYv/69FKsW57dGtbF/U1+kG7FXcXUZwBT/ckDPh+OWxULmPWsnNcA/HA8tE/I1RnDtYsNYXSoYmYcaJkUJYienoVG5bZ4YXhD/ihTyRWDp2IC80n4+cZLeH8w1r8lZ+J6wtGYGlgd8xYvhBD83bB0tYe8cWZuPLDWGxNN8LCpWZQ8LiFaGaeKBRX7V0QwzuqGAl3TuLiY9l9xvPgsXw0fg7VwZw1S2GqdAgTZ5xAfPAuzN6YjKHL1mPxwDisn7YFMnIFPgFKjQsRsOMw3LmBPNvlT2zY/gcc/QpRHHcJuy8loW7BdSwYsRSB3Wdg+cKhyNtlCVv7eBSGXsa6Te5oM20WLLWbgZ8GiaJxaoYZVoVr41v9enLahT/yOd/b9NN2RA38EYtNgYMTZ+IkN/tJPyevjeTDfZkZFgd0x8z/LUCfsJ8xfq035+LLMfrnUOjMWYOlpko4NHEGTsQHv7XtSGG/+Ga7NPAUP8fZuVPgUHsiNu7eiKm9S37knfXIEcv/dwb1p/4Ky5c7sOlKGu6umQWHJvOwY+tkKO6bh+1BnLMr1EePMcux++AfGJP9B1aezoPGEG4S1bMpWupZYOLE8RjWXQWKXH++ZpYDmszbga2TFbFv3nawyyub1LPzMce5M5bs2YKJtAdTf73HjRoKqN9jDJbvPog/xmTjj5WnkZrvip9nnkQ929+xd9VwtP5Y+0bX7ASjcSZQ8b8E3zTJU+PieBxZsh0Fk/bAfv9aTNKujVoaQ7hJfE80bakHi4kTMX5Yd6h86AtLsh7Bcfn/cKb+VPxq+RI7Nl1Brpx6CAh3xsbDqdBteBG/uHZA15iTuJHE+cX8OXDuvAR7tkwE7eHS8G2C6uE7sOcGd0MhDsPxrTdQ0KI2N1SvwSyHJpi3YysmK+7DvO1BkvFaQKDiKLItrUoQI1nJAFt++wa5eXrc329BMdGAsj7+53QTjnu3YseB79Dc5Rr8+YfK3PmJzfDDpb9w/swyaAVL1zASsn3WwXJ+AMYeO4nZ3Wtxc1NnbNmaC5sDe7H5j2PY0NMFO89kYvhv7nD/3RiqQ9bAlW3jcX0lBrDXCVEBctXn4MJf53D1gBmij58tSVoe5dhXnOKANbuUsdzNExdOncW1gzPQXikfzlu2ItfmAPZu/gPHNvSEy84zkoTkUG0QVjt7wmGmZum3RXH25XdcgHOXz+HiCm08dH3EBxc98cCDhqZYtfMQTp47wGmvgprDf4O7++8wVh2CNa73cd/rOlYykeWWayXwMdP+hLAta9iv++VSvR9sfxoJXe2hsDBohORnaahRrzZSvRxw/EoY2iy5DbeVWqjfoRvUuQlxhwG90G3MYTw8NQmNUoLhF/ICYnE6UrPl3Cko1EC92qnwcjiOK2FtsOS2G1ZqyXhAnQ7ops5NiDsMQC9VLlyhFgZOW4ZRfXrh27GGaJL0DAXejriY1Rot0r3h7BaBWqrKuHXeFa+fiZVQrY8NfjLRR7/h/dGu1RDYWvWHtoEhtKu+QEqWJ878pYpZm6bDQLcvxq9bDD2fM/gr2QeX3dQxY80E9O01HIuXW0KtIoNpgTccL2ahdYt0eDu7IaKWKpRvnYebQj3UTvWCw/ErCGuzBLfdVkJWrsAnQMUIQzs+guvDbHh7JGPg8Lrc31ik3HJF9qDhaHufq3fVWdg03QC6fcdj3WI9+Jz5CxncRKtWH0vYDPoKeh1rcn3TS9xbZYyZT0bhyF4LtFFSkNsuqrAJ2vDFWDu2D/Qt12BhLx9cvJ2H+hZy2kjqAzg5N4Dt2hkYrNMPk7c74fBUNXg7XkRW6xZI93aGW0QtqCrfwnk3hbe3HQmTJk3it4ziKfTBjQAdzJo/COrN2qB75+Yl4VCClvVyWPVoD+NV9ljWNxFu7iEIPr0QE61X4npcLMIjuI7tZSp8jy3GeAtrbHRNRFZWARp37oXuLeugrqo2euvroWuL6hBHu8E9JBinF06E9crriIsNB7u8cimAP2djd6tJ0GrRFkZTRqKmnw+eF79Equ8xLB5vAeuNrkjMykJmiCu8m47C9L6tuUloY9R6z9VgFUa5KTrr9YBqHZkMFJtyk+Ru8F1qhXnbbuKZSAlVmnZGr+4tUaeuKrR760OvawtUxos7lbSssdyqB9obr4L9sgGoIqceIsWKUB88AnqNGkHf2ASqNYtRlP2IO687rCZpoUVbI0wZWRN+PkUYZt0fgY7XkBp0Gn/VG4tx6kC0mztCgk9j4URrrLweh9jwCPwDhzyBz4wi2xuuBAXUVOsA1SqKqNtOg/vLNR7uZrI49SaWD+qCHkPHwHqePZ4UiCVLBBShomMA/fqKXNuyxWnPdXwoKAveR44hzWAuRncpaU7F6RGIiA+A/YLJsLGZhh3hraBe523LFapAvUdPNOTuTquoqqJJlrzHeCWUZ58oKgTRrfpiQFPZr7LSERERjwD7BZhsY4NpO8LRSr2OJPJ9UEKbbt3RgEu6Ws2aUBKX3ItWH74a2wc+wfw+XMcyaiWuPiv/HrX8cv1wPmbanxK2dyLb11AeCso1UIMfZzn/U1QEkQJaTzuGy6v6gfwOYc5gLQxe7VnylSpPMVKvLcKgAePw63E3RBY3QiPmnvKW/Sm2xrRjl7GqH8Hv0BwM1hqM1Z5v+Q5OQRk1a0oG/SpKUKRiUGYmcqrXQb0a1fnNx+v0ssXqid04z5FFAdVr10JV9lGJ06GsjKq8uypAgY1d4hzkFNSBSl2JD1ephzrV85H3kku7oCbq1C4JV6zfAPUkpyjICGIvTSkFZSIzh7OlXg3epup1esF29URoqU3Dscur0I/8cGjOYGgNXo23yRX4CCg2xteGjeHj7ASX4LawnNUX2V5/welWEvp9qwWFnBwU1FHBa1eog+r5eSjgqrh6rRoyflUEBS1LjMg7hf1u7KtkxXLahQLqNpS+nr8q6tRRwsvcAvltpJjzm9xaqKdSkotig3bozt0QZmbmcD5UDzWYL3G+3st2NSZqqVWo7bC9odnewjyK9VBPKQlxcn6UxrUE/m/11lrcpLYBVFTUYLmDm4BzEyDfsKewG1EdGWfXYEueLRxv38JBGw1JWShw/YICCgte/0xYoa4KVNQssYO7GXRz90XYUztwl1cySqhfvyqSE57z3wYVxMUht0lz1Ms6izVb8mDreBu3DtpAgzNSoXoNVM1MA5Od+SQIbxkuPgJV0NHmMDzvHMGMRpcwdcFZsEUcClxfqlBYULk/ruaqkK/F6q2h1bU5qsqph+Fl36vNUKqP+lWTkcB/vVmAuLhcNGleDzUHWuPr2FP4/U93tJlgjmZcPddVUYGa5Q44u3GTbd8wPLUbUSmTeYH/Fopsw+S3ke9yAIfrLoKntxsu7xr77nWmCvUwZKM9zH1nwGp3IL/+TLFea6g27AibA878xsguLjewdxJ3W8dOV6oCysniG+ObFCPd+wHi2mhIjt+kPPuqtGqNJrG+8JbtZLmOt7VqQ64jOABn3g4X3Ng7SRJZCSi3hcnqU7gbfA+bVC9g6a4HJeEK3N035SBLRuR7l+t78DHT/pSwSRt7CUPFKITPtjmwV7DG7ydu4aGDJTJueXCDDJtcEqi4EHdPn0atmWdxyX4HVpk1Rl6WCOJiOTPiQh9sm2MPBevfceLWQzhYZuCWxzNJZAnspRHETXzLo6pmN2jkiNB69GzMnTsLJqqZSMhTLP1Nw7uopomurQNw27XkpjXP3wXeChrQbKaFHm2D4e7B1geLkXD3vuQHc9WgXJiKFOZnxUkIDEou/bVhVU1008iBqPVozJ47F7NMVJGZkAeR3zbMsVeA9e8ncOuhAywzbsHj047OAtzEteWwwahycSNu1O2HgfoG0H76BzaH6GJYL2XOFbqidcBtlLhCHvxdvKGgocnflJdCoS70Rv8P2zf1w60fVsM1W367iONuluJ97iKCPZfID4DHQxVo9agmv40odURX9XB4eZQ8mMhwmoW+Uy9Cs5sGckStMXr2XMydZQLVzATkifze2XYY7Aezr7b8VNbDtO9qYc/QwRg1bjQs1riUhJdFsSlGzdaHs81gmFvZYOK4lbjCNYGaHTqjptfvmGY+AouvpUpPRvO+/ZC92xIWEyZgkUMMqOkozNZ3hs1gc1jZTMS4lVdQZoX9eyPy34Hxg02x9d5jHLA2gu2BSGhaz4CKnRm+HWOOb5fFYcJ8Y9Su2QGda3rh92nmGLH4GpiVSu1MMKrqn7AcOQLj7KJRqxL66TfteYoCOWFiUTD2TRkJiymLsc0pCR30OvMTSMXmfdEvezcsLSZgwiIHyfKrykWxovVQpTusZ6jAzuxbjDH/FsviJmC+cW0uXBtWI9Kw17kzrL5V4U5URNNRs6HvbIPB5lawmTgOK5ljCAi8L7m5ucTId5lLOpPOUYb7Auo75SL/tzd3LArZSd+oaVA/wwGk/7UR6XadTtfyiXJPjSWNKZfpJX+1BHEUbRnci372KyJx4iWaqdWFJh6PpCLKp8c7TUhDTZsMR5rSiG/G0zbuHP6SFxdpRqeWpGkwnIab/UJu+QV054eOVL9dPxo6tA910hxBW3w4G0XhtMeyB2lqNKfatZqRhqYuzb/8slz7iNLJbdUgattej4YON6KvJuymUBGn8/FOMtFQI23DkWQ64hsav82Pt0MeovA9ZNlDkzSa16ZazTRIU3c+XX7J7OtG3+5N4c95eWYidebKgVNC8YetqXc/IzIeYUQ6mgPpZ9cs/hxOJF2c0YlaahrQ8OFm9Itbfjl2iyh8jyX10NSg5rVrUTMNTdKdz6Vdjvby+Jhpf0rS09Pp3r17kiPO506MpjZW5+ll7gka3caKzvNmFpH30p40cFM4ZbmvoP7qGtR/2DDq20WLxh8OJ5E4iY6YtaL2AxeS3Z+TSaOlJhkMG0x9BpqRkWYXWuBRQLlHzajt1KuUn3uUzNpOpav5WeS+oj+pa/SnYcP6Uhet8XQ4nHOeV4gp6YgZtWo/kH46F0knRrchqxJjqMjvZ9IduIn7lEF31hpR+7a6ZGioSx06GtNm7xz+HCmv9HCfReGbaGDPpeTNmkX+TfpOYyQdzBBT2u0VZNBeg/SHfEWaHfRo7rlYLncudY/VZNChE/UbrE+6+j1IfehuzqxEOju1M6l2MyCDPv1o2IBOZLg9jstIqou77s5aMmrflnQNDUm3Q0cy3uzN3Y+604r+6qTRfxgN69uFtMYfplJy/+NoaWnR/v37SVdXVxLyYQwZMoRPT01NTRIioSiAVuvUJP31oSSiNDpmXp9aTrlCfA8tTqPbKwyovYY+DflKkzrozaVzsWLed9tMviTph3Nf+6I4hc7baFCPn9zltousExbUWL0r9dYzoIHdNKjvT9coWSymBEdbuW0ky3MtGWp0pL5GA6m7phH96pHBnInWGrWntrqGZKjbgToabybvnHe1nRIePnxIycnJkqMSRBlxFB4eT1nv8D1xbjJFhIRSZGI21/pLyH8RQzGpfMdfCpZmWFgMvY7iyiw5gkJCIykxW3q1fIoeryZD6zOSo/dElEOJUdH0Qtak/BcUE5PKjYYyiHMoJSnjlY638UH2yKMgneLCw94sN1EGxYXJCS/Dh9lT8XoQ5SRSVPSL0uUmD3EuJUeEUGhkIr0jSQGBVygpKfH9sY2NDbFXmUqCy0eUxXUqURVwyHdQlB5DwYGBFMI590s2qkspSKOooCcUlpDNDQQlE85hWwMpLCKJcmTPK4e32Zf/IoqCQ2IorUASwChKp5jgQAoM4TqsUoZ8KKyRR1JwUASlvGFMAaVFBdGTsATKlnT4lVWu8viYaX8q/P39ydraWnJUQV5yg2VQCMVlyIyqBS8oMjiKUjkfyH8RSaFRZQalcnjJddhBIXEkm9RrCuhFZDBFsUTfQkFaNIWExVPGh3TQ3EAaGcL5VMms5zW5SdwEIrFMGxFTdkIERb/NLq69RYeEUXwpo15yg0kQhcRlcG1QQJZPNiGuAMx/QyJSJBPg96BMuyi5GTtH6ZyPhyfm8DdZUsptI5wfRoVy7ahUBNevRYdQWHzpSd3b2w7RDz/8QC4uLpKjLxNR0GaymOMkOfr8CPYICFQ+shNihezsbGLvkf5yKITnj7pYp3ELV2Y0loQJ/Bdh7yIPCAjAoEGDJCECAp+ef+Orm/NOWqLLtfEIsTf9LGstvby8+B/NsqUTAgICAp+LUq9ufrUP8ReDMnSWOOHPsdLdLwT+q7AtAT/XhEFA4N9MTeM/cHuT0Wf74dGzZ8+QnZ0tORIQEBD4/Lzah/hLonrjNmgh/dm8wH8WNmA+fvxYciQgIFBp1GkO9WaSH7V9BkJCQvhvgAQEBAS+FGT2IRYQ+LJgO0zMmDFDciQgIPBvYfz48ejSpYvkSEBAQODzo9S0adNV9evXR1xcHLy9vdGgQQN+LQV7tSbbWurGjRuoVq0aoqOj8fDhQ7BzPTw8wPYvFolEuHnzJr99TlhYGL/es169enB1dUVOTg7/lfetW7dQt25dPHnyhH8qwD6zsPz8fP4J4O3bt/k02ZPA8PBwsPXMf/31F8RiMf8Ewc3NDY0aNYKvry9iYmJQs2ZNXLt2jbeNvenozp07fDx7oxnbt5ZtI8euZ3/fpolt6cW+jv/SNSUkJHx0TXl5efwWdBXR5O/v/9E1sdd4M/bt24cTJ06gffv2FdbE7PxUmjw9Pd9b09+pp3dpYtew11xnZWWV0hQREVFhTWwvZ/aa7PfVRERwdnaukCa27+zf1cTyZG83K09T48aNeU2xsbGoUaPG39LEzpOn6eLFi+jduzcePHiA6dOn8/X4IbC9tdlLKZgulq5U0/Xr1/m8X7x48VZNiYmJfPkzTffu3eOP2To4qSa2HKE8TSydyMhIvixVVFTg7u6OzMxMFBYWlltPubm5r+qJhbF6Cg0NRZ06dfhr2LUsDXn1VJ6mZcuWoUmTJnw+n0pTYGDg39bk5+fH5/GuemI+w+L/jiaWXkU1MTuYvR9TE1sv/0/QxN5oysayv6NJSUmpQprYdX9XE+vTmN0V0cTS/DuamI0V1aSsrMyXwftqYv0xGz8roonV4d/RxPKqqCbWt7Pwv6OJlZ1U0/bt22FsbMznp8gmumlpaXwHwyYFbMLHBkqWOZs0MFHsQjYBYJ2cdF0ni2eDlTSeHbMMWaGw89j5rABYR8TSYfEsLxbP8mETOZYvi2eFyQYmJoilzyYDTAyLZ+mza1g8+8/i2TUsjp3DzmXx7Fo2IWZpSeNlNbG8ZTUx2+RpYlrKamLxsppYvDxNLD95mlh8WU0sTVlNLEyeJhYvTxOLl9XE4stqYrbL08S0ymqSxstqYvHyNLEylqeJxctqYvFlNbF4eZqYL8hqYpMWZgs7jw2aUk0svqwm5oOymli8PE3Mp8tqYvHyNLFJlqwm1lDkaZLGy2qSxks1sXhZTewaVk+sMctqYsfMZhYvq0kaL6uJTSTlaWIT0LKaWLxUE/vP4stqYnmyOFlNLG0Wz/Ji17C05WmSxstqYvGymlg808SOZTWx9KSaWTosPZYvi5fVJI2X1SS1WaqJXcM0sf+ymlga7DMLk9XEwmQ1SeNlNTHbmM0fC9ZZM3tk60nanqSaZH2L2Sz1PXauNF6232P1wDRL60G2j5DWk2wfwepDtp7K9gHsPHY+u46lz+JZfiye5c/skLYnFs/skGqSxstqYmmyODbRYP9ZmDxNrB7kaWLxspqk8bKayvqeVFPZfo9dJ42XamLx8jRJfa+sJhYv1cR0s/iymqTxZTUx35PVxOLlaWLx8tqTPE3SPkCqSdpHyGpi8fI0sfYiq6m8fk/aB8hqYvGymli8PE1MgzxNLL6sJpaPrCZpH1BWkzReVpM0XlYTy7OimqR9gFSTNF5WkzT+XZrYsbTfk9XE4mU1SeNlNbEwFs/sltXE/stqku33ZDWxsLL9GktbVhOzjcUzW2U1MS0sXqpJGi+ricWzdFh6sppYerKamD3SeFlNUpulmlj6LE1ZTSyMaWLlIquJpcHyYteztFm5SuNlNbF4Vh+ymli8VJMsClyCxO6gBQS+NJiTs7vQ/v37S0IEBD49/8ZdJj43rBzZkqhmzZpJQgQEBAQ+PezJ+atdJtjMW0DgS4TdIf7555+SIwEBgX8LJ0+eRHBwsOToy6Q42RWHzwZJjv5BFCfD9fBZBH3R7+svRrLrYZz9so2Uyz/WLwTeiSJbb1F5FCLlaTAS33x1vYDAe8OeIE2bNk1y9AGI/HF84+kvfID4NIj8j2Pj6SAIRfFlI46+jK0H73GfRPA/sQlngv9dNTZu3Dh07txZcsQQ4cnRFdji8pybKn0ZFKe447hTxSftOb4nccI7U3JUlhz4HFuHX35Zh0OeqR9XY3EK3I874ct2mWKkuB+HUyUZKX56GYdvxpZ+Vf1H4n39QuCfgyJbVFxpFCfg+HfW2PNUGG5LIQ6Fw8o9uFsoORaoEGx9UFBQJdyJFwbh4p7LENySFcVF7Ln8VJgQf+GI41xwwNGP+1SIoAv7cDX831VjbC0kWxL1GhGyU54hITVfcvxxKH62H6PG2iGl0mekxci6Z4/DdzPLmexWQUM1TainOOGg+3OQJFQuxc+wf9RY2FW+kf9aikIu4M+rMZ9kQlzZfDyfFHhfXk2IxXkZyMyXrZECZGfklgycxTmI9b8H7+BkvOquCnOQmSeGOCMSDx6EI12OJxbmpCE953VHnpcQiPt3vREQnc518xyiXGTmFKI4PwlBfiFIeTVhFCMn/gm87/kiNLlMB5mfjGDv+/CPyZRx/jwkBNyHT0hKSbqv4MID7+OudwCi0yswG30j7ULkZOZBLM5A5IMHCJcVmZeAgPs+CHltNIccuwuykZrsj6snnBHy/Dmep6aBkyyhPLsFGOxHEmyRvJTCB4ew8dApbJ9rCVPL72Hn/QSXf50CczMr/Hw+kvfV4pS72L/YBubGxhhluxKOIaX9RxTjhA3L98AzjfP1wihc2TATo0eaYdISe/jxD3dyEXjyf5g8ygTmk5fh6KM3n/i8Kw/OUBzaeASOu77HWPOxmLnOCVF8BRci6soGzBw9EmaTlsCeZcjdLJ1eswseLJviFDj/vhh2vqxNihF1YQP2euawC/nj0NNrsKvkRKQ4/47Fdr5cK+Vioi5gw15P5ORHwGnjLIw1M4f1UnuUmF4InwPrsXP7IkwY+yMck6VDsQgxThuwfI8n0orlaS7Eg0PrcfDENnxnYYbxP+zHfVZmLO+7+7HYxhzGxqNgu9IRJfILEOG0DjMtzWAxdTXOhpR8TVQYdQUbZo7GSLNJWGLvB94kAflk++PokkkwN5+KDa4pMhMr4qL+xPwJlrD+aT+8Uv/5Iyf7cRL7oUsJGXDbvgTHouqimUo1SZiI88k9OHl2C2aMMsfUrR6cn3LB2X44ssgKpiNMMXHtzZIwrh8NclgGK1OuHS9zQBDnesVpt7Hb7iqct83BWMvZsHuUi2yPnViw4jh8fRywfN4cfP/bdSR9cFHmcHauwNTRZph2OLhkvJRjD1AdbfubYGjXRpDdYT8vyAHLrEy5/mAZHNiJ2R7YuWAFjvv6wGH5PMz5/jdcZ0bmBcFhGaeba0fLHIK4HD6cnMfHsXSSGUZaWGHKr1fwvDAQJ7acQwQb5vK8sP+PmyWTtDfyLkba7d2wu+qMbXPGwnK2HR7livDk+Boc8C3pC4vjr2DzbneuZj8QefVdnIEHR/6HqZbmGDvvSMl5jPS7+H2aBSxm7sBd/sQ360EU6ICDB3fgO5v1OHWci5t3FKFiER7b/whr8xEwGb8QR/ylfe7fRxR4EntOnsWWGaNgPnUrPJg9xam4t28BxplwWhYfBcumPJ98wy8Ycn1foFLJz2cvphdT7B9G1Gd1wKv30Yvjd9DXvVaQX/pd+mVwF9IZbkEjdNSp86QTFC0iyj01jroNm0Aj+hvSyP7tSGPKRe6iKNoyuBf97FdA6Xd+oSHaprTTP4dLTUSh+8yoq/YwGmc1lsxsd5I/l1HBnR+ph+5QMubSMBvSidqO2EfhXNoFXr+QsYExWY41oV7qXWj6xRTeppcPt5KxRnvSN7Ek828m094w7uSiELKz1Cadb0aTqb4G6cy+REnsxfyiUNpn1pW0h40jq7FmZLvTv9S79ssiN+3cUzSu2zCaMKI/GY7sT+00ptDFNJalHVlq69A3o01JX0OHZl9K4tOQZ3fu5YU0oFcnalqjEWn06k299YfSKveC8u0WeEV2djaFhIRIjrjqOGFBKs0M6ecLXuS2xZhaqPSgKXYe9PDaYtJTs6XLL9PIcUIHGrD0Ej0MfEiXlvSlFmZHKDX3BI1uY0WOwQ5kq92TpjhGcx6ZS+4LdUjbZj+5+t2ns8sGUZcxxykuaCN9pTWVTvo+oXuHrKiz7gp6VMpxyslDEsvD5WdRvzkZrrhIPg8v0cLerWiMQwblui8kHW0b2u/qR/fPLqNBXcbQ8cTndNSiI9leyiXKOEmjG1Wnrou8qEAcTduM+tDKx68zTz1qQR1tL3GWZ9DJ0Y2oetdF5FUgpuhtXNtd6UmXZ3YmzYl7yMXHk47P600dzI9QnDiXjprWJtVRO+m22z3yOzSa2lg5UrCDLWn3nEKOXGMWhcjTnEsnLFSogd48OnnXi04t0KP2o49R4gtHmtBhAC299JACOW1L+rYgsyOp9NLtB+rWeSztuuVLd+wmUGftZXQ/3Z0W6miTzX5X8rt/lpYN6kJjjidyvc0/Cy0tLf5d97q6upKQD2PIkCF8empqapIQRgZdntqJtKfbk6f3ZVrzdTOqYbibC+fqYVRdUtH/gU57edHpH/Spg+Xxf3xfwd3oUnp6uuSogJKC7tGN5QNpwLpgrm0yXtJFmzbUccJ+8o10pu91htHuhCKK2/E19Zx3gxLSkik69gV3JVG+52IaaLKVvGOjyGX5IBqy/gkVRm2hQU20afphPwpznEzdx52ijKQg8jo/n3oNWEbXubK8FxDP5VI+RY9Xk6H1GcmRfF7enk/9Rmwmz5gE8l4xgAy3xlCeHHtKNBGl7DWmr6Qa8z1p8UAT2uodS1Euy2nQkPX0JD+JgrzO0/xeA2jZdS/yuhdA8S/zyXPxQDLZ6k2xUS60fNAQWv9EmqIcih7TakNrOvM2cS9v0/d9vqVNd2IowXsF9TfcSjG5F2lK3wXEhidK+5NMBq6nEJG8vAspassgaqI9nQ77hZHj5O407lQOpZ+zph7W5zhP5sb7TYNp8KbQV7rfpIgerzYk67caKZZT32JKOT2RtL5ZT7cjEynaP4g/8+VFG2rV3pL2eEeQ83wdGrY7QW495FyyJY0BK8nuBz3SnHqQNowcRtvjCinW/z6FJqZQ1IXppG1ygF7wqcqnQn7B2dOm4wTa7xtJzt+X2MPs1hm1jx7FR9C1n/qQ7mIvypXnk/L8QiSvLAQqAyUlJb4/trGxIUW21QW4e9bG7dqgIC4WL702wGqVC7Li4pHRui1qnF6Lk21/w63LjrjkeQqmAVtwMJDdB4uRnNgMP1z6C+fPLINWMFvvxiBk+6yD5fwAjD12ErO7sx0sivDE4wEamq7CzkMnce7AbHSvUnJuQa465lz4C+euHoBZ9HGcjRJDWf9/cLrpiL1bd+DAd83hcs2fu7tKgcOaXVBe7gbPC6dw9tpBzGivhHznLdiaa4MDezfjj2Mb0NNlJ84kcrdORU/g8aAhTFftxKGT53BgdnfwWcqjnLQZ4uRENPvhEv46fwbLtIJxLygLzlu2ItfmAPZu/gPHNvSEy84z/Lny7K45/De4u/8OY9UhWON6H/e9rmPlAOXy7RZ4BftR3d69eyVHJVTrY4OfTPTRb3h/tGs1BLZW/aFtYAjtqi+QUlAfFocf4tSkRkgJ9kPICzHE6anI5oqVXt7DKuOZeDLqCPZatIFSgTccL2ahdYt0eDu7IaKWKpRvnYebQj3UTvWCw/ErCGuzBLfdVkKrlOOUn0cpqveD7U8joas9FBYGjZD8LAHejheR1boF0r2d4RZRC6rKt3DetRqMhnbEI9eHyPb2QPLA4ajL/Y1NuQXX7EEY3vl15ipGQ9HxkSseZnvDI3kghtfl/sam4JZrNgYZpeL8X6qYtWk6DHT7Yvy6xdDzOYO/2CMahVroY2mDQV/pQaMa4eW9VTCe+QSjjuyFRRslKNQoR7NCfQxfvBZj++jDcs1C9PK5iNvVLHD44SlMapSCYL8QvBCLkc71IQ+cnNHAdi1mDNZBv8nb4XR4KtQeOuJiVmu0SPeGs1sEaqkq49Z5V3x578b8AijwwWU3dcxYMwF9ew3H4uWWUCvpgtgvPTBi0RqM1tfH6FXfQ/veRbj+wwvx+PHjMsuhlNG0sx56qNaBgiSER6klvp1hDR11HXRtlYfMLAU0NRqHbr5LYTVvG24+E0GJG4ei3dwREnwaCydaY+X1OMSGR3AjDne5ljWWW/VAe+NVsF82ALWadkav7i1Rp64qtHvrQ69riw98dbUIT1290XTUdPRt3RQtG9fi7C/fnrKIo93gHhKM0wsnwnrldcTFhiOCmqJzr+5oWacuVLV7Q1+vK1pUjYabewiCTy/EROuVuM6N0+ER8lKsOKKnrvBuZomZ/VqjacvGqF2q4GUQl5e3ErSsl8OqR3sYr7LHsgHVoDJsMgYGOeBycjAcr9WExdj23FkfgqKc+i6Ez40A6Myaj0HqzdCmu3QduhJaj5gD215toaPZCnmZ6YiSWw+KUB88AnqNGkHf2ASqNYtRVJiHVN9jWDzeAtYbXZGYlYXcDx6KldDy2xmw1lGHTldmzws84sqxu9UkaLVoC6MpI1HTzwfpjd/0yary/KJIXlkIVDaKbMNiRtX2bVEnKRq3z97A/SsncCM8CVXbqiE57BladNdCHXZStS7QbJuO+Hj2nYoiVHQMoF9fEYpNbXHacx07g5t5ZMH7yDGkGczF6C7S7qY6hq/ejoFP5qNP514YtfIqnklWH1RR74GeDRW5D6pQbZKFtNQipN5cjkFdemDoGGvMs3+CAjE3ARdFISS6FfoOaCrzlVMx0iMiEB9gjwWTbWAzbQfCW6mjTiFxWQ7H6u0D8WR+H66DGYWVV59xXVU5yE27BEUVHRjo14eiYlPYnvbEuj65iIiIR4D9Aky2scG0HeFopc5Kp1i+3XJ5i90Cr2Cbenfv3l1yxFBA9dq1UJV9VOL8TlkZVfkKU4AC69CLU3Ft0SAMGPcrjrtFopjr9JgH8qVapAAtyxHIO7UfbuybWspEZk511KlXg9/8u3qdXrBdPRFaatNw7PIq9CM/HJozGFqDV8NT9vvJt+Uhg4JyDdTg57KcnYqK/J6zmZk5XD71UIPlV70OetmuxsRuVdH4a0M09nGGk0sw2lrOQt9sL/zldAtJ/b4tNRlXbPw1DBv7wNnJBcFtLTGrbza8/nLCraR++FbzJXIK6kClrsSDq9RDner5yOOXQVVHrRqvu88iBS1YjsjDqf1u/BIGxdblaFaoi4YNlflrULUO6ii9RHbyNSwaNADjfj0Ot8hiNGrE1Bdz2nJRq55KSSfNTeDadVdH3exM5HA669Vgermy7mWL1RO7CR25PCibq7+aqFO7pP4U6zfAq7fXK3DhdSWOwOpBkavXD5sPfXY6derE+db7vyW1SkcbHPa8gyMzGuHS1AU4m6OAuioqULPcwd10cRMJ3zA8tRtRMtHl+gR+nle9NbS6NucfiChwbVGhsIBfavThcP1RjarITGM/ksvEkyA2xrzFnjIo1FWBipoldnA35G7uvgh7aocR7EQFrs9QKMSrn/dw7VBFRQ2WO7gbaW6S5xv2FHb8iX8fheo1oJyZCrb6JvNJkGQ85hxOxOXLdWb50c9KlpO8JW+u1+X/Vm+tha7NudKt3g+ThyfDYcNu3Gw8BhYtpQ7893mzvhVRr54SkuLe9cPEitcDss5hzZY82Drexq2DNtD4KB2UIurXr4rkhJIfjRawvcWbNOfbeFmfLM8v3iwLyQUClYYi2xydoaTaHqovruJAzACsM0nG0RNRaNC+E9TaNMUzfz/w2xfn+sInrBU6asiM0mVRqIchG+1h7jsDVrsDX605Vm5rgtWn7iL43iaoXliKXQ9Kr5otTvfGg7g20FATweXAYdRd5Alvt8vYxd1l8rlVaYXWTWLh6y3bELjG0VoVDTlHOeDswr8lxeXGXkxSZx6tjLYmq3HqbjDubVLFhaW7UCbL18hNuxwU66G1akN0tDkAZ5Yf9//G3klcRL58uxkKSqhCOch65cBvs1tACrtZU1dXlxxVgMK7OH26FmaevQT7Hatg1jgPWSIxirkOXqGuHkb/bzs29buFH1a7IruqJrpp5EDUejRmz52LWSaqyEzIg8hvG+bYK8D69xO49dABlhm34CG9e2O8JY+3UwWa3TSQI2qN0bPnYu4sE6hmJiBPsQoUWw7D4CoXsfFGXfQbqA8D7af4Y3MIdIf14rxYBsWWGDa4Ci5uvIG6/QZC30AbT//YjBDdYehVRxNdWwfgtmvJD5Xy/F3graABTXazWQpuoNAbjf9t34R+t37AatdsFPqUo7k4Hj53I/j17fkBHnioogXNgNM4XWsmzl6yx45VZmiclwWRWAkdu6oj3MsD/CaOGU7cZH0qLrbqBo0cEVqPno25c2fBRDUTCXmK5X9T81+majf0aBsMdw/2SF+MhLv3ESm9nxYnwdczlB8wc/3c8bBBd3SvXRL1T4XtIMNueHlE/tgxfjBMt97D4wPWMLI9gKdyn16IELxvCkZaTMHibU5I6qCHztUV0XTUbOg722CwuRVsJo7Dyivlr1xVbN4X/bJ3w9JiAiYsckBMuU9JKoIS2pmMQtU/LTFyxDjYRdfifLsce+RoDG80CrP1nWEz2BxWNhMxbuWVkjW3is3Rt182dltaYMKERXB41gijZuvD2WYwzK1sMHHcSrxFYoVQameCUcp2sDQxgc2RGFRnc1vl7ujX8iYWjTKH+S+eEFXhAhWbvkfeVdB1kjnyD1+G+gQTNP7g+bC8+laG3rTvUGvPUAweNQ6jLdZIzi3Le/hF9fboXNMLv08zx4jF18C+M698qqC79Qyo2Jnh2zHm+HZZHCbMNwZrxmV98plcv5BXFiUpC1QisbGxJQspih7S/3rUJJ2V/pQfvJ761FSnWbfyidJu0bK+6tSx/1Aa3KMLGax0pTTu9NxTY0ljyuXSa7BerSEuInHiJZqp1YUmHo+kInE8HbbuTf2MjGmEkQ5pDvyZXLPYGuIfqGP9dtRv6FDq00mTRmzxoVwSUcjOb0hNox8ZDtCnr410qev0a3zy6W6raFDb9qQ3dDgZfTWBdoeKiPIf004TDVLTNqSRpiPom/HbiMuexPGHybp3PzIyHkFGOpo08GdX4rIsF7lp556isRpT6HKZZU75j3eSiYYaaRuOJNMR39D4bX5caPl2k/gFXZzRiVpqGtDw4Wb0ixtXruXYLfAaf39/mjRpkuSILc1l61/P8z4nCt9EA3suJW9WZvk36TuNkXQwLYEcbTX4ch42uA8NNDMizS4LyCO9ZA3xee5Cccp5stHoQT+5Z1PGnbVk1L4t6Roakm6HjmS82ZtystxpRX910ug/jIb17UJa4w/z69pfIS4nD9kFXZI1yyw/tlbOe2lPGrgpnLgMaa1Re2qra0iGuh2oo/Fm8mZL7LlzAlbrUE399cTcLu2YOdVvOYWu5LK40hQFrCadmvq0vuREMq/fkqbwJ4op7fYKMmivQfpDviLNDno091wsF5pLR83a0ORLJU78ugzFlHLehjR6/ETuCfI0szXEjUm9a2/SMxhI3TT60k/XkqkowZFsNVqSpsEwGtxnIJkZaVKXBR5UkOVJaw01qGNfIxrYXZOMfvWgDO7fnbVG1L6tLhka6lKHjsa0uUTwP4pPs4aYcw+P1WTQoRP1G6xPuvo9SH2oZA3xaDXqptebeg3i6lXjK1p2I5mrvX82CxYsIBcXF8nR+1BA6XHhFBaTSuzXL68Q51JyRAiFRiZS9rv6UVEGxYWFUUxqqRTeoCJrRRninBRKyiiTaYXt4VpocgSFhEZSYqkTRZQRF1ZKpzg3mSJCQikyMfutv4ep0BpiRlEGJSRkUEH8DvrGaCvF8L+9yaD4iHjKku3zOCqad77fahqg9z/yfucC14qsIWaUU9+sDsPDKb6soWWpaD3kv6CYsnmUQ0X9Qi6iHEqMiqYXZTN6wyfl+UU5ZSHwQciuIWa/5JcEv41cSgoPpoiUdznvW2COGRlMQREpryqTTYi7DdtKgWERlJQj28WLKIvrDKLe8BoOznGjgkMoJk22xRVRekwwBQaGUPQLNtSXwBpxZHAQZ3cF3Udu2uVQlE4xwYEUGMI590tpjm+xm3PmtKggehKWQNmv2rB8uwVKYD+6uXfvnuSoouTTi8hQinrHYPeKgjSKDgmj+FID2kuuEw2ikDj28xB5vGcepeD8IDqEwuIz3j6o/V04H44MiaD3b6plNbOJWBuyOpfOhYdTomz7ZHmERtGb8rlyiXqzXArSoikkLJ7Kzhn+KXyqCTFPbhKFhydSqe6Qh6ufyKg3B9J/KA8fPqTk5GTJ0ZeJKGgzWcxxkhz9gxAF0WaLOeRUwT5AnGRHY0bvo7gPGYDEL+jSkm+ody8T+u1etiTwbYgoaLMFzamokV8Q/1i/EJCL7IRY4cWLF/R31nJVBoWeP0J3nQZuXZmBxpIwAQEp7H3lV69exXfffScJEfh05OGkZRdcGx8Ce9P/9ndzwqubK5+jR4+iZ8+e0NTUlIQI/NMpzMuDYs2awpIogX8UpV7dXFT0+X6doayzBE5/jsXnmY4LfOnk5+cjLi5OciTwaakJ4z9uY5ORsFBNoPJJTEzk9xkX+PegLEyGBf7hKNavX1/y8TNQvTHatKiHD/8tqsC/kZYtW8LKykpyJPCpqdNcHc3YrokCApWMubk5NDQ0JEcCAgICnx/JPsQCAl8ebMnErl27JEcCAgL/Fuzt7REYGCg5EhAQEPj8KNWoUWNVvXr18PTpU1y+fBktWrTAhQsX+MmIgoICDh06hFq1aiEgIAA3b95Es2bN4OjoiOTkZLDlFkeOHAG7/sGDB3B3d0fjxo3h4ODAv6c+JyeH34C9UaNG8PT0xL179/i9J9n6MfZ1WVpaGk6ePMmn6erqCj8/P7An1gcPHoRIJEJCQgKfVqtWrfDXX3/hyZMn/FY9dnZ2/N6u7PWf586d458kXrlyhX8/frVq1fjr2V9ZTefPn2c7arxTU2FhId9Zy2pq0qQJb6dU07Fjx+RqysvLA7vBKKtJRUWFz/Ntmv7880+5mtiri+Vpat68OV9PUk2HDx+uVE3sM7umrKbbt2/L1XTq1Kl3amLxzPaymkJDQ3mtUk3shRxME6tnti0g+8w0NW3aFGfOnCmlidnh6+v7StOJEyfkarp//z5fT7Ka2LkV0XT9+nX+JQIV0XTgwIFSmqS+J9VUtp7KamJ+JKuJtafy6qmsphcvXryhqbz2JKuJlbOSklIpTU5OToiIiICysnKpemJrumU1MSrie0wTW38rqykjIwPZ2dml+gimqUGDBq/aE9PEzmW+IauJlbNYLH6liW3jxTQFBweX0sTW6DJbWXti9STVxOpZVpOs70k11a5dG48fP4azszN69+7Nt53p06fz8R8CK4+uXbvy2y22adMG/v7+rzQVFxcjPj6e9z1ZTcwWFi/VxGxlmmTriWli+z2HhIS8qidWn2zZEUtXqonld+vWLd73Tp8+jZSUFH55kmw9eXh48PXE/InVU1ZWFl9PLOzOnTvw9vbm64ldw66VrSemi+XB0mK+I6updevWuHbtGry8vNCtWzfePnmaIiMj+bZfVhNLn9WnVBMbfz5EE2tPsppYe2JpVlQTy0uqSVpPsr7HNLH2dOnSpTc0sfMroon1a6w9yWpi/iJPE3sdtmw9sXPKamLnVkQTs62imtj1sprK+t67NLH2XlYT08H0vEvT8+fP36insu2JaWLtqWw9sfWjTENZTSxcVhO7jqX/tvYk1cTskdXE/IrZzfo4VvZSTeyzrCbZ9iTVxMqRpf0uTax9sD6Yxctqkm1P5Wk6e/Ysn548TdL2xOx5+fLlG5qk9cTaUkU0sb5aVhPzPVlNrPyYJuZDUk3SemL9nDxNsu2JaWLjD6snqSbmJ2xMkNXE+iLWFpgm9vIvY2Njvu9XZJnXrFmTv4CdyJybORsTzQYMVmBsP1g2mWJCWTz7y46ZEbLxrMJZxyyNZ+ky41g6LD1pPMunbt26peJZwbDCY+mzeFYp7D9Ln13D4th/di67RhrPzpXGS21m8WU1sbxlNbF4eZqYlrKaZOPZdSxeniaWnzxN0nhZTSxeVhMLk6eJpcHiy2pi8bKapPGymli8PE3laWbpSDWxeHmaWLw8TdJ4qSYWX1YTS1OeJuYLspqk8axTZvsQS22WxsvazHxQVhPrlORpYj5dVpNsvKwmFi+riV0rTxOLL6uJxctqYvGymmQ1y2pi8cxmFi+ricWX1cTiZTWxeGYz6zzeplk2XlYTy5PFyWpi8cwmaRtn8cxmlpesJmm8rCbZeFmb2bGsJna+rGYWz/KVxkttZvEsTFYTC5PVxOJZHDtHVhM7R3q9rCZpvFRT2XiWJrONxX8s2A0SqwP2X1pPUt+SapLGS31HGs/OZfGsnJlmWd9immV9T9Z3WLxse2F/ZePZX3bMrpONZ9ex9KW+xeJZ/lLfko2X2iyNl9XE0mRxbLkEK2sWJk8Ti5OnSRovtVkaL6uprGapprKa2XUsXlYTi5enicXL08TipZqk8WU1SW0qq4n5VlnN8jSV1czSZz4qT5O0PUhtlrYXWU2y8bKaWLysJnatPE3SeFlNLF5Wk2y8rCYWL08Tiy+ribVLWU0sXp6mspqZzbLxUptZnmU1sWvlaZL2AVKby/Z70nqQp4kdy2pi50vjZTVJ46WapPGymlhYeZplNbFz2GcWJqtJGi+ricXLamK2vUszO2bhLF5WE4tn57F4WU0sXlaTbLysJqnNUk1S35HVJLWZnSOricWzvFiYNJ7lxeJlNbF4Vh9lNUs1yaLA9iFmk2IBgS8N9nRuy5Yt/F2rgMDnQthlovL58ccf+acyBgYGkhABAQGBTw97yvxqlwk2+xcQ+BJhXyfPmzdPciQgIPBvYfLkyfySiU9PMZJdD+NsUHmv1f9yKU52xeGzQZIjAQGBykaxcre+KUTK02Ak5kkO/zEUIyPKHw98ffEgJKlS3nNfnBaJwJhsyZHA34Gtm2Vrkb4sRPA/vhGn3zag5kUi4Gmm5ODjI/I/jo2ngzjL/kvkITLgKd6/lP/udf8UxIi+vBUH7716T/wbiB4dw6azodyZnw/2pJ1tvVZCDnyOrcMvv6zDIc8KvD7/LeT4nsQJ77fVbjFS3I/DKbiSWkuOD46t+wW/rDsEz9QPsDzHFydPeL/VL4tT3HHcKVhy9DkR4+nlw7gZ+zk9SECg8lFkP0ypNIoTcPw7a+x5+k8bmkUIdfoDG1ZOwwhrO0RUQpHkX1kI07WekiOBvwP70eaXuAuKopISFNm7/+UiQsBvEzDn/PNPNuEoDLqIPZef/qcmxKKA3zBhznk8f89C/rvX/XMQI87lABz9yn/QURh4DvuuR35Wf2E3uwUF0kcPVdBQTRPqKU446P4cJAl9f4qRdc8eh+9mftCk+r2o0hBqmupIcToI9+cfYHnWPdgfvovMT2b4h1CEkAt/4mrMv7YRCfxHUWQLjxnivAxk5su2xgJkZ+SWdJrFOYj1vwfv4GTk83EchTnIzBNDnBGJBw/CkS6nbRTmpCE953W3m5cQiPt3vREQnY5CFiDKRWZOIYrzkxDkF4IUPpAhRk78E3jf80Vo8qscS8hPRrD3ffjHZMpMOPKQEHAfPiEpJem+ggsPvI+73gGITi8dUxpl6M07CIctY9C+7M7i8rS/1T5Oi7cXHsXnvrVjF+WmI43TXoIY+RlpyK6MR9P/Ithi+nHjxkmOOH96cAgbD53C9rmWMLX8HnbeT3D51ykwN7PCz+clA3x+BJw2zsJYM3NYL7XHI26ESXHeirXnIiX+wk1Yj66CnQ9Xb4VRuLJhJkaPNMOkJfbw4x/P5CLw5P8weZQJzCcvw9FHZZ/ZFKMwLxsvucx4e444Ytf3Y2E+dibWOUUhP/4ajjnHIPLKBuz34vJ4wx5JMjxihJ5eg10eLJDZ+TsW2/ny31CIoy5gw15P5Mi9vhA+B9Zj5/ZFmDD2RzgmSz1NhBinDVi+xxNpxfJ0FOLBofU4eGIbvrMww/gf9uN+GmvzXN5392OxjTmMjUfBdqUjQni3LkCE0zrMtDSDxdTVOBtS8tVPYdQVbJg5GiPNJmGJvV+Zp1oFCDy+AqvPhPPlXRBwFCs2XkF8qYFefrr5EU7YOGsszMytsdT+UUm6hQ9waOMROO76HmPNx2LmOidE5cfj2jFnxERyduz34tplIaK48p45eiTMJi2BPavIgkAcX7EaZ8J5K7g6X4GNTr5lrvuSYHWzEYdObcdcS1NYfm8H7yeX8esUc5hZ/YzzkZJ+tBx/yvY/iiWTzGE+dQNcU0oKu9DHDqtPSr45EEfi3NqdcMvgo14hty5zA3Hyf5MxysQck5cdLeOzlcPIkSPRvn17yVF1tO1vgqFdG5Xak7449R72LRgHE9OJWHzUH+yZt+ixPX60NscIk/FYeKQkjD1hDjy5AlNHm2Ha4eASvR9EMdJu74bdVWdsmzMWlrPt8IjdX+QFwWGZFUy5slrmEMSNLhzV26K/yVB0bSRjeXEq7u1bgHEmppi4+Cj8eSNFeGz/I6zNR8Bk/EIcKQlETuBJrJg6GmbTDqNyHlpnw+/IIliZjoDpxLW4ybfvPAQ5LOPCuH5umQOCeMPl2FOchtu77XDVeRvmjLXEbLtHXG/IUZyBB0f+h6mW5hg77wgL4Um/+zumWVhg5o67XH8jCRQQ+CcTFxdHRGKK/cOI+qwOoCL+7c5cSPwO+rrXCvJLv0u/DO5COsMtaISOOnWedIKiRUS5p8ZRt2ETaER/QxrZvx1pTLnIXRRFWwb3op/9Cij9zi80RNuUdvrncKmJKHSfGXXVHkbjrMaSme1O8ucyKrjzI/XQHUrGXBpmQzpR2xH7KJxLu8DrFzI2MCbLsSbUS70LTb+Ywtv08uFWMtZoT/omlmT+zWTaG8adXBRCdpbapPPNaDLV1yCd2Zcoib2TXRRK+8y6kvawcWQ11oxsd/q/0lYeopD1NKDvL/SES5YnW7728uwrCNhNZl27kcGo0TRcqwmpTrvGh8sj13sN9etkScdiRJR7fwX11ZpKF3nDBaQEBATQjBkzJEdcmZ2wIJVmhvTzBS9y22JMLVR60BQ7D3p4bTHpqdnS5ZcZdG1mZ9KcuIdcfDzp+Lze1MH8CEV7/4909FbTY+YA+S40p9sw2h2bTe4LdUjbZj+5+t2ns8sGUZcxxykuaCN9xdXFSd8ndO+QFXXWXUGPSjlOLp0Y3Yaszr/k7anf3JBWXPShh5cWUu9WY8jhWRAdtepI3aYcJK/YF3LtiZOp5tSjFtTR9hKXagadHN2IqnddRF4FYorexrXHlZ50We71uXTUtDapjtpJt93ukd+h0dTGypGCHWxJu+cUcuScVBQiTwdnu4UKNdCbRyfvetGpBXrUfvQxSnzhSBM6DKCllx5S4MNLtKRvCzI7kkov3X6gbp3H0q5bvnTHbgJ11l5G99PdaaGONtnsdyW/+2dp2aAuNOZ4IteDvKYoaBsZdhhJf4Z405q+nWnSmdLxctNNuUYzO2vSxD0u5ON5nOb17kDmR+JInHuCLOo3J8MVF8mHs21h71Y0xuEZBR21oo7dptBBr1jKdF9IOto2tN/Vj+6fXUaDuoyh44kFFLTNkDqM/JNCuLbWt/MkOpOYUeq6d/UHUrS0tPh33evq6kpCPowhQ4bw6ampqUlCGCV108zwZ7rg5UZbjFuQSo8pZOfxkK4t1iM128vcOfL9Oy7tMk3tpE3T7T3J+/Ia+rpZDTLcnUS5R82o7dSrlM+SL/CgBZqGtJ1zvlfhufLqMo6CNn5FWlNPku+Te3TIqjPprnhU4bKqKEuWLCF3d3fJUQkpe43pq3XB3GjBeEGnJ+rQqH2PKD7iGv3UR5cWexWQKNaf7ocmUkrUBZqubUIHXnD+dHs+9RuxmTxjEsh7xQAy3BpTyt9KU0SPVxuS9ZmXkmN5iClqyyBqoj2dDvuFkePk7jTuVCp5Lh5IJlu9KTbKhZYPGkLrXw0UKbTX+CtaFyyx/PRE0hm1jx7FR9C1n/qQ7mIv4iynWP/7FJqYQlEXppO2yQF68fI2ze83gjZ7xlCC9woaYLiVYt4yBBQ9Xk2G1mckR/IRx3Hjds95dCMhjZKjY+lFAdfleS6mgSZbyTs2ilyWD6Ih659w1sixh43fg5qQ9vTD5BfmSJO7j6NTOWJK4fRofbOebkcmUrR/EJfLS7po04raW+4h7whnmq/D9acJbzFcQOALRklJie+PbWxsSJFtVwHuvrxxuzYoiIvFS68NsFrlgqy4eGS0bosap9fiZNvfcOuyIy55noJpwBYcDGS3smIkJzbDD5f+wvkzy6AVfI+fYAOEbJ91sJwfgLHHTmJ2d5Z+EZ54PEBD01XYeegkzh2Yje78k1hCQa465lz4C+euHoBZ9HGcjRJDWf9/cLrpiL1bd+DAd83hcs2fu0tNgcOaXVBe7gbPC6dw9tpBzGivhHznLdiaa4MDezfjj2Mb0NNlJ84kcrerRU/g8aAhTFftxKGT53Bgdvf3fK1kMRJPyNcu1z7uXvrq5u1QWnwTN8+cxukf+0G5JCG51Oy1FAfn52HdtLmY9f0tDNq1BSObCu/sk4VtrTJo0CDJUQnV+tjgJxN99BveH+1aDYGtVX9oGxhCu+oLpGR54sxfqpi1aToMdPti/LrF0PM5g1tq42CmdBmOXN3luZ6CW3tLmDfyhePFLLRukQ5vZzdE1FKF8q3zcFOoh9qpXnA4fgVhbZbgtttKaL3Fcar3s8VPI3WhPdQCBo2S8aywLbqp10X9DgPQq8l9ufb8JfOUTsVoKDo+csXDbG94JA/E8Lrc39gU3HLNxiCjVJwv73qFWuhjaYNBX+lBoxrh5b1VMJ75BKOO7IVFGyUo1ChHh0J9DF+8FmP76MNyzUL08rmI29UscPjhKUxqlIJgvxC8EIuRnpqKB07OaGC7FjMG66Df5O1wOjwVag8dcTGrNVqke8PZLQK1VJVx67wrXvJqSqjSeQ52zS/C+q9G4njn9fjNrJnMk79C+MlL9z6nS3UWNk03gG7f8Vi3WA8+Z/4CX1TV+8H2p5HQ1R4KC4NGSH5WiA7d1FG3fgcM6NUEDx0vIqt1C6R7O8MtohZUlW/hvGsROs/ZhflF6/HVyOPovP43mDWrJ3Od6hf4mtlq6GPzE0z0+2F4/3ZoNcQWVv21YWCojaovUoAC+f59+fZluKnPwJoJfdFr+GIst1SDkiTFt1HgLa8u3aBQrzZSvRxw/EoY2iy5DbeVWpVeVn379uX3Iy2XAn+4h3SH1SQttGhrhCkja8LP5zlepvri2OLxsLDeCNfELGTlFuKpqzeajpqOvq2bomXjWih3NdN7oQQt6+Ww6tEexqvssaxvItzcQxB8eiEmWq/EdW6sDI8okpwrSwH8ufO6W02CVou2MJoyEjX9fPC8+CVSfY9h8XgLWG90RSLbtzXEFd5NR2F639Zo2rIxalWC4YpNjTCumy+WWs3DtpvPIFISI9rNHSHBp7FwojVWXo9DbHgENyK/aU8ue8qrpAXr5Vbo0d4Yq+yXYUC1QvjcCIDOrPkYpN4Mbbp3LslIqTVGzLFFr7Y60GyVh8ysv79cREDgS0GRbbbNqNq+LeokReP22Ru4f+UEboQnoWpbNSSHPUOL7lqow06q1gWabdMRH8++hlSEio4B9Osrco3QFqc917EzuDluFryPHEOawVyM7lK9JAzVMXz1dgx8Mh99OvfCqJVX8Uyy3qGKeg/0bMgNl1VUodokC2mpRUi9uRyDuvTA0DHWmGf/BAVibgIuikJIdCv0HdBUZnAtRnpEBOID7LFgsg1spu1AeCt11CnkGmf14Vi9fSCezO+Dzr1GYeXVZ5KvzCuKCNFytZdjnzgZ4TG10Klzg1Jf+5VPFWjYLMW3sXb4q/0P+Kkfn4uADGw7FLZn42sUUL12LVRlH5U4v1NWRlW+sBWgwAYTcQ5yCupApa6kBqrUQ53q+cgr6oBxFnVw9ZQnbjh6oesYEzRVyERmTnXUqVeD36uwep1esF09EVpq03Ds8ir0Iz8cmjMYWoNXw7PcH4kqQLlGjZLJgiJnjyKBZMeF8uyRWZqk2PhrGDb2gbOTC4LbWmJW32x4/eWEW0n98K3my7dcXx21arye9hQpaMFyRB5O7Xfjv/ZWbF2ODoW63I2G5Fatah3UUXqJ7ORrWDRoAMb9ehxukcVo1Ii122JkZuaiVj2VksmVYgO0685NJrMzkVO9DurV4MqMK7c6vWyxemK3MhMwJTTX7IjqGblowPUh9Uo1CJKbbu28HBTUUcFrqXVQPT8PTKqCcg3UKClk/qUo3E09f04JLL0crv7qoQarR862XrarMbEbl7pSc2h2rI6M3AZoq/YPeEW8QnXUrsV7N+feilBWrlpiM+fc/FypPH9Kz0ZBzTqozQcron4DqVbuqldFVYzi127HQ5ny6lILatOO4fKqfiC/Q5gzWAuDV3uWLA+oRNieoWw/0HJRqo/6VZOR8JwZXYC4uFw0aU44u2YL8mwdcfvWQdhoMA/i+oQaVZGZxn6Ml4knQe/bz5ePpNRRvbUWurZge42rwXIHd9PFTTB9w57CboR0fJNFCfXrV0VywnPOHs7yuDjkNmmOellnsWZLHmwdb+PWQRsw0xWq10DVzDSw3+JlPgl6NSZ+EFU6wuawJ+4cmYFGl6Ziwdlc1FVRgZrlDu6mxw3uvmF4ajeCa5tv2lMCp5mXXR2ttbqieRVFrg9WQlLch/3YUUDgn4Aie7sNQ0m1PVRfXMWBmAFYZ5KMoyei0KB9J6i1aYpn/n7IYifl+sInrBU6arzleYFCPQzZaA9z3xmw2h34ap2eclsTrD51F8H3NkH1wlLselB6TW9xujcexLWBhpoILgcOo+4iT3i7Xcause1LJhxVWqF1k1j4ess2TK6xtlZFw442OODswr+lxuXGXkxSZ61bGW1NVuPU3WDc26SKC0t3oUyW76AKWsrVXo59SipopJKG6OhcbuCKx1Xnx9xd+NvIgde6Rbjd/1eMi1yLpVdShA6nDOxX6OyNMhWmmia6tg7Abdd0/jDP3wXeChrQbFiVGxBGo9mNZdjko4ux39bnJoOa6KaRA1Hr0Zg9dy5mmagiMyEPIr9tmGOvAOvfT+DWQwdYZtyCx3uOVOyFC0RcbZZrj8zUTLElhg2ugosbb6Buv4HQN9DG0z82I0R3GHrVqcD1PAqoqzca/9u+Cf1u/YDVrtko9ClHR3E8fO5GgDWF/AAPPFTRgmbAaZyuNRNnL9ljxyozNM7LgkishI5d1RHu5YE0lkWGEzdZn4qLrbpBI0eE1qNnY+7cWTBRzURCnmJJG5CScRPL57nAwG4Dmh+ejd/8ZBfHV0UnOek6teqK1gG3USI1D/4u3lDQ0MQbUqWwSSI3MS7m0tPspoEcUWuMnj0Xc2eZQDUzAXmKVTgzlmOeiwHsNjTH4dm/gTfj1XX/QMrxp2762mgb7A4P1pWLE3D3vmQ9fTVlFKam8Otsi5MCEZRc2o+rasqrSxH8ts2BvYI1fj9xCw8dLJFxy6NyJmsySN+wxyPyx47xg2G69R4eH7CGke0BPFXoDusZKrAz+xZjzL/FsrgJmG/cBB0614TX79NgPmIxrvG/t1VCO5NRqPqnJUaOGAe76FqlfbGyUGyKUbP14WwzGOZWNpg4biWucOUt8t+B8YNNsfXeYxywNoLtgUhoWs+Aip0Zvh1jjm+XxWHCfGPUrtkBnWt64fdp5hix+BqY6UrtTDCq6p+wHDkC4+yiUasSDBcF78OUkRaYsngbnJI6QI8rr6ajZkPf2QaDza1gM3EcVjLD5dgjH2XoTfsOtfYMxeBR4zDaYo0kXEDgX8jLl5K1VEUP6X89apLOSn/KD15PfWqq06xb+URpt2hZX3Xq2H8oDe7RhQxWulIad3ruqbGkMeUylVqJ9WoNcRGJEy/RTK0uNPF4JBWJ4+mwdW/qZ2RMI4x0SHPgz+SaxdYQ/0Ad67ejfkOHUp9OmjRiiw/lkohCdn5Dahr9yHCAPn1tpEtdp5esxU13W0WD2rYnvaHDyeirCbQ7VESU/5h2mmiQmrYhjTQdQd+M30Zc9iSOP0zWvfuRkfEIMtLRpIE/uxKXpXxE4bTHsgdpajSn2rWakYamLs2/zCmTq708+8SUfGEadW7Tgwb17UNmY4dQzxnlrSEWU9KFKaTZ80e+HPIfraMBHUbQvtDKXqn3zyYrK4v8/f0lR2wNMVsre573OVH4JhrYcyl5syLLv0nfaYykgxliSru9ggzaa5D+kK9Is4MezT0XW7KeUJxMR8waktrMG5yPlZBxZy0ZtW9LuoaGpNuhIxlv9qacLHda0V+dNPoPo2F9u5DW+MP8uvbXyK4hfm0PFXnT0p4DaVN4ISUdMaNW7QfST+cSyrdHhqKA1aRTU5/WM39OO0bm9VvSlCvMyvL05NJRszY0+VJJ63tth5hSztuQRo+fyD1Bng62TrUxqXftTXoGA6mbRl/66VoyFSU4kq1GS9I0GEaD+wwkMyNN6rLAgwqyPGmtoQZ17GtEA7trktGvHpTB/buz1ojat9UlQ0Nd6tDRmDZ7s98JSBC/oMvTufwWuHBniinW3oLa660k7xJTS5CXrjiNbq8woPYa+jTkK03qoDeXzsVyJZV7gka3sSKuuDmKyHtpTxq4KZzESUfIrFV7GvjTOUpKu0NrjdpTW11DMtTtQB2NN9O9mMs0vYsWLXDJ4GyKJXsLrt9Y6V36ugoue/xka4glfsV+cxG+aSD1XOrNr93Nv/kdaYw8yH0qzx8yyGO1AXXo1I8G6+uSfg91Gro7ieuDz9LUzqrUzcCA+vQbRgM6lVlDXE5dZrmvoP7qGtR/2DDqy5Xh+MPhnEWVS3BwML148UJyVD6inESKin5Rsg6aJ59exMRQ6usAHnFOCiVlVKT/rMga4vIR5yZTREgoRSZmv31dtSiHEqOi6YWsnfkvKCYmVUYLhziHUpIy3p6WhIqsIWYUpMdReFiZMhLnUnJECIVGJlK2NDN59pSHKIPiwsMpPquyPUFA4PMiu4aYvUtcEvw2cikpPJgiUv5eJ8LDGmRkMAVFpLxqgGxC3G3YVgoMi6CkHNnRSURZcWEUVao3kcA14qjgEIpJK5AEMIooPSaYAgNDKPoFmxaUwDqvyOAgzu4KNflykKe9fPteJkdRXIbQaVQGkZGRtHnzZsnRe8D5SGRIBFXIXQvSKDokjOJLDaYvucEjiELiMv7mRKCAXnC+HpUq8dH3sUcef/v6sjokk65z6Vx4OCXKtjmWR2jUGxMNLoJeRIVyWkpHFKRFU0hYPFVoDiIX+enmv4ikEK6PqFDVcecGR6Vypc0fUVp0CIXFv3tyUfq6d/NpJsTvQTn+kJsUTuGJOa/6Px5xNiVERJPUFeUhty5fchO/oJCP1pft27ev1M3up0NEQZstaI7T322Mnw9R0GaymOMkORIQEKgMZCfECsnJycTe7/w5KPT8EbrrNHDrygw0loQJCEgJDw/HyZMn8fPPP0tCBD6MPJy07IJr40Ngbypv/aOAPIRXN1c+27dvR//+/dGzZ09JiICAgMCnp9Srm0v/aOnToqyzBE5/jkVDybGAgCzNmjXD6NGjJUcCH05NGP9xG5uMhMmwwOfl22+/Rdu2bSVHAgICAp8fxefPn0s+fgaqN0abFv+AX38LfBbY07PNmzdLjgQqgzrN1dGM7YQoIPAZYU/b/f3ZdpUCAgICXwaKbPsbAYEvkcaNG2PYsGGSIwEBgX8LBgYGUFVVlRwJCAgIfH6UEhMTV7FlE35+fjh8+DDU1dX5u/fQ0FB++yi2zq1u3brw8vLit8Bq3bo1du7cidjYWP5d9Bs2bOBfoHD79m1cvHiR32x927ZtYE+e2ZZu7Akf++r76tWr+Ouvv/jPmzZtQnZ2NpKSkrB161Y+zXPnzsHNzQ1sPfMvv/yCoqIiREdH448//uBf8XnixAl4e3ujQYMGWL16Nb8faXBwMPbu3Yt27drxtj9+/Bg1atTAr7/+yu+rKatp3759ePr06Ts15efnY+PGjaU0tWzZkrdTqum3337jXytcUU1sYsdsktXUoUOHUppWrVoFtid0RTWpqanx9STVtH79en5vz8rSxD6zayqqia0JlK2n+vXrv6GJxR86dOidmsLCwnjnZGuH8/LykJqaymtiA+iuXbtKaWrUqBG/3Z5U05YtW+RqunHjBl9PsprYuW3atHlDk0gk4p9OSzUdP35cribmU6yeZDUx32V/y/qeVJO0nth6JVlNz549Yzu+8H7E6kmqibWnsvXEwq5cufJKE2uDTBPbpk5Wk7u7O6+J2cQ0RUZGvvI9WU2sPTFNQUFBrzQdPHiQ18Tqh11fs2ZNPHz4EEeOHOHrSaqJiF61J6kmqe9JNUnr6datW3I1sT6C1ZNUU9OmTV/VE9PEzmWazp49+7c1sa/npfXENLF6ZvUk1cTSl/qeVBPrF5mmO3fuoHfv3njw4AGmT5/O1+OHYG9vj65du/LlwcrVw8OD17RmzRqIxeJSmo4dOwZfX1/eFhbP1rs9efKEt1WqKSAgANWqVcPatWt5TcxOlgerJ9bu2Fp8qSb2qn6mx9HRkfe9HTt2ID4+nm9nrMyZHcyuS5cu8e3p999/59tfWloa/5nV3eXLl+Hs7PyqnnJzc/k0WL/PyvHMmTO8JlbnrJ5kNWloaODo0aP8OczP2DVsP+KymgIDA6GsrPyGJpY+q0+pJtaeWNnIamLtVp4mttUbs19WE/M9plOqSdqeympiacvTxPJi9cQ0sXpi7YD5nqwmaXsqq4mdL6uJbUNXXFz8hqZWrVq9UU9snLx58+Ybmtj/d2li7Yn5RllNLG9mw9/RxNoT82WpJqnvVVQT6/dYPVWWJml7ktXE+nJpe3pfTawsymoq257K08TsZXazPo71z1JN8toT08SulWpi4wdLm+Uhq4n5P8tLqom1D6ZJXh/BNLFjqSb2MjZZTWz9LPNl5tOsnqSaWBuVbU+srJkm5ntSTdJ6Ym1JVhOrQ1aXUk1sHGBpsPYkrSeWB/M9ZjNry1JNUt+TapLWE6uXP//885Um1rdL25NsPbH2xOpJqonl/zZNLC1jY2N+vFI4efIkDRgwAIWFhUhOTkbnzp35hFiDZcaGhITwjsIuZKI7duzIG84GdZYJm5CxTo4NbFlZWbwYNplmk7zatWvz53bq1AkvXrzgC4WJYZMJVqisE2cTjy5duvATFDa5YoXFKo85P5v0xsTE8IMHM5bBxLCCYaKZYzBRmpqa/KSMOQJzOlZQzJHepok5Uk5OTqVqYpXPKqgyNTFHYI3/72higztzqLKa2ESDnSvVxBoIa+QV0cQmKGwiUpma2I1VSkrKG5pYo2ETKDa5+rdo+jfW09/VxCb+rCOTamITZHajUxFNzGY2AEk1devWjb9RYjeHLFyqiXWICQkJFdLE7GD2lNVkYWHxUX5UxyYh165d421ktko1MQ1MS0U0sbJhZSTVxMqOlSErS1amUk2srFmZSzWlp6fzdcLqiU1UWF2xzyyMxbFzKlJPLE+Wt7SemE3MtndpWrhwIb777ju+rP8tmr7EemL+zfz872hi7Yq1r7KaWDtk7fHvaGLtn/UDFdHE2iDzD6km1kZZWy2ribVp1rb/jibWl7A+pawm1vewPkjQ9Gk1sXGJjU9/RxMbD9m4WBFNbExiYxPTxCbwbALNHn4ocIkQe2IiIPClwRoca/SsAQgIfC6EXSYqHzawskGUPc0XEBAQ+FyU2mWCzZoFBL5E2JNw9tWLgIDAvwv2lSt7CvRRKU6G6+GzCOJf2/elUoxk18M4+2UbKSDwn0CRrd14k2KkRQYihs2Vc+MRFJH6Xu+HL055AOd7z0peHyrwFoqR8sAZ954JJVUe8v3z8yB6dAybzoaiQPL33W1ChEfHNuFs6Ie991YcfRlbD96THH0kxNG4vPUg7rH3/JZDRezIiwzA00zJgcBH5VVZi/xxfOPpL3zi9yYfvW0Xp8D9uBOCv/AJcYr7cTi9w8gcn2NY98svWHfIE6ky7x0XPTmKFVtc8PwLfxd5usd2/O+AH/IlxwJvIhaJSo8pxWKIy9arvLDyKM5FckQ4YtPZi/qliCESyebCjrl838gnB4nhQQiJTkHehw1f/yjK2Yc4H1cWmmKtZwEKH23B2HlnkCaJeTdiRNnPh9n0vXj0iToicagDVu65C9lq/0cgjoL9fDNM3/tIuHmQA1sfZGpqKjn6/BQGnsO+65HIk/x9d50VIvDcPlyP/LDaFce54ICjn+ToIyGOg8sBR/jllt/bvtMOUQB+mzAH55//h3rQz0WpslaEkpIiFEpi/hF8/fXX/PrC96b4GfaPGgu7lC95BliMZ/tHYaxdCvepcqjSUA2a6ilwOuiO5zL3EaLsFDxLSH3HRLPy7SkX8VNsN7fG0VTJMU8xXj6PR1xqXgUeIvw3yfdaAr3GbWB9Nk8Skg2HiX2x2Et2ViMvTD7ZPtsxdsDXmLpqHRaNt8YfAWwMyofXEj00bmMNaTaZJ8aineZXMDLoDe1+U3EiUowc7y0YPdgM36/bgg3L1sIx4r9Ta4ps8bMs+UlB8PZ6hPhcmVanoADKTcQTvxCkvKMuCnMyUXeiPR46LYJ2FUkgN3XIzcxBoSgd4b4+CH0uO0HIQ0Lgfdz1DkC07J1MXgIC7vsgRCZDlnaeWIyMyAd4EJ7ON66C7FQk+1/FCecQfpF4ahqXT8npbyEfycHeuO8fg8xXdV2MnFh/3PMORrKkdxHlZiMvNwFBIUkoyE9EMPvLh2cip7CYLyu/kBSZ/Dhnin8C73u+CJUmUq72QuRk1sVE+4dwWqSNV0XFkKOdkZcQiPt3vREQnf7Pm/z/DdgPt9gvRKUUPjiEjYdOYftcS5hafg877ye4/OsUmJtZ4efzJRPU4pS72L/YBubGxhhluxKOIVw9FD7AoY1H4Ljre4w1H4uZ65wQxQqw0Ad2q09KnqyJEXluLXa6ZbBEcHf/YtiYG8N4lC1WOobIHXAy3Hdi5fEnkomxGKGnfsG+u+U9Ys1HhNNGzBprBnPrpbB/VPIYVa69jGx/HF0yCebmU7HBVd5AlovAk//D5FEmMJ+8DEcl6RVGXcGGmaMx0mwSltj7QfqwVn54NvyPLsEkc3NM3eAKuXOMcux40+48xF87BueYSFzZsB9e+cVIubsfi23MYWw8CrYrHSGVJlAO+RFw2jgLY83MYb3UHiVVWogHh9bj4Ilt+M7CDON/2I/7aaLSZZ1XiLzslyV+KC+N8vy/HB/6FLA1e2wnFinZfkewyMoUI0wnYu3NtBI/ywuCwzIrmHI+u8whiNPogZ0LVuA41486LJ+HOd//hutJHzjFEwXixJZz4Mf8PC/s/+Mm1w5EXLnswcmzWzBjFNc2tnogjWWT7Ycjizh7Rphi4tqbJWHc+BXksAxWpmaYtMwBQXnZ8Ni5ACuO+8LHYTnmzfkev11PktN+34/qbfvDZGhXNJLZtD/DbTuWHItC3WYqqCYJY23a78gizp4RMJ24FjfTMj/cnuJ0PDiyjOsPTTHuxyN4nMu5lO8h7Dh7DXu/HwPzqX/gLuc6Ir9D+GnuItjdD8TFn+fg+18vIDLuNrbOGY8551RgPa0PpFugF6c/wJFlXP9hOg4/HnnMeWI+7tntxIXrOzHH0hxTtt4B1xPLJf+eHXZeuI6dcyxhPmUr7vAnFiOds2nJJDOMNJ+IKSvOIOzeIex3sMdCmxU45rgOU2YfLOnrc4Nxdu0sjDMfg7l77yODK4ziVC/sW2gFM2MTjFvphMTyCogrC99DXJ9pNhLmE6dgxZkYruuPhdOOY7h17TfMsDDH9D2+nB6WzVmsnTUO5mPmYu/9jPLLXByNI78H4+spXZAYnVxy01AYhEeRatDuqsyfwiMvTB45Lvh57lXo7XOB09GDcLh2Et93q8JlcwS/B3+NKV0SEZ3Mcink5nTP0G/1X3Bxu4Od+t44eSsZf223Q92FF3H6oB0On/gD1hpKJen+F8jMzKQSCihgtxl17WZAo0YPJ60mqjTtWj4V3PmBunTpS4Z9hpDZkE7UdsQ+Ci/39fb5dHuFIen1aEMNev9CT6TnFdyhH7V1yHD4QBpmNpDaq4+lE4liIlEo7TPrStrDxpHVWDOy3elP7HX6RSF2ZMmd/81oU9LX0KHZl5K40Fw6Na4bDZswgvobjqT+7TRoysU4urxwAPXq1JRqNNKgXr17k/7QVeT+lvf208uHtNVYg9rrm5Cl+Tc0eW8YF5hNd38ZTF10hpPFCB1S7zyJTkTnksv3g6jfN0ak01GPvrXg/mro0YqHuXTnxx6kO9SYs8OMhnRqSyP2hfNJF3j9QsYGxmQ51oR6qXeh6RdTyteef5tWGOpRjzYNqPcvT0haVPK1iyh0H1c32sNonNVYMrPdSf6soP7lJCUl0cWLFyVHnAecsCCVZob08wUvcttiTC1UetAUOw96eG0x6anZ0uWXaeQ4oQMNWHqJHgY+pEtL+lILsyOUmnuCLOo3J8MVF8nn4SVa2LsVjXHI4BI8SmZtp9LVfJZ6AXks0CTD7XGU5jiBOgxYSpceBtLDS0uobwszOpLKTjejtlOvUprkb27gL6TfeR65suuL7tNSncG0JUK2ceTSUbO2NJXLIOPaTOqsOZH2uPiQ5/F51LuDOR2JeyHfXsqgy1M7kfZ0e/L0vkxrvm5GNQx3S9IsQRSykb7SmkonfZ/QvUNW1Fl3BT3KdKeFOtpks9+V/O6fpWWDutCY44kkzpUfnnZ5KnXSnk72nt50ec3X1KyGIe1O4nzzFeXZIb+co4OOklXHbjTloBfFpjjShA4DaOmlhxTIlfmSvi3IjBXiPxAtLS3+Xfe6urqSkA9jyJAhfHpqamqSEEYGXZvZmTQn7iEXH086Pq83dTA/QnHiXDphoUIN9ObRybtedGqBHrUffYzCAmXKOvMEjW5jRedflpNGtnz/l+tDn6hfuXHjBkVFRZUciONox9c9ad6NBEpLjqbYF6wDzyfPxQPJZKs3xUa50PJBQ2i9fzwFeZ2n+b0G0LLrXuR1L4DiX5YkIZeix7Ta0JrOvO2clxdpSt8FJWNG2p9kMnA9hYhe0kWbNtRxwn7yjXSm73WG0e6EIorb8TX1nHeDEtKSKTr2BddjcFZ6LqaBJlvJOzaKXJYPoiHr/Sk+yIvOz+9FA5ZdJy+vexTwdiPp8WpDsn6rkRJS9pLxV+soWNLFFCQF0b0by2nggNdh4rgd9HXPeXQjIY2So2PpRUERJb2XPWURUdhuE+pne5gexobTmSndyXh/AkVvGURNNCxoo2soXZ+nQxZHM6goOZg8D1pTjxG/kZuXF90LjKecaC+69TCYG+d1aZGXZGAWhdFuk35ke/ghxYafoSndjWl/fBCt79uUOltupNuBJ8iquy1dlGumiELW96WmnS1p4+1AOmHVnWy5E0WR+8lUbzz96RNPcU4zSWf8SQrYbEAtByyiFWPaU4dxq2iuoRU5ZieSo60BWdtxfhVzjqZ0MqVD6QV0b7EuV3d+lJyWQjExKZz3yUNEkftNSW/8n+QTH0dOM3Vo/Klszgmu0NQOrajPNDvyDtxDI7W+p9sxjmRrYE123rEUc24KdTI9ROmSVMqScX0WGcy8SslnJpHOvNt83uIkVtcycygOeWHyeGE/irRmOXOjjywZdH2WAc28mkxnJunQvNtcLuIE2jXMgDZxE7qX0ZdoTv+htCWogCIPj6bO3cxo5ZknlCW5+t+MkpIS3x/b2NjQ6zXEuVexebsSFt+8iTOnT+PHfq/vQoi6Y6HTDZy7egBm0cdxNurVY9UyVMOg1c7wdJgJzVKPPLk0CvLRccE5XD53ESu0H8L1URFQ9AQeDxrCdNVOHDp5Dgdmd0cV7k7RectW5NocwN7Nf+DYhp5w2XmmJBFxMhKb/YBLf53HmWVaCL4XjeG/ucP9d2OoDlkD1/v34XV9JQaUewNVjBSHNdilvBxunhdwirvDPTijPYoTT2Dtybb47dZlOF7yxCnTAGw5+ITPT8lgC377Jhd5etzfbwkx0dwtJhUgV30OLvx1DlcPmCH6+Fk+dWX9/8HppiP2bt2BA981h8u1kjcxydVebRBWO3vCYaamzNPh8rQX4YnHAzQ0XYWdh07i3IHZ6F6mfP+NMN9k65tkqdbHBj+Z6KPf8P5o12oIbK36Q9vAENpVXyCloD4sDj/EqUmNkBLsh5AXYojTU5HNbs2r94PtTyOhqz0UFgaNkPys1Hd6pahvcRgPT01Co5Rg+IW8gFicjlQ+kdIodbKEeeNrOHE7D4XejrjRZBQs1OTdTRfA88xfUJ21CdMNdNF3/Dos1vPBmb8U5Nv70geX3dQxY80E9O01HIuXW6Jssgo16qF2qhccjl9BWJsluO22Ep0eOuJiVmu0SPeGs1sEaqkq49Z5V2Rwtr0Z7ow7l92gPmMNJvTtheGLl8OybCYF5dkhv5zRrhvU69ZHhwG9oNrYAocfnsKkRikI9gvBC7EY6anZH/yk7F9LgSfnD6qYtWk6DHT7Yvy6xdDzOYO/2NMvhfpc/azF2D76sFyzEL18LsKnpUxZS/uCt6Uhx//l+ZDWJ+pXWLt+NfYoNoXRuG7wXWqFedtu4pmIczJxNNzcQxB8eiEmWq/E9bhYhMc0QOde3dGyTl2oaveGvl5XtPhYGyQptcS3M6yho66Drq3ykJmlgKZG49DNdyms5m3DzWciKEGMaDd3hASfxsKJ1lh5PQ6x4TFo0LkXuresg7qq2uitr4euH8lI5aadoddDFXVk1sooNjXCuG6+WGo1D9tuPoNIqQqafog9Ij8cPlEV0zdZQ1tVDT07N0JRfj6io9PR8/vfsHBgWzSvX4PrrBVRpYkG2hWmodFAc/TT14eeZgvUaqOPwd2B1IxW0GhXMjCL/A7jRNXp2GStDVW1nujcqAj5+bGIye6NBZsXYlDLIrys1wpt5PqiCLEx2ei9YDMWDmqJopf10KqNAsIcTiB/4ibY6jbjXCca9bp3RXxkHoy+n4C6aaqYtqQb8pQ10PH5aexxisYT+59gNXEHMsfOxDd1q0Ctb1/knfweC7Y4I71eY5kn7jKIw+BwIh8TN9lCtxlX99H10L1HDRRnxCBOaThW/j4FvTqbY/2huWh6YQ+cop/A/icrTNyRibEzv0FdSTKlEAdh3+anGDJVD0oNGoCexfDfRhb5+SGpY0+0lemS5YW9SSFC/cPQWlsHNSUhDHHQPmx+OgRT9ZTQoAHhWQyXS5Ef/MKicGrK1zD94To6rD2C7zsrQ93aAZ5HLVG4fxS+XunF2/Nf4dUuE+LkcMTU6oTODd58kXIV9R7o2ZALr6IK1SZZSEstb0L8FpTaoFv3BlDkXK1mTa4rEXOdYfXhWL19IJ7M78N1dKOw8uoziIvTERERjwD7BZhsY4NpO8LRSl3yNj1FFegY6KO+oiKa2p6G57p+JeEVRoSokGi06jsATWVkiqLD8KxFd2jx2VRDF822SI9P4AaimlDroIoqinXRToP7y3U8JV14Faj36ImSIlFFkyy2wroYqTeXY1CXHhg6xhrz7J+gQCyZzMnTLo9ytVfH8NXbMfDJfPThOrdRK6/i2d+ogn8abAkM2/z7NQqoXrsWqrKPSopQVFZGVb4eFdiqHva9F64tGoQB437FcbdIFDdqxJVcSZ0pKNdADb6D5a7j/Ec6GCtIapTB9uHl6/HaIgwaMA6/HndDZHEjNJImUhal9hg9qjVuOlzFrdMuULUwR8s3mw+HGDk5BaijUlfymvIqqFenOvJzEnBFnr2UjZyCmqhTu+RsxfoNUK9Muoqtp+HY5VXoR344NGcwtAavhmdKJnKq10G9GtX5l0/U6WWL1RO7QTFTXrgm8jibatapXWKTYn00KJtJeXa8pZylFKdew6JBAzDu1+NwiyxGo3ILUYBHnMOVdR2o1JXUQZV6qFM9H3n5nE8q1EXDhpK7/Kp1UEfpJXK5e+o3KC+NgmK5/i/Xh6RLGD8y7MUzr3eZqIKONofheecIZjS6hKkLziKH06yiogbLHc5w4yadvmFPYTeC8yEFzn6FQhSwtWuVAldWIi49zjXzo5/hbSswqnS0wWHPOzgyoxEuTV2AszkKqKuiAjXLHdyNphvcfcPw1G4E1xYUuDJWQGHlGVlxqnSEzWFP3DkyA40uTcWCs2wJ1wfYI4pFbHZjNK/NfS4M5W64gK8GAv5Pm+Nbk9ZQLAjAudu10K8vm34VIejJC6h1asHdLMiQ/xiBhZ3RXbLDnig2FtmNm6MkSe6GDV/hq6LHCFM3hgnXgRYG+CO+fU90kDchFsfhUZg6jE1aQrEwAP7x7dGzAxAfn4eWag2hmH4bm/c8RqsOSgiIbgujfuF4UsUQ3xRyabbSRpvkeGQP+gUubq5wdXeB48qhaMbmEyP/wN37RzExcwvm7XtasmyhLKJ4xOe1hBo38Kff3ow9j1uhU2slbl75GBkGZhjEhmrFJuiirYrM+GwM+sUFbq6ucHdxxMqhzSR9vyzFeH5uPU6kKuH+ahtM3uyB58+iESviJtt+IWjcQxuvn+3JC5OPkpIC0l+kvNZQ/Bzn1p9AqtJ9rLaZjM0ez/EsOhYFEX4I01yOa663cP3sLsz7qqnERkXU1xqLVb+YoujBY2T+h55iKLK3nzCUVBpBJS0a0blc0cdfhfNjOT1uhi/8EtTQUb2yHiMoo63Japy6G4x7m1RxYekuPBDVQ2vVhlwHeQDOXKfJOs4beydJzpePAncXTDlZeMsP5CVUQavWTRDr613ql7pVWrZB02f+8MtiR7nw9QlDq47t+bi3U4x07weIa6PBfc6Hy4HDqLvIE95ul7FrbHuZJ78VRLF87cptTbD61F0E39sE1QtLsevBv38VMfvRzaJFiyRHFaDwLk6froWZZy/BfscqmDXOQxbXuRSXOw+rBuXCVKQwxylOQmAQW79ViLunT6PWzLO4ZL8Dq8waIy+L/QpXXiKKaD1qNDq5r8bim9zk2ERep8eoBs2urRFw2xXp7DDPHy7eCtDo+BRn5NlbpRt6tA2Guwd7tCdGwt37KPu7vEKfbZhjrwDr30/g1kMHWGbcwj0VTWjkiNB69GzMnTsLJqqZSMhTRA3NbnLClaHVoy2C3T34tXrihLu4XzaTquXYUW45sxsTAnFtq/DuaZyuNRNnL9ljxyozNM7LgkhcLEyJy6OaJrq2DsBtV95DOBdxgbeCBjTZXXdxPHzuRvC/G8gP8MBDFS30qPO6rF9RXhpyHnIw5PmQxye6054xYwa/vzOPKBj7poyExZTF2OaUhA56nVFdsSlGzdaHs81gmFvZYOK4lbjC3FCxOfr2y8ZuSwtMmLAIDjEfaK9yd/RreROLRpnD/BdPiNhTD7mIELxvCkZaTMHibU5I6qCHztW5idSo2dB3tsFgcyvYTByHlSVGonnffsjebQmLCROwyCHm9eTkbyGC/47xGGy6FfceH4C1kS0OPC2QEybminIfpoy0wJTF2+CU1AF6ndmN6AfYo6yHYd3uYOGI0TD9egZ8jTfhe41APAp8ghPzJsBk8HcIHLUe09uxKXAVNFOvhTtrrTBxwgpckg6y3B9KvoYVFsZYeD6VS3IYut1ZiBGjTfH1DF8Yb/oe7fz9UdhVGw0UuUnioyeoo6XN32S/wcsH8C/sCm3Op4ufP8KTOlrQrl4VnXu3xv01ozFywkE8b64B1UaPEUDdocWN64mttdDw8RNU0+qJ2prfwCBmLb7h6mvS+DFY45wLkd82TBxhgYnTf8Lv9xvCsH/L0hN6KVU7o3fr+1gzeiQmHHyO5hqqaFFFjCi/UDTT6cn18lKUofmNAWLWfsP57iSMH7MGXDZvUuCL7TszMP3sFf7NkJfO/ozBL2MRI8qD36NgPN43BgYDB2LwjKPcyfLC5KEMnUnT0MB+FIzGWGGcxVRsP7ENOzOm4+wVLg8un7M/D8bL2BhkPApAkaYWXu8ELsKjrWO5spkI64nmGLYwGCMXjkZj+d3Hv5Pk5GTiESfThWmdqU2PQdS3jxmNHdKTZlzLp6KHq0mveTvqO/Qb6tu5K5lse1hmbYoMonDaY9mDNDWaU+1azUhDU5fmX37Jr6P9odu3tDeFnfSSzkzsTFO4cHH8YbLu3Y+MjEeQkY4mDfzZlV+zkv94J5loqJG24UgyHfENjd/mx4Xm0qmxGvx1ZRG/uEgzOrUkTYPhNNzsF3KTvwCohHQ3WjWoLbXXG0rDjb6iCbtDucA0urWsL6l37E9DB/egLgYryTUtn1zm6tCkcxnkvqAvTbnI/vbmjjPpzg8dqX67fjR0aB/qpDmCtviwEhFRyM5vSE2jHxkO0KevjXSp6/Rr5WoXhe8hyx6apNG8NtVqpkGauvOJSZOrXRxPh617Uz8jYxphpEOaA38m1//A4p6wsDD69ddfJUdsDfFoamN1nitF5mqbaGDPpeTN1jzm36TvNEbSwbQEcrTVoJaaBjRscB8aaGZEml0WkEe6dI0lS6WIvJf2pIGbwrlyTaSzUzuTajcDMujTj4YN6ESG22MpwdGWNFpqksGwwdRnoBkZaXahBR4Fb6wh5t1MnESHRqpQs4lnKYMdl+L1GmJx2m1aYdCeNPSH0FeaHUhv7jmKLSrH3gKiDI/VZNChE/UbrE+6+j1IfWjpNcSU5U4r+quTRv9hNKxvF9Iaf5jCRRl0Z60RtW+rS4aGutShozFt9s7hTi4nPMODVht0oE79BpO+rj71UB9aZg1xOXaIy7H7ZRIdMWtF7Qf+RGf8T5GtBmuTw2hwn4FkZqRJXRZ48Osu/2l8mjXEYkq7vYIM2muQ/pCvSLODHs09F8uFsjXEjUm9a2/SMxhI3TT60k/XkknM+Z20rM9FHpP4dzlp5Jbj/3J9iDfmo7N9+3Z68OCB5IijIJ3iwsMoJrV05y3OTaaIkFCKTMzmf19Sgogy4sIoLCa1nLWeEiqyhpjBtZv4iHjKeqf2AkqPC38zX3EuJUeEUGhkImXLrMEWZcRxfVgMlZFUhvdYQ1xBCtLjKFxOvhWzRx759CI6khKySsQVPV5NA013UkBIGMW/UWhFJXUTm1aqjF4mR1H0C27MlxxT/guKjkwgSZKVAOcTCbHEZfFuRFmUEMbVV1TSq/rKT42h8Ig4Sn9XB8X5SkLsC34MeheirAQK43w3KknWdz8RBWkUGxZO8Rnv2+O+5Oo6lEIikyin9FDwr0V2DTF7xZ4kmPGSkqPiKKOMj4tzuE4pOJhi0iu/WlmHFxkcRBEpZVppUTrFBAdSYEg05+QVqBnOAaKCnlBYQjbXNN4F18CjgikkJq3UAJ2bFE7BESnvcPYCbkLcjYZtDaSwiLJOI6IsrjOIevHePU5p5GlnnW5kMAVx9n1g6v8YIiMj6bfffpMcVRSubiO5TqjCvb6YshMiKDq1dMeR/yKS6zDfMeDy5NDlaXo0/QqbeL4LZlsI5+uyHvYWe3OTKDw88S0dE9deI4IoJC6jlM8XpEVTSFg8ZZRprvLDcykpPJwS39b7ybWjHLsLXnDtOYr44uQGvchQ7vM/3GE/zYRYAiuzkAh67SLchHh0G7I6l87VdZl6ki1rWd5I423I96GPzb59++jRo0eSo4+EKIg2W8whpwqVw+dCREGbLWjOl21kKbLPTKWRGwM+/SRP4BWi6KM0w+Ar+uqr1/8HDllA5168pR8XkIvshFh4dfN7UwjPH3WxTuMWrswoWW4i8HFg69vZu8/Z+9q/RIpTb2Lr0i04Ed4fB64vQ493Le4S+EfyeV/dnIeTll1wbXwI7E3/Pf10SEgImjRpggYNGkhCBAQEBD49pV7dzH64JPA+KENniRP+HNtQcizwsWCThd9//11y9OWhWE8Tg8csxfFzS4TJsMBHoiaM/7iNTUb/rocWf/75J/z9S3bhERAQEPgSUFRRUZF8FKgo1Ru3QYuyv8gXqHSaNWsGS0tLydEXSJXm0B4yAJ1UBF8Q+HjUaa6OZtI3GvxLGD58ONq1ayc5EhAQEPj8KIrFn+ZXxQIC7wvzTem2gAICAv8ecnNzUVQkb+84AQEBgc+DkrOz8yr2JM7T0xObN29Gx44d8euvv/JfZykoKGDOnDlgT5G587B79260b98eK1asQFhYGPLz8/H999+jadOmuHDhAg4fPgw1NTUsWbIECQkJSE1NxY8//ojWrVvjxIkTOH36NFq1aoUFCxYgPT0dz549w+LFi9GhQwfY2dnxe862aNEC3333HQoLCxEaGoqlS5dCU1MT27dv57chY+vOpk+fDiUlJTx8+BBr1qxBly5deNu9vLxQu3Zt/vqaNWu+VVP9+vVx48aNNzS9fPnyDU1s+y9mp1TTDz/8IFdTRkaGXE3Nmzf/P3vnARdFzobxh0URQYrl7FQVxAJ27N3zbEgXFaQo6in2ChZERcUudg8bimDvFSxgBxQRBFSqAgKKdATc3XyTYRcXWBQ7993+f8e5k5lJ8qS+mckkmDJlSilNbdq0KaXJ3t5erKYHDx5AXl6+nCYtLS24urqWaJo2bVo5TUuWLEF0dHQ5TQcPHmTzSajp3bt35fJJRUUFM2fOLKeJvuq8ePFiOU1OTk6lNNHl/Mpqovm4bt26cpru3LlTStPTp09ZTSNGjMDVq1dRo0YNVhN9okTzSVQTLbuimugybZXVRK8Vp4l21HSO45c0rVixgs0nUU2TJ08upUlY9oSahPlEddF5S0JNMTExyM/PZ+MnqklNTa1cPlE3Ly+vEk00HbKysvDq1atymoT1iWqKjIwUq4nWJzqPSlTT2rVrWU1UC72fart9+zY7hUVUE0VYn4SahGVPqEmYT6dPny6l6c2bN6ymuXPnltJE6xNNB6Emei0tG6KaaDqL03Tz5k3Uq1evRNOjR49YTTo6OiX5RDXRfBbVRP2nmsLCwko00fmtVBNNly5durB+UX+/F09PTza+fn5+yM3NxaVLl9iyR5cio4PAiIiIEk1btmzBrVu3ULduXfZ89erV2XnMtJ5QTTSfAgMDUbNmTVYTbf8CAgKwceNGNp9ovQsPD2fX2KZlj/pz+fJl7Nq1iy17ixcvZrdIp/GgaU7jcerUqZL6NG/ePLoSEf34ms0n6nb48GGcOHGCzSeat8K5/rTdF+YT1UTznOaTqCb6PcDmzZvZOdm0nNI0F6eJHtNvW8pqov7T/BRqmj59ejlNixYtYqdbldVE072sJlqfRDXR+kT9LKuJzh8Xp4mGJdRE84mWGVpGRDXR+uTm5lZOk7+/fylNz549E6tJU1OTzafKaKJ/ovl08uRJNp9ENQnrU1lNNGwaB6GmTZs2sXGsjCbaRohqEpa9ymqi/WdZTVRHZTRRP8pqEtYnUU20PtF8EtUkIyMjVhPtc0TziaYF9V9UU9n6JNRE05jGS6iJxvfQoUNsGyeaT/S3qKYmTZqwmmh6CDXRdNy9ezcbhqgmWv5pWEJNtH7QNpieF9VE61NZTQoKCmxZFWpycXFhyzIt06KaaLjC+kQ1ZWdnl9MkzCdal0Q10XOimugAmLYztD6JaqJlr6wmYdkTaiqbT0JNwcHBrCbalohqou0KzSehJtGyJ9RE2yKhJpr+w4cPZ20CKbq0FTWU6I000rQzoQYD7UxoI0sNQBop2vlQI4R6/P79ezYi9I/+poWrsLCQ/aO/6T30XlqBqOFL76H3Uj+oX7QTpJ0RNSxoWDRMGjaNAzW+6bxmKpAaELRTpJ02LWAU6k7PKykpsYvLU3d6nvpD/aP+Uv+pP6KaaDxofCSa/j2aqDFE3WlD872a6M5YNKxv0UQrDT2uavn0JU20kaFx/bdoosazMB++VhMdVNJ/f4amfv36/ZSP6qgxSBt1GscfrYmmJU3TijTRhxk0H8TlEz0nbAO+Np9onGjcvqSJdo6046Th/L9o+pX5RO+hde13aKIGG60v36KJPkARtgFfq0nYBkg0/f9qov0SPS9OE237hW21OE20PxT2P2U1UR2i/Y+oJkVFRXZAQz+qk0pJSWENYgkSqhr0iT19arhs2TKBiwQJv57fu8rE/yf0SU6vXr3QqVMngcu/A37qLXjeqQ8bk1YCl38J/FTc8ryD+pYmaPWj9tX6LvhIveWJO/UtYVI1IvR9VLn0lVBZSq0yQa3s74X/PhbhCZ+b68lHZlwoHgUH41FUCn7ohpb8TMSFPkJw8CNEpfwIn/l4HxuOz8oRkOu7CiuvZAmOvgP+e8SGJ6DiIH9i+lVh6AiPjkAlSJDw/wV94kOfznyCi2eHlmLjjbd0Y7OfRC6CDq/CihWrsP9uuiAccW4Vw08LgNf5SMHRvwh+GgK8ziOyzGaU5fmKfCiKw6UNczBxwlSsuZwscKwsfKQFeOH8lyP0FRQh7tIGzJk4AVPXXEbydxUkHl5cOAC/V5X8xqrS6fvz4b24gAN+r75zd8T/Jhz6yPl7Kbg4F4audwVH4uDi+fktWONsjxHWHoj5kTnFfY7zW9bA2X4ErD1ifkAhKMDFuYZwvfsZszMvEqdXT8G4+VvhsWo2dgZ95zbKBRcx19AVFQf5E9OvCkON4d69ewuOeEi4uAkbzt3HpS3rcPYHJAIv4SI2bTiH+5e2YN3ZGIFrMdxQL7gdi2BSXoKEfxNchHq54VhEJUtufizCXnxuUM/Fk8NrcfL5j2106JxsOhfxE1zkpL1GcnqB4Phr4OP1HhNYeKR9wYirhrrqraGRdh77At4KthEX5/ZfprL5wMebgzOwJFwPttPt8Jf2718Ghf/mIGYsCYee7XTY/aWN74vRR0Sd+QeXvndr8N/Ax6gz+OfS924X/t+EQ+dfsHDzkJOfh+SIKKQUFuBNJP23+BT4uXgV+gCBkamMuShCQQoiAu/jSVKeoCHhIi8zp+QJZlFuJnJZW1EG+tP3wWfjKDQv9zohH8lhDxEUlcbu1V9CfjLCH95DYFg8Mj5nb8roY/o+H2wc1Zxp2sogNt485CY9Q+CDYDxPLV3pC1IiEHj/CZLyPtcs5sNvvjFcX3dBJ7VmGD51HLo3oU/ZGe05+chLjmCfVBe8iRR5Ys1H7qtQPAiMROkgC5ASEYj7T5IgDJKbl4mcTwmITDYBP5d+NKnC8DAoCmnfaZdXNRISEtgPBorh4U3APuy9HoqAgx64/vr7TVXemwDs23sdoQEH4XH9tcBVAEca0hwpwYEECf8WihBxdicuvKhM/eAibN1YOJx++5nOswjhp3bjSuyPHRru27ev5ANGIBP+7gtxOE4RDZWFT425CPfeCe+TGzHJxBgTNt3Ge2rt5oTg4HwrGI4whKWrH+OWg9vbZmGpVzCCfBZhusMMrLuSAj73KTznWMN4xEiMmXsQobnUT1lo9hyJwW3q4dNCieLcvg/++5vY4XEJvpsdYGE+FR5P8lj3/AgfOFkZwmicE3wi8sEN92HSYSv+tlmNo15OsJp+CHTcwU9/gN2zRmOkoSUWHApFLjccXsv3IZjtO/hIurgeO24zg5j8CPg4MWlhNA5OPhFMz/S9VDYf8pAWH43HYYlo3L4zGtSqg0b1lWjE8WD3LIweyeTNgkOCNP8e+Hh/cwc8Lvlis4MFzKd6gE1KMbrz0uIR/TgMiY3bo3ODWqjTqD4UMiuXD5SckIOYz7iNYNLc1e99ycAq494G2JuaYvLWe8Xl77vIQcjB+bAyHAFDS1f4CTwsHx8unnrOgbXxCIwcMxcH2YSsIC34mXh0cDEmmBvDYvpB6l0xGfewwd4UppO34t73R/w/Q8k6xIW3F8HgT1PYjDOEobEVrK1GwnBVCJB7HysH6cN40QastOqGDtbeoIOmovCdMO78JxzWbsIqnyfMeIqh6CGW9rbAAXavjwKc/7s7ZvqWNjpLwX2OvaN6wmD+Bqyy7YXuDueRyuQd78UeGOsPx/wtu7DJeQWORH1DY1xRvB+sxmirhdiwZSWsunXEpHM0skyjv9MYnf90wNpNq+Dz5HPLAX1ERkYeqivWROGHBug0uA/0GjMGceFtLDL4E6Y242BoaAwrayumQVvFXJ+L+ysHQd94ETastEK3DtbwLk5A7DTujD8d1mLTKh8UB1mEh0t7w6I4AVFw/m90n+nL/hYPF8/3jkJPg/nYsMoWvbo74DxNwP8T6GoCY8eOFRxVg4aGOtQ0e6C5uibzmyDIwwXegidhvNhTcN3mz/zKYxrwxbA1GQljWycceiJ4+lUUh4trJsPMwAjjFnoihHGupqEBdTVN9GiuDk3mtyj8onzkfKB+V+CfCLlPveBkbQLzCa7w9tqCzb5prHtBzHm4TbGAkbE1HD2fgN5Z9Gg/3A4ex/YZFjC2mIxV5+MEA8EixF1cg8lmBkzDuBCeNIIS/kMU4dF+N+w/6o5p5oYwn+GBwGcXsHK8MYysluC0wCDlp93DngU2MB4+HCZ2zjgexbSvRUHYu3ob3OePhcWc40gVjue5CTi/ZhF23n3PHJQvX/ykyzjsm4BYxn3P/Wwm/NXYd2Qz/jY1wpjZe/CwbEfKT8O9PQtgYzwcw03s4Hw8qvhBQ2EMzq+aDHMjU0xwOYko1sb4fHk2NDRkvwYvRg4tBzEGoHIozgW/L3m4EnvNDS6nFTBx/RTU8mKMxlQukg4uhHvhOOz03APXce1Ri1MTWgOYezs0QBN9U1hajsEQXWVwpGqj3ahF2LFvC0blbIHzsXTW119C9hMcX7QYJ2pPwErzD9i69iLyCu9h+RQf1J++FZtsOdg93R1h0b5wO5COTnXPYsWtFmiT4I1rKW9xcqYDfHUWYudGS5CdjB/B9SEbvRU7rzGGEe8lvDZdQ2Hj6ri3fAp86k/H1k224OyeDveIioc1laOS+fD6CbyXL8X2W68RdnwZFi1yxqGQQqSfnAkHXx0s3LkRlmQnJqx8IGjbvp3sJ8exaPEJ1J6wEuYftmLtxfdidH/AU+/lWLr9Fl6HHceyRYvgfCgEhZXMh4iPSTi40B2F43bCc48rxrWvVTw44r3Cnce1MXHtZNQ8uJIpf9/Xt/KTDmKheyHG7fTEHtdxaF+LCUVcfHhSqN1uFBbt2Icto3KwxfkYaOktnxY5eHtyGsb71IKl2w64TehSHBAzvH115zFqT1yLyTUPYuXR1BIDX8LnEVmHmIdU6X7YuO4v5OXrM/8OBUmIxZsjTCevuQ7XLxzHubtHYRi2EfvCs3BpvTukF/jB78QxHJvTA9+yUVeB70ZsyrPB3l3rseXwGnS4sQ0n3vDx8dltPKpriGXb9sP71F5M1f3aWer8CuLNhUzXxTjvdxy7Nm3F3r8b4cblUMbmuYT17tJY4OeHE8eOYU6Pz6lRgsmGfRge64ptd5/h/K5LiBXY/LxUafTbuA5/5eVDn/l3KEkA/80RuHprYt31Czh+7i6OGoZh475wJsj1cJdeAD+/Ezh2bA4+G2RFFPhi46Y82OzdhfVbDmNNhxvYduKN4OS/H/pFKP3CtBgOGow7gMMTWmOMx2FMVOPj+SVP3BC80uIl34H32afgPd+OqW6pGOy0Ggv6JGK1/UaEcvNxe5EZljzvCIfljjCU3g/LSUeQ9sc4HDg8Aa3HeODwRDXWHyHcF1dw0DcGhWL9E1xEybyAmRabkDloDuabVoePoyN8mM4EWVcwa4QjwnUnYdHcwcjfbg47zyQUvbgEN8c9SBswF0vGKuDsFEecZmyFfGZAarbkOTo6LIejoTT2W07CkRRJM/bfgYsXl9bAyeMdBs6ejW6xzhhseQaNbJdgUhNfzHa9ylyTgVOzbXBY2gRL3FbApoEfZjodw3vuc1xYtRYBavaYYq4HZfpigxuPo5OMsCy6PYZ2rSO2fPl80ERbTUXU1uqB9k3BhL8W89zj0GfOAhhiHywne0O0CGacmg2bw9IwWeKGFTYN4DfTCcfeFyDAyQgLwnQxefEsdHu5BGNcA79YnumX3/SL8GJk0EBHH+1UFFDqnYx0EwydZI2OGh3Rpmk+srKl0IAx2NoGO8Jq+mb4veZCmhkoN9DpDN0mClBUaY8uXfXRprEs8CEdwYcXYIypNdxuvUF2dt4vNQqk9ayxyKodmg9fBk+nXqgW74+AqEgcm2sJa+crSHwVjVgeBxr9R0C/Xj10HT4SKnJM35fzhLlOF1bj9NBYcxDGG8ghJOgjhlj3RPjxy0iPOIarShYYrfoa/gFRiDw2F5bWzriS+ArRMd+7rnMl86GgK2bsO4zlBproMpnpo709MbcXEMrER9dqHPQaa2LQeAPIhQTh7XcnujT0rBfBql1zDF/mCafub8TolkK3GftweLkBNLtMxn5vb3gyEaLPuCuTDzG8Bhg0ui2CHa0wfbMfXnMF31VJq2KEgx06a3ZEa7b8fe7N8ZfhNBiE0W2D4Wg1HZv9XoMGwxMXn48fkB58GAvGmMLa7RbeZGcjj03HMmnRSwpB18LQccpM9NVoCDVdHTYcep3qCAfYddZEx9ZNkZ+VLZkKVEk4dOmNYqQgp94CKtU4UGymxfzLVAnCQ/zL12isqwcFekmNVmitmYGkV8mITpBHS5063/GaiY+MmBgkhXlilq0NbOy3IrqpBhSKCGSHucC9zzPM7KaDzibOuPT6a0e+XPHxTvqIdL9F6NuqHQaPssZ0z2co5HEZQzYaCfItoVOncmo4jQZi0T9z0Ld9L+iGzsPgqedYdyk5dbRQqQaOYjNoMf9KMcWQG/8SrxvrQq84ImjVWhMZSa+QGp0A+ZY6qGSQYuFnxCAmKQyes2xhY2OPrdFNoaHw/zNvgi6tQteWLkGuLurKcyBXp26F88OkaiqhVvp9+HhdxEu1hbjp7ww9XiCOn82GauMMBPr6I0ZeBTLXT+PWBznUrSsPjlwdxl+BB2UQ65/I+Kzw/ln4t5iClZbd0emv2VhipcNO3Sm8ewJXVaZg7cR+6NR9DFYt0EfQiavIZM7J9rDDPINOaD/YFP3qpeJ1ej4Cj59FtmpjZAT6wj9GHioy13H6ltBgkPDfoAa62czDyK49MKxnMzQdYAernu3Rb2B7VH9H3zrUhumBxzg6rh7SIkMQ9Y4HXkY6cpjOUkq+G8xt+qK3vhZqkA94sGw4Jj8zwcFdplCTLhRfvoKboq0GYxC36IXOTHsFqdoYtsAVFt26wnz5XHQOOoubwu6BobbpATw+Og710iIREvUOPF4GY9g+wnnfOrBznYT+HXvA1v08DkxQ/2J5pms703VLv5Zq2jY4cPcODk6qh3MTZuEk+1peChyOFIqYAbSQzJPLsTHfDsdvXsc+Gy3GRPjFMN0na1TKqkKvTSNUV1SGsro5tjLtj39AMF6+8MAwcQ9BpGujdvVUJLOWZCESE/NQv5ES5PpY489XR7HhnwCojTVGQ2lFKCurw3wrk77+AQh++QIeI37n9t7SqF27OlKTiz/GK0xMRF79RvgRG7pKFackk5R6zGCnztfprkQ+jJCtBm2bA7h75yAm1TuHCbNO4rtne4ijmjZsDtzFnYOTUO/cBMxiCq+UuPgUnMTyjfmwO34T1/fZQEuk8JZKi0YyUFKSRkrilz8GlVA5OHTNtoqRRhO1BngdGoJsepgXjKCXTaGtUw/1lN8jPj6PGeIk4ZLv0+IpE6iO6tL5yMlhDNisRwiKzP/MyIQDJVUV1GUauL2+N9hNAm5c24VxGkzuy2hipMtR3It8gLUqZ+C4/ZHgnspSTXy8tbi4sfcAFOffRaD/BWy3KJ53LK1cD8rv41Es5xJ8n35upM1Ffn4RuAnxyNMeDnvTDuC9eiU4V55qTdTQ4HUoQoojguCgl2iqrQPlesp4H8/4AR6SLvlCGGT16tLIz8lhXLPwKCgS+Z8Z2nGUVKFSl6lke32L0+/GNewaV/rV/78ZupA5XSi8Qpi2oSR5+Hy2UeCo2uPwhWXoQUKw36E/9Pq74G5eFrJyZaGgVJNdRF5WoTPsXCzRthK9pFj/RIwEXl4eCmrIsU8jaIRqycuxTRYvNxeFCspQFHQI1ZQUIFuQj0K+FGRq1mTLHdOLM/8Rdj3GrKxcJl5KqEnjJ6uAznYusKxMBCX8/yAly5Sf6uxPaaZsyMhUL37gICXoBvnpuDy/L3qNXgkv/1jw69UDNQXYOiArj5olxeUjpPTMMSL/KPb406kKlSxfUorMAFFgpVVXgIL0B+SVNIV8pF+ej769RmOllz9i+UwfQAPnM3UrTx5KysV+ceo0gy5jZH8pPBsbG3ZTARZuKLaO6Q/DTQ/wdK81BtntxQuxz0C4iNw9Hgam47Fg83mktNCHDmsLcdCoew/k7DCH6dixmO+TgBotdCB3fwPsjUdgwWXBdAlx4RRWNuzvg9PABFO7+sKmvzGsbCwx2vkiOzguRzVdWE9ShofRUIwyHgqnxLGYObwW494eViPeY5evDqyGKlMPYTK1K3xt+sPYygaWo51xUayHX0Gl80Ec1aBrPQnKHkYYOsoYQ50SMXbmcDAx/7F8p26x+cCNxO7xBjAdvwCbz6eghb4OW69+NNzI3RhvYIrxCzbjfEoL6DOFV2x85FpAR+4+NtgbY8SCy+x0CfHIQN/+b8jvHIz+JqNhZrpc4C7hm3nz5g3THxNScGMa6TjuFMkMmEW6jz/L/tuFOSbvrxOn7hpEu+dg0r9dK9LP+RZ5T3gk9Yw90VFrR/p270aMLAaQDpMuM77kEL8ZrUnTtv0Y98HEoE87Mv7CB0K40WSneTvSWqsRqSXfkGi17kRmUveCp2TbSC2i3n4gMTAcQf4as5mEfOSRpAPWpEuPQWT4iEGkY+s+ZMmtbDaO4uBG7yTm7VoTrUa1iHxDLdK600xCvRYfby6J2vYXUdfqQQb26kr+HNSJtJnIxJuXSs7Y6xC1dn1J925GxGJABzLpckFxAGXhJZJDtsx9zf4gSkx4ej3GkM0PMmkCkmkdx5FTmQFkVvfx5Cz9t8s45ob35LpTd6Kh3ZMM7t+OtOrnTG69p0GeIfY6aqRd3+6km5EFGdBhEqFB5vjNIK2btiX9GPfBBn1Iu/EXKk4/UkCebhtJtNTbk4EGhmTEX0xcQj6y0fx/4Pnz58TJyUlwVJY8csyiKTE88I75zSMJ2weROv3cSWHgBjJm9gmSymOcC26Sado9yOpnUWRdHw1i4f2GuZJJzoTTZMWiIyTiM0mVd8SMqFmdJlni/IviFl/EwI3dQgZqjyHeiYxb3lOypndt0nVVJOGGryBdtSaQC0xe07g+dOpItKbeIO8F/tLcIx8DiWOHPmRtdCF5ua4P0bDwJm+KI0hOr1hEjnwughJ+GXp6emTPnj2kU6dOApfvY8CAAax/6urqAhdKHjlipkasTtOSwSXRa/uQDo6BhJaAAr+/iZbBPkI+nCM2TXqTdTG0/H0kzzf0I7V7riMx2YeIkZotOccWKqE/eSTj8mTSSncWuZnNraB8fSChzl1Ir9XPmRCZ+0zrkR6rI0ghc8mHoEWkU8dFJOhjHjlkpEkmXMok52yakN7rYphrmdCfbyD9avck615Gky0DtIjtmXQaOMk49zfpNt7ni+V57dq15OHDh4Kjr6GQZCRGk5cJ6UzrVxpuZiJ5+TKBpAtOFLxLIAnCgx/Ex6cuZKD1CcHR18IjeakxJOp5LHmT8/m6zc19Q+Li35XTWBZeXiqJiXpOYt/ksGWlQj4+JS4DrckJtoz8RLi55E1cPHn3xWT/SJ66DCTW3xihSusWi5h8KMwgidEvv728VDJ9CzMSSbRIGS1GTHwK3pEEMWVcLNxMJu7RJImp5xK+HmlpabY9ZgbphO7yIXD+HHkkJTqSxKSVzu0PqXEkMbNsJnwgqdFR5FU594r4SDISIkl4eBSJf/eBNViKC0gsiYyIIWnfWD6LERdvLslOfEniytVYJt5xiaRy0eaR+E1DiMn+DMHxl8lLiSaRMWnFhpCQD6kkLjGT7WBE+ZAaTaJelXeviI8ZCSQyPJxEMQ3oh+IE/L8gPj6ebNu2TXBUFh55c3IC0VFhBg/9upEeQ3qRlgPdCckOIEt7ahCtnkPIkO6tiN6YAySaScjMO65kUHNN0mngQNKphTYZvj6Q5Ap8EofQIP5QgX+fyCNPdowi7TSakVbt+pBBXVRIr7XRTPTek5tL+5HmWl3JgN6tSQv9aeTUK6ZcizWI2QgS10HNiWangWRgpxZEe/h6Evi5CEr4ZVQZg5iXTI7baZEmrfuRIf27kT5Gg0jrVrPI7QxxBjFzwEsjp220SLt5ARWULx5JOWhEmjbvQ+adimUM4j+IRpsuRL9fH9JWqzuZdzmVtsQCgzifJB+3I1pNWpN+Q/qTbn2MyKDWrcis24Uk+64rGailTboP6kN0Ww8iK29nfrE8HzhwgGnzwwVH/x64EeuJqcN5wdG/CG4EWW/qQM6X6oB+J1wSsd6UOFSdCH0fVS59JVQWUYNYKi8vj9C9/SV8HQVpCciQU0OjH/5OSIIQOof4xYsX7JqlFcHPfYP49BpoqlZH5MPOAqTFxiGjRmM0b6L0af5gUQYS4tJRvaE6GiuJTAT+IhX4x8BPDYDXTTkMN++E2pxcnB/fEQf6PsRJK8HqLelxiM+qBTXNPyrxGq4IGQlxSK/eEOqNlYqnVUj47VStneoKkR6XgBwlNajXES6NVVnEla8ixr9Yxr+GuD+5HS6PfoL1eungN9BAQ/nyE0BpeU7IUYKaeh3BNCEBhemIT8iBopo6PkWr4vL85MkTdhUZuvWsBAkSJPwuSu1UR7/2lfD1yNaXGMM/m1evXmH79u2CI/FwajWCZiljmCKL+po60C5jvEKmNtS0m3+lMUypwD8GjoIUItaPwbAxkzBpzBDMfzoM9kMVBWeBGnU1oF0pY5gig9pq2mguMYYlVEgN1NXQ+gZjmCKufMkw/rVk/BPUICla1puJNYYptDxrlTWGKTXqQl1L1BimVFyePT098ezZM8GRBAkSJPx+OJKtcSVUVZo0acJ+fFOlkeuF1XduYcfEkTCcvAu37m7EX3V/wKfVEiT8UuQwfMtNrB30Mz4nKo+pqSm0tbUFRxIkSJDw++F8/Pi9axdKkPBzoOuU0qfEVR7ZxmjXfyiG9G6NBuKWUpIg4V+AQiM6TUJw8JNJTk5GTk6O4EiCBAkSfj+c3Nxc8OmSVcwf3aSDEML+S/+oG5fLrdR5oZvwvPCeypwX9ZP+Fg3ze88L3YTnhfdU5rzQTXheeE9lzov6SX+Lhvm954VuwvPCeypzXugmPC+8pzLnRf2kv0XD/N7zQjfheeqWkZHBrlda0Xnh/UI34XnqVtnzon7S36Jx+t7zQjfheeE9lTkvdBOeF94j7ryon/S3qJ8/+rzQTXheeE9lzgvdhOeF94g7L+on/S3q548+L3QTnhfeIzz/s/ieOH/pvNBNeF54j7jzQjfheeE9lTkv6if9LRrm587TbZvfvXv3VfcL3YTnhfeIOy90E54X3lOZ86J+0t+iYf7o80I34XnhPeLOC92E54X3VOa8qJ/0t2iYP/q80E14XniPuPNCN+F54T2VOS/qJ/0tGuaPPi90E54X3iPuvNBNeF54T2XOi/pJf4uG+aPPC92E54X3iDsvdBOeF95TmfOiftLfomH+6PNCN+F54T3izgvd6LEQaT8/v2V0++br169jyZIlaNu2LebNm4dHjx6Bw+Fg9OjRqFevHs6dO4c1a9agVatW7Nqwz58/Z5/gWVpaomnTpvD29sbWrVvZ7Tjt7e3x+vVrtsGztbVFs2bN8M8//2D//v3Q0NDAuHHj8P49Xcc4nr2W+rllyxYcO3YMqqqqMDc3R1FREcLDwzF58mS0b98erq6uuHTpEho2bAhjY2N2IvSDBw8we/Zs9qOXxYsXw9/fHwoKCuz9tWrVKqVp7ty5pTT98ccfOHv2bDlNdKMSKyurUpq0tLRKaaKv8Zs3b15OEzXgxGlSUVFhP6IR1dShQ4dSmoyMjFC9evVymgICAlgtZTXRNTxFNY0ZM4bNJ1FNDg4OYjVt27atlCa6GxzNJ1FNmpqaYjVt3rwZx48fL6fp77//LqWpQYMGbD6JaqL5KE4TUwaxdOnSEk3UCKaa7Ozs0L17d9y9e5fVpKOjU04TjYeopgkTJiAxMbGcpgMHDpTTRK8Vp4m+NRHVtHLlSly+fLmcpjlz5pTTZGZmxpZBoSZh2RNqEubTmTNn4ObmVqKJfjxINdH4ieYTrU9lNVE3UU00Hagm+oGWaD6dOHGipD5RTdQIEafJxMSknKZFixbh9u3bkJeXZ+9XVFQUq0lKSqqkPgk1CcueUJMwn44cOVJKU1JSEtLS0th8pvlEP1qjmkTrE9U0ceJEtG7dGps2bSrRRNNZVFPHjh2xYsUKXLlypZQmurELjSutT6KaaD6L5hMte1R7SEhIiSb6wRfVROe60g87aV2jcfle6PxZGh4Nm+bryZMn2fSh0whoQx0aGlqiafny5bh69SqbvlSTjIwMWx9oG62npwcnJyfcuXMH9MNoqonm07Vr1+Ds7MzmE6139AM22ujTskfT5tSpU1i3bh1b9ujHgi9fvmSf1tI0p2l7+PBh7Nixg82n8ePHs09z6SYaNJ+o265du1gN6urqbN5mZ2cjJiaGTRuqa+PGjawmWo5pPolq6tSpE6uJpin9TeNUo0aNcprocc2aNctpov6LaqJbu9N8EtU0ZcoUREdHl9NEP5wpq4nWJ9puCDXRskf7tLKaNmzYwIZRVhMNS6iJ5hOt2zSfRDXRsidOE71+2bJlJZqof+I0tWzZspwmuka7OE0pKSlsPgk1HTp0qJwm2kaI00SNA1FNLi4ubLqX1TR//vxymmgboaSkVKJJWPbKaqLlYv369eU0WVtbl8snquPNmzclmugUG3GaqB9l80lYn0Q10fpUVhNdl16cJupO80moid5XNp+E9elLmmh8qSbaxolqonkmmk+0PpXVRNOR+n369OlSmmj5p3VXqMnX15fVRM+L5hOtT46OjuwHY0JN1N4T1TRr1iw8ffqU9VdUE01LUU00XsKyJ9QkzCeqh+oSaqLnRDXR9KDtzKRJk0ppomVPVBPtN8pqEuYTbecWLFhQoom27dTdwsKCzSfa9tP7aF8hqomWvbKaaFsk1HT06FEMHz6ctYWkmEpEGjVqJGiqJUioOkRFRbHGOTWyJEj4XdCOsuqsMvH/werVq9G/f3/o6+sLXCRIkCDh11NqlQk6mpAgoSpCn3rRtwsSJEj4/4I+OaNPSX8q/FTcOnASEVzB8b8IfuotHDgZITiSIEHCr6C8QcxPR8yTF3grbET4mYgLfYTg4EeISvm0V/y/lbykCMSkV3I/ygq08zPjEPooGMGPovDlJOEjMy4Uj4KD8SgqBf/+FPx10Ffa9PWHBAkS/r+gr78rv8JRLoK9jyCQ7kJdgji3MvDTEOB1HpH/RoM4LQBe5yMFR+LJDTqMVStWYNX+u0gXnerOfYZDSzfixtufN/9dgoT/Rzh0Lm8pPlzEnL7TcCpDcMx9jvNb1sDZfgSsPWLwE7Z5/4UU4clGC0w/UUZzRVSgnfv8PLascYb9CGt4xHwpRbh4fn4L1jjbY4S1B754uYQS6JweOle2FMwg5emx1ZhhbQ5zqylw3ncPySIdXm7kabjNsIa52RhMWuyBuyn/8gTnxePCpn14kCs4/qVwEerlhmNV8REbM3C/s3UqxlhMx/7TnnA7FsHE9t9MFU7rnwCdIx8Z+XmDrwR+Nh54HsC9LBEDT5zbf4xqddXRWiMN5/cF4O2n74KYopSDtNfJSC8QHFcA//UemFh4IE1iN0uQwMKpU6eO4KcAqRqQqc78CZejlNHH9H0+2DiqefnNAvKTEf7wHgLD4pFRJHD7Wvi5eBX6AIGRqSipv0W5yMrngZcZi0ePopHxzTZNPpLDH+JeYBjiRSIoJcVDenQwgl+kl+pE85PD8DAoCmnCSyvQLqM/Hft8NmJU88psnyAD/en74LNxFMpfLj5+EoqhE+7px1cl8N/i8uwBMN7+BtrGUzHDtheqX7JHH+OdiGCSj596FBON1+NNh3GYs2AK/pK/gPHDl+LeFzqGKg0vETf2HkdI3u/ptTjS0uBICQ6qEPwUb7hsSEGPqZPQv4kMpKtiJL+KIkSc3YkLL/4bBjH9EIZ+3FIMF08958DaeARGjpmLg6GC0V9uOLyXToCZkT0OCB/zinP7HvjvcXOHBy75boaDhTmmejxBHnXPj4CPkxUMjcbByScC+dxw+Ozbh61/22D1US84WU3HoedMx8QMzB7snoXRIw1hueAQQnO5CPdajn3BxY0OP+ki1u+4DfogOz/Ch7nPEEbjnOATkc+e/x5kNXti5OA2qCe67HmmP9wXHkacYkMol7z8zUHIwfmwMhwBQ0tX+L3nI+f2Nsxa6oXgIB8smu6AGeuuIEViGEv4j8MpLCzzEp8jA9maMqhRdkuuMvBe7IGx/nDM37ILm5xX4EjUNzROufexcpA+jBdtwEqrbuhg7Y0Epo3JPzMRvUytYTRiEpbP/AtdJ50T3PAV8F5gj7E+hs/fgl2bnLHiSJTA+OUheu8YGExdhbnD9GF9NJVx4+L53lHoaTAfG1bZold3B5xP/cmtQ4XxkyAkLy+P/bBOCPfRJjhe1sfOC+6YMrIPevQfjcU+R2H7zhXOx9+iMOIOHtUehsmWA6DfqSeM5m/G8sEcJKeVHVEVIub8Kkw2N4LpBBecjKKdUwHj5oYpFkYwtnaE55Pid7FFj/bDbf9RuE8zh6H5DHgEPsOFleNhbGSFJadjmTwrwqP9bth/1B3TzA1hPsMDgc8uYOV4YxhZLcHpWJqrfKTd24MFNsYYPtwEds7HEcX0l6zfB49j+wwLGFtMxqrzcYxvlByEHlqIccbGmLDmVskTnLxwbyy2NcFIY1s4HXrCdrKfKELQ3tXY5j4fYy3mwCeGh6K4i1gz2QwGTKe+0DNEcH0unno5sX6PX+UDr03b4Z/J3B3kARdvwVNWXixOuW5j3Pkoys/BB8axKGgvVm9zx/yxFpjjEwNeURwurpkMMwMjjFvoiZByr67FaxaF6l+97wg2/20KozGzsefhe+auSujgRsJn7QlEFSbjgV8kY8DkI4eJZGG4F5a6nEA0ze7CMBxa6oaLSf/CXp6bgPNrFmHnXfomqwhxF9dgspkBY0gthCeb0JkI2OYMr2eCFoP3HEdX7Ma9VMZYXGwLk5HGsHU6BEERrpLQ1Q6ysoQRlELtdqOwaMc+bBmVgy3Ox5DO1MdbSybDW8kOG3YtwzBV2iGJc/tesvHk+CIsPlEbE1aa48PWtbiYV4h7y6fAp/50bN1kC87u6XAPi4av2wGkd6qLsytuoUWbBHhfS0H6yZlw8NXBwp0bYUl2Mn4Eo75sNLbuvMbUNB5eem3CtcLGqFV4D8un+KD+9K3YZMvB7unuiPjmBz2fQa4lBo0eCeXQcwh+X/zYmJ90EAvdCzFupyf2uI5D+1oc1NQawBjxHdCgiT5MLS0xZogulCX7CUn4j1PeIJaqgRq1auBL+wt8fHYbj+oaYtm2/fA+tRdTdSvztFQUPt4ccYW35jpcv3Ac5+4ehWHYRuwLp408D6lvGmL2uas4fcIJepEPim/5Gj4+w+1HdWG4bBv2e5/C3qm6JU95pTs54tzlUzi7VA/BN0KYdtYXGzflwWbvLqzfchhrOtzAthNvBFf/JD4TPwnFUIOYLrFWDA+v/O/gXdfB6KUgcKJU08HIIU3w4EYgpDqZwrjQHUP6jcVct/24+FQGBq4rYFqm4ywIcILRgjDoTl6MWd1eYskYV9w4PwsjHMOhO2kR5g7Ox3ZzO3gyxhT3xSWscfLAu4GzMbtbLJwHW+JMI1ssmdQEvrNdcbWAixeX1sDJ4x0Gzp6NbrHOGGx5Bo1sl2BSE1/Mdr0KZJzCbJvDkDZZArcVNmjgNxNOx96zfrs57kHagLlYMlYBZ6c44jRjI2RdnA2LTRkYNNcRRlK3cT2eqROM0bN9qhtSBzth9YI+SFxtj42hAoOIhRnUXViFtQFqsJ9ijvZK97DIbAmed3TAckdDSO+3xKQjKci6PAfm695iwOyFMCzcjwXOJ/E0j9H5/BI8byQUTwviJeOO91nGvQgvrhyEbwyXOX8Bq9YGQM1+CszbK+HeIjMsed4RDssdYSi9H5aTjpR+wlSBZlGo/rXz3BHXZw4WGAL7LBljJ6Xoyzp8eNDpooU6is3QrZcOFF9ewUHfGEi37IC6d5wwZ/9zBK2djNUJzdGx0b+sl+fG4+gkIyyLbo+hXesg//YimC15jo4Oy+FoKI39lpNwJEUedTOvwXXPXfabBO6jg1h3Kxf5+6fCLXUwnFYvQJ/E1bDfGFplB9nUIM7MZEZiLB+QHnwYC8aYwtrtFt5kZyOv6AVuBTaAycTuUG3QBH/IS9ECU97tRyCtB+tFVmjXfDiWeTqhV7V4+AdEIfLYXFhaO+NK4itEx/LA0eiPEfr1UK/rcIxUkQP/IzNwZa7TtRoHvcaaGDTeAHIhQfg42Bo9w4/jcnoEjl1VgsVoDSDeHwFRkTg21xLWzleQ+CoaMT9jTyyZBtDRbwcVhU9pw2kwCKPbBsPRajo2+70Gl2kOqzXQQWfdJlBQVEH7Ll2h36ZxJbeXlyDh/5fyUyaYaiErzxjEX+hHZIe5wL3PM8zsxlQsE2dcev21w10u4l++RmNdPbD2TY1WaK2ZgaQk6g8Hyh37oWttDlOZ7XDs7ip6xdchOwwu7n3wbGY36HQ2gfOl18WdPaShrtsOdHfdGnJykKYLNGfEICYpDJ6zbGFjY4+t0U2hofCTpzBUGD8JQuiUCbquYTEEWVm5kFNQROluUArKyvL4kJMLvkIfrL59HwfGt8bHUC84Dm2F5gNW4Law32UpQsh5X9Sxc8Wk/h3Rw9Yd5w9YIf3MVahMWYuJ/Tqh+5hVWKAfhBNXi2+s0c0G80Z2RY9hPdGs6QDYWfVE+34D0b76O6Sx48ka6GYzDyO79sCwns3QdIAdrHq2R7+B7VH9XRpQ2xQHHh/FuHppiAyJwjumzGWk5zBDQqYY9LDDPINOaD/YFP3qpeJ1ej6CLvhDY9JyjO3eGcMWLIK5OtODSdWEUq103PfxwsWXalh40x/OemWGUFLy6GZug7699aHOdMhns1XROCMQvv4xkFeRwfXTvvA/ex2qE5Yz8euCEYsWw0ylsk/ZpCDfzRw2fXtDXz0cx89mQ7VxBgJ9/REjrwKZ66dx64PgUspnNH9CCrWHLYCrRTd0NV+OuZ2DcPZm/pd1nA1HM/0WqK2oie59W6OOsK1iBkcO22fi4+reMPDSwep1Rmj4b7KHyQc8WDYck5+Z4OAuU6hJFyLw+FlkqzZGRiCTdzHyUJG5jtO3itDS3Bh/XD6Cm/lFzDXXUN/EFM1r10L6fR94XXwJtYU34e+sV2UH2XTZuZIpE5knsXxjPuyO38T1fTbQokVSShY1q2fhPf1aLOsZImj/Is7th8C0KGyjIgtVvTZoVF2RaVPUYb6VSXP/AAS/fAGPYeIeEUmjdu3qSE1+y5brwsRE5NVvxNTTPrD+8xWObvgHAWpjYcwUQilFZSirm2MrU1/8A4Lx8oUHRvwqC7SaNmwO3MWdg5NQ79wEzDpZPCVFisPEq6hQ8qG3BAkCyn9UV70d7DdMRdcvPSKW0cRIl6O4F/kAa1XOwHH7I8GJylINTdQa4HVoCLLpYV4wgl42hbbWj2rCZaA50gVH70XiwVoVnHHcjkcV2LgcJVWo1GUajb2+uHHjBvN3DbvGMaP6n0rl4/dfhX5UR9d+LaYa1FqoIzfmBd6XsqqKEBX5Gipamnh7fQ8OhCiil7UTthzxw9OYe5iFnVh3Kl1wLYUa1nmQV1JmujMGTh0001UFySuEgrIiMxSjVIOSgiwK8guYjk4KsrXkUZ06SzMDNBkZVGcvkoKU0DJnOupa8uwVzCUcyMhUL/aHuYBewk+/jPl9e2H0Si/4x/JRrx7tCenrTCnI1KxZbLQw93E4hF3wPSe3kDH8axX7wamNOkrML44q7A9fwLIeBCH7HdBfrz9c7padhygL+ZrFBi7JykKurAKUajIDXFlZKHS2g4tla3zILYC8okKx39J1Ua/EmmRiWvJhDt3BR/BTBFn5msVpRrKQlcv4qVST9VtWoTPsXCzRVsS2rlizKFJQrFtX8DaqOhQUpPEhjz42+5KOtsXxEIN0o9bQls1EXh1NqNN0+1fxEVJ65hiRfxR7/Ol0guJBoKyCEmrSdGbSobOdCyyZhJZubgYTVT/4XLqOYzdUYGqsAnX7w7iwrAdIyH449NdDf5e7+P6Zqj8HuklLyUd1ci2gI3cfG+yNMWLBZbC1VboZRppUxz/mBhgx2gPx8kwtEef2M+A0gMnUrvC16Q9jKxtYjnbGxVKDaiHVoGs9CcoeRhg6yhhDnRIxduZw1GLc21uNwPtdvtCxGgpl5kpOAxNM7eoLm/7GsLKxxGjnixDrZaXhInTrGPQ33IQHT/fCepAd9r7ggRu6FWP6G2LTg6fYaz0IdntfoDByN8YbmGL8gs04n9IC+jrFljinUXf0yNkBc9OxGDvfh52uKEHCf5lyy67xXx/CzOFT4UE/GGDgxezCqPZ6MHAPQeh2I+h1noWLBXwkH7SBfs8/McLQAvP8amPkEB32+srDgerYhTCJnI6uvf7CgJ5T8NTIBROaV9TVfR385IOw0e+JP0cYwmKeH2qPHAKdiox8ucGYPUsOW/t3xqCRRjAYMhZbnnAr0M5DzK5RaK9nAPeQUGw30kPnWRcFHomBF4Ndo9pDz8AdIaHbYaTXGbMuMobW18TvPwpddo3upCOkjoE9RsS5Y8nZ1yWvgnOCNsH1kgqsxraD3JtrWLbYA8+EVgBjQCjKyUFeXrRMVUfLNhqIvn8b7FAw8zymdHdAUjNVhN28BXZxlfxQ3AiUglbrugID+fsouncMx+Qn4+Q5T2xdZoQ/8rPB5fHLmYfFVEfbdpqIDLjNdpi85Ht4SOchFwVhs4MnpKw34Mj1x/Axz8T126+LbxFD9dZtoZXLharZVEybNgUjVbKQnC+Ddh21EOl/gx1U8FPu42G0ICVryKAoPQ302RE/JRwRqZ/pHau3RlutXHBVzTB12jRMGamCrOR8cETsk8pp5iMp6B5i6ECwIAy3HytDr53ofJiKdHCKBxHlyITfoum40c8DaxodwNR1If+up19SitA3Wwz3tT1wfbYLbuVUR+u2WsjlqsJs6jRMmzISKlnJyKcJzQyQTMxaIsBlAfwY43hkQy6CNjvAU8oaG45cx2Mfc2Rev40f9hD1B0OfDpcsuybTHa63A+C5eR/OnA1AuO9MqHKk0XLaRQRd3IvDF47i0sOrmKnK1N1ybt9ZQznqmOV3FTNURP3hoP6wzbj38BTWL3bCik3zMLjhCPxzZRk6tnHEBY+RqDPGG1dmazA2ujW8Av1xwG0TTgacwayOxcamtNZc3HgfCfd+gsfAnPoYtpmpy6fWY7HTCmyaN5g1lL+datCbdgQ37kbhbUY0Ht7Yh/Fa0qimNw1HbtxF1NsMRD+8gX3jtVBDZxJ2em7B8mUbmTiexYy2gtpToytc7gTixFoXrF5oBLUf0/VKkPDvJTc3l5SmgKQlpZIPgqOK4ZG81FgSGRFD0goETt9EHkmJjiQxaV8O8Wvh5aWS2MgIxu/KRfBjRgKJDA8nUfHvyAeewPEn8rXx+6+Rnp5Obt26JTgqJidkDxnfXYe06fkXGTagE2nZdghxPJ9AuPQkN46cmN6TtNDqTAYOG0r6ttMh3ScdIdEf2Vs/kX2XuA7UItrdB5E+uq3JoJW3yfv3N8nSfs2JVtcBpHfrFkR/2inyiikDeUfMiJrVabY+cKPXkj4dHEkg9a/Aj/ytZUD2ZeaRI2ZqxOo0ewWJXtuHdHAMJMWX/E20DPYRXvJxYqfVhLTuN4T079aHGA1qTVrNuk0yRPwmHwOJY4c+ZG00oyTzNnHp14K07NGfdO3UlbTTGEx2pGSSgKU9iYZWTzJkSHfSSm8MOUCvLSGPHDJSI7bnhPUok9xxHUSaa3YiAwd2Ii20h5P1gUxdz3lINgxvTVp270+6d25PtBr2J+6JPMJ7c5JM0FEhbfv1I916DCG9Wg5k3HNKtOUdMiJqtudK2oXMO65kUHNN0mngQNKphTYZvj6QiLYkFWkuFJyn5B0xJX9otCFd9PuRPm21SPd5l0kqr3I62LzotISEMAldnEcnSeKFiUy6zCI3MpnwX3kS0+b6xDlQ6M+3o6enR/bs2UM6deokcPk+BgwYwPqnrq4ucKGIlCNeGjlto0XazQugCU1cBzUnmp0GkoGdWhDt4esJzUYKL2U/MVBuSCxPMoIZsgOWkp4aWqTnkCGkeys9MuZAdHG9qII8ePCA0F1SfyrcCLLe1IGc//4i8MvhRqwnpg7nBUcSJEj4WUhLS7PtsY2NDZF69eoVoXtkS5BQ1aB7kW/cuBEHDhwQuAjhIudNAt4UKkNVtS5kyzwk4uWmID4xC9UaaECtdkWP3QuRHp+AHEU1qNcRviVh3OLikVVLDZp/CJ7s/CgK0xGXkAMlNXWUBPdZ8pEa8wakoQYayn8SWJAWi7iMGmjcvAmUKvFEpygjAXHp1dFQvTGUSh6rcpGZ/AZ8xQSs7OoCjatXMa0JEwY/F2/i01GjqRrqVOZtRVEGEuLSUb2hOhp/8vwTX9Cc722OVpdH48l6PaTzG0CjoXyFT+TF6/g1/P6tm4uQkRCH9OoNod5Y6dPT8byLmDjgHAyv78ZQeYFbQRpi4zJQo3FzNKlMAflNzJkzB8OHD0e/fv0ELhIkSJDw6ym1dXPdunUFzhIkVC3o9q6TJ08WHIlSDQqNmkFLvbwxTJGu1RDNWmp/xhim1EBddS0RY5jCuGlo/3hjmFKjLjS0KmsMU+TQoFmzUsYwRba+JnS0K2cMU2Rqq0G7eVkjshqUG6uUN3o5tdBIs5LGMEWmNtS0m4s3himV0izFamr2GWOYIl7HfwUZ1FbTRvMSY5iPdL8NmGi2FNEGf2Og0BimyNaHpo52lTaGKZaWlmjVqpXgSIIECRJ+P5wPH0Q/DZcgoeqQnZ2NkJAQwZGEH45MJzhePACr37QUg9zwLbi5dpBkuaevhgOl1v0xytELpxa2++ISmVWR8PBwpKeLfuwqQYIECb8XzsePP2MxRAkSvh86WHv16pXgSMKPRxZ/qDWB8u96mKjQiJ0mIeHrqdaoPQb0avmv3UwhOTkZOTk5giMJEiRI+P1I29nZLatevTr9uA6pqans0kYpKSmsMUKhS19JS0uzjde7d+9AV6V48+YN6IYefD4fiYmJoPfTXYfoiF9GRoZt7KihzePx2PPUjS7vlpGRwf6mbvRcUVERkpKSWD/pvdQP6hcNkxCCgoIC1q+aNWvi7du3bBzofA9qJElJSbFxpHGhcaZxpxs5cDgc9n767+c0UX/oE0iJpo/gcrlsnKuaJqqjRYsWbFwqq4nGsypr+pZ8+lZNNIyqpIluxEDj/S2aaJjU76/VlJ+fz8b1ezQdOnQIXbp0waNHjzBx4kT2/Pfg6enJrp7i7+/PbmH8OU1paWlsHGkbXBlN9Dp6Pb2P5gO9jvpHEdVUNp9oWn9rPtE8/pp8onGrVasW1NXV2d8/WhMNh8bnV2v6mfn0rZroNfTa/wdN9B6JpmJNtJ2qSpqoHqrrWzTROFO+VhM9pu7fq2nNmjXs9wysP0+ePFmmpqaG0NBQ9uOl1q1bY9euXezHHvTG5cuXo2HDhnjw4AGOHj3KLpezZcsWNkAq0tXVFfSjPLp+77lz59C8eXOsW7eODZxGcO3atWjWrBkuXboEX19fthGkH5PQyNDIbdiwATo6Ojh58iTu3r3Lzht1dnZmBdIIbtq0Cbq6ujh8+DDbITVq1AhLliyBvLw8u4sZnQzdtm1b7Nu3DxEREexSPsuWLQPdcERUE70uPj6+RFODBg3EaqIJROMnqokaZaKa3NzcxGqiBUKcJuoXjZOoJj09PbajFWpavHgx20mU1UTX6lRWVi6nic6/E9W0YsWKcpo2b94sVtP58+dL5ROtLGU1aWhoiNV04sQJsZpoWDSfhJpomSmriZ7fu3dvOU1MGcTBgwdLNCUkJLAVzdraGqdPn2avpZq0tbXL5RMtL5XR5OfnV07T+vXr2TDLaqKVh1ZCoSZPxoB5/PhxOU20npTVRMuuqCZh2RNqEubT/fv3S2miFZxqWr16dal8ovGn8RTVRHVevHixRBOtg7RBogZhWU3C+kQ10ThQTbTsiWqi9YlqottkCzV5eHiwmpSUlNj76bcGVBO9TzSfaINWVpOw7Ak1lc0noSZqvArbCKrpwoULuH79OlufRDWVLXvUr6VLl5bSRD98o3GjU2xoXISahPlE65Mwn6gmms+imqj/O3bsKKWJpg390CI4OPinGMRUKw2LhkHznMaZlhFap0U10TgKNdGlCKkG+oEf9YPmE9WoqKgIFxcXtuzRNBDm0/bt21lNNK2oJtrW0DSkaUnLHm2LaBrTtKb5RPsCGi+aFzRPaN7QPKJ5RX/TtpDmIc1Leu3KlSvZPKZ5TT+ApWEeO3aM1UQ31qH5JKqpffv2bNxsbGxYv6gOGveyml68eMFqLauJ5pOoJhp+WU00HHGaaJ2hZU9UE61Poppo2ROniZZrWr7LaqJ1VzSf6tevz+aTqCZa9v75559ymmj9E9VE2xxxmrS0tMppovGk9b+sJtpOlM2nsppofRKnifYjtN8XaqLtlzhNVEtZTcL6JNQkLHtlNd25c0esJtru0XwS1UTzhrZ5X9JE+4OymoT1SVQTbffKaqJtgThNtO0Q1UT7tbKahPWprCbat9A+RqiJ9qe0D9LU1GR1CDXRvorWMdH6RP0U1UT7D6qJ9uuimoRlT6iJ2gVUE81H0Xyi9amspnr16rFtmVDTtm3bio1Bpi8XzSdqv4hqojYb1UTTXqhJmE/CsifURO0mUU3UVqSaaH0S1SRa9qgmd3f3krIn1CTMJ2rfidNE6xPNJ9pOUzuR1idRTbQvady4MW7fvl2iibZ7Qk00HYQGsRRjyZOS9SAlSKhC0NEkrVRWVlYCFwkSfj20gf69q0z8/3Hq1Cm2Y6OdkwQJEiT8Lujghj7gYVeZoE8oJEioitBRIx3ZSZAg4f8L+uSHvuWTIEGChKoCh86b+tHw0x7B98Gn3cQkSPgW6Dwf+jrjE/mIDXsBuqmteLgIPbIWJyKrQMnjPsHhtSch2PBRPPmxCHtRsZovw0f6na2YOsYC0z0F2+BKEPD1ZSE/NgzflR0SKg2dCkVfeUr4nfCReusATkZIeup/C/zUWzhwMkJw9PupavH5Xr5jHWIenvs4Y+c9uu+qKDzEec6E0cRdeFIl61lF8S4DNxy7JzrAM/qTRZN1xRl2Gx8g5/YamA4biqFD6Z8BHA7FMmcZ3YenwWDYMAw3HI2/V51FNJ3TzY2Ah/0IDGXcDUxsMH/3PbzlU99y8GTfDBj17oQOPUyw+Fw8O4DgpwVg44TB0G/XFrod+mHx9ULG6wR4zzAQhMf8jbDHP0wjxn2yDTbDhfGgf8NgtvoYvGZYY/29PBoIAw+xh6Zj4u4wiFdciBcnF8G0V3vodvoL0w5HVpntbun8IwcHB8ERk5Rh6zDW4TTeVmhkFiHizG5cEm5H/DspCsep3VdAd10WDxdh68bC4fRbJoe+EX4KvF02IKXHVEwaoCZwlFDMV5YFbhjWjXXA6YoLVxWFMfy93HDss0ZNAeIjopkWp+pAvw+gUyZ+G7nB8D4SWPHgmv8WV1ZNgK3tBCw6Rtt3AUXxuLp5PqZMmo61V5KL3bjPcNh5E24UN+yM30E4vGoFVqzaj7vpArdfRiHubrFn4j0esw+EsX1KxfCRFuCF81XhAcJ3w8fbK6swwdYWExYdQ2xJNS5C/NXNmD9lEqavvYJkNju4eHbYGZtuvGXuouQi6PAqrFixCvvvpgvcfh2Fd7fAnon3+NkHEPaFrKD2gdf5qvPwo6rF53vh0C/1PsFH7qtQPAiMRGrxB3pM2clDVm4R+AUpiAiJQhprVRUiJz0VoZeOwDfqLd6+Tcd75hpKUW4WFC098fj8fLQvtYh+xX5zM6IRHPQcb0ULQ34ywh/eQ2BYPDK+YLvSJ4fJ4Q9xLzAM8aUuZtzDHiIoKk1gDFYc73JU00AT3kV4nI4TGCxZuHbIB7kNtSD95gkeyRpi7aZN2LRpPeYNbcKcJ8h++QDJraZjjfM4NLk1DfY7YsDjZyDyQTa6Ll4P11m9kbJpPFYzxnjedUdY7aqGKUfv4oZ7NwTNngKPhA/wXWqPU01ccCk4DE/uncKcbjUA6UYYPGc91hrL4yl/INw2LIKhZjVU0zKD88ZNn9yZ+Kyx+Qv9OuVh5+LdxU8nMy7C1S0Srfu1qmC90g94l6uK8QcCcN/zT0Q4LsLRKrI8KH17QT+QYOEn4fJhXyTEXsSaPfeRn3YPexbYwHj4cJjYOeN4lLBQEeSE/oOZY81hPW8P7ovtkAoRc34VJpsbwXSCC05G0TpQwLi5YYqFEYytHeH5pLirLHq0H277j8J9mjkMzWfAI/AZLqwcD2MjKyw5Hcs0rUV4tH819h3ZjL9NjTBm9h48fF8mzKI4XFwzGWYGRhi30BMhjNf8pMs47JuA2ItrsOd+AXMJo2uyGQyMxmGhZ4igo85DuPdi2JqMhLGtEw4J4lQMF5E+a3EiqhDJD/wQmfUUe1dvg/v8sbCY44OYvBicd5sCCyNjWDt6ovhWGlc37D/qjmnmhjCf4YHAZxewcrwxjKyW4HRZ652fhnt7FsDGeDiGm9jB+XgUk0qCNDl4HNtnWMDYYjJWnY9DUWYAtjl74ZnAC97zo1jBDP5KIybdKwgDeeHwXmwLk5HGsHU6VBL/OCa9JpsZwGjcQnjShPwsYspCURA8XLxRbD8yg8VTrtjm/x5Jlw/DNyGWySfmOmFR+pfAkZYGR0pwIAZu+FqMmXISqVXI1qcf9dAPvH4X/OwH8DxwD1kVWT8kB+F+iWg5dTbs+ginbfHx5uB0OIa0xJiJVhjQQjDlg5uD1IQkpBcvUML0HXWh3loDaef3IeAtETj+KqqjjdFszBrMQeCDxG8fbP8G+K/3wMTCA2nfZJEydT3cD4ktp2K2XR80FiwlyX9zENMdQ9ByzERYDWiB4hzjIic1AUmfMgx11VtDI+089gW8ZXz6tVRvY4TZswaDE/gAiT8tw/h4vccEFh5pv9zgr4hK5zf/NfaYWMDj2wrGV8GhXzQWk4v7KwdB33gRNqy0QrcO1vBO4KHooTP69jPAyEFWWDzPCN1M9yAmxw/LjQzhfC0Jt92M2C/0xmx4yPhRiHvrRmHEkH7oZr5V5HVxxX736zsMhkbTsWrecOhbeSOF0cx7sQfG+sMxf8subHJegSNRnxk28V5gj7E+hs/fgl2bnLHiSFTxqJj7HHtH9YTB/A1YZdsL3R3OIzW3oniLQx79jPoj8fJ5vKI6cm7gwuN2MBpShz3LUWiA5tra0NbWglpd4VZcUqihrAqd9r3RU0cBBfmCZ61SNZkKp422bbXRUFEZyoofcfvoVaiOn48BjWpAueMUTOkZicvXM8DjFiHn7VvkMmFyZGujthz1QAZ1VLXQvIECqsnVRzMtdbCbqck1gIaW9id3Ji7NGimi8ejlmMTbjRWn3iDE3Q1hI5hjrYoWm1VGd+tJGNJMAfLN9KBdMwsZeVWjytAvQOlXyCwcRTRvqwnF2lro0b4Wzs+2wWFpEyxxWwGbBn6Y6XQM7+l1/HT4XYxHj2mzMZy/H9ZTfJBaRk5BgBOMFoRBd/JizOr2EkvGuOLG+VkY4RgO3UmLMHdwPrab28EziQ/ui0tY4+SBdwNnY3a3WDgPtsSZRrZYMqkJfGe74moBFy8urcU89zj0mbMAhtgHy8nF5biYfNxeZIYlzzvCYbkjDKX3w3LSEaTVao62moqordUD7evexyKzJXje0QHLHQ0hvd8Sk46k4OPz7ZjqlorBTquxoE8iVttvRGhJVeCgXusu0KqjiGbdekFH8QUurFqLADV7TDFvjrC5I+AYrotJi+ZicP52mNt5IolP47oGTh7vMHD2bHSLdcZgyzNoZLsEk5r4YrbrVYHfxWScmg2bw9IwWeKGFTYN4DfTCceYRKZp4ua4B2kD5mLJWAWcneKI0/y6yLzmij13aZnn4tHBdbiV37DYIwHi0t3vqLgweHi+fSrcUgfDafUC9ElcDfuNoci+vQhmS56jo8NyOBpKY7/lJBz5lNDlEVcWip7jkucNMM0PAw/Jd7xx9ukHKDZvC03F2tDq0R5Nf9NueHnPfLB0gikMjW3hdOiJYFAkZhDBGPWig5/Y3Bx8YMoFHais3ncEm/82hdGY2djz8D34dCB56BriY4oHklXF1qfLMgmXuAP/PW7u8MAl3y2YbjkGM/Y/ZWoNQ34kji1lBkWmdlhyNKLYjZ/JlK3FmGBhgtHTD1IX9v7AvfNgZWwCGycvhOVSp5vY4XEJvlumw3LMDOx/yt6N3PCjWDZpNEwne+Jz3QqLlDwaaLdCswa0sc1DWnw0HocloknHbmhcux6aNlACMv3hvvAw4pQaQlm4w4ysJnqOHIw29UovEp0feQxLbU1garcERyOY+HCZQd9Ob5za9DdGmU2C+90M1ljhPvXEHFszGBlbYb5nKHKZ63z27cc2h/FYc9wHS2xnw+sFU4DFpQ/dtEVVBy1Vav+4DVvKhsOk9+3ty+AZSktTJu7uWoHDYfR3PiKPLWUG8KawW3IUVCKTE8h8dBCLJ1jAZPR0HKSPQBk9RzaeQgytg/n3sWeLH2L9t2HWUi8EB/lg0XQHzFh3pbgNFauxIqQg30AbrZo1YDf7yUuLR/TjMCQ26YhujWujXtMGUOJkwt99IQ7HKaHhpwyDZs+RGNymXundMsuFzUW49054n9qEv0eZYZL7XWQUZxg859jCzMgYVvM9EZrLXOezD/u3OWD8muPwWWKL2V4vmNZGXPowOabE2AwtVfDZjVW/ihyEHnZiwjGEsSXTxr7Pwu1ts7DUKxhBPosw3WEG1l1JYXKGj/eBezHPyhgmNk7wohWH5s0OH5zZPhvjLCZiEzNA+EwLW0nKxoePnNvi8puLp55zYGtmBGOr+Uz5YuKTcxvbZi2FV3AQfBZNh8OMdbiSUoTwIxtxqrgA4f6eLfBjjeXy4XwtHLpUFIX/5ghcvTWx7voFHD93F0cNw7BxXzhzhqAwTwMOZ67i1KW9MIr3wsnUv7AuIAAbhqtgwPJbePjwPq4492KurYG+Lr646zMZrUU6lc/6XaCNWacu4NTZpWj/+BaefAQ+PruNR3UNsWzbfqbw7cVU3c/0UB+f4fajujBctg37vU9h71RdZrzHdL6+G7EpzwZ7d63HlsNr0OHGNpzIGlJBvMUj388QfRMu4gIzbMu7eQGP2hnjL3ZBDoKM8zPQsU0btGnTAZOOC+dh8xDpYYUe7TpgRuxYrJrUEqwZWvQQq/u3gqr6IHjVHwOj5h+RnMJDI1VlQQWUQWOmwr5Py8GgVQdhmbEMfdr0gd3aK4j/lvkL1Vph6soReOZqjilntOE0V78Su4FxEXNoK25pmWFEk6qx2j/9oG7s2LGCIwW0aKvBGMQt0KtzW4w68BhHx9VDWmQIot7xwMtIRw4t/5w6GDF/Ocy6doXZshlo/+AsbqW/xetXr/Dq1WukZOUi5Lwv6ti5YlL/juhh647zB6yQzpRvlSlrMbFfJ3QfswoL9INw4momG3KNbjaYN7IregzriWZNB8DOqifa9xuI9tXfIY3mj1RtDFvgCotuXWG+fC46B53FTWHLXRiI42ezodo4A4G+/oiRV4HM9dO4Va0F2mowBnGLXtBNPo2z2aponBEIX/8YyKvI4PrpWyioqYRa6ffh43URL9UW4qa/M/RKqgIHf7TRR4vaitDs3het63CY/rsbzG36one7NFy4qoIpayeiX6fuGLNqAfSDTqBYTg10s5mHkV17YFjPZmg6wA5WPduj38D2qP4ujfVZSG3TA3h8dBzqpUUiJOodeLwMpLOJzHQhPewwz6AT2g82Rb96qXid2QLmxn/g8pGbyC9iNF+rz3Qk6uy1xRSJSfcJ6DxKXBgENZVqIf2+D7wuvoTawpvwd26Jx8fPIlu1MTICfeEfIw8Vmes4fUv4lEcM4spCBZcrtGgLDcYgbtGrM1R+h0HMe47tU9bgzUBHrFrQB4mr7bGRGf0U3FkMkwXMQE1kEBGY/7xk8PO3WWu8v3YQvjFcdqCydp474vrMwQJDYJ/V3/B5KwfNVupQUG6BrnqN2baxKmBoaMguo1VMNp4cd4LT0VqwWjQSWZvdcCGvCPeWT8GROn9jo9tY8HdOh3vkR7w9OQ3jveUwevlmrLTtzN6dfnIGplzSxIxNq2D+cTvsVj5AUfYTHHdywtFaVlg0Mgub3S4gr8AfSycdQs2xq7B18RCofM2GNEVP4b18Kbbfeo2w48uwaJEzDoUwlV+uJQaNHgnl0HMIfv+ZZ4tF97B8yhHU+Xsj3MbysXO6OyILY3HNzQWn5O3gOkEWnq7Fg3ep2nownbcRO9aZMGnhjGOpcfBdsx9v2ynitMsNaGjHwOvqKzHpw47yfjBi8uG5Ejp0lsL+qUtx7rgjHP0ao1srWUbickw5Ugd/b3TDWP5OTHePxMe3JzFtvDfkRi/H5pW26FxXiulqYnHj5B0k0+gWPsOl08H40GIARo/sgAZN9GFqaYkxQ3ShzBFXBiqrsQhPvZdj6fZbeB12HMsWLYLzoRBmeCmHloNGY6RyKM4Fv//M02BxYRci9pobXE7Jw851AmQ9XeFTnGHQM52HjTvWwSRrM5yPpSLOdw32v20HxdMuuKGhjRivq3h1p3z6/Iwc4ycdxPxNuRi16R/scB2H9rXkoTWA0dyhAZrom8KSGXQO0WVsj/STmDHlEjRnbMIq84/YbrcSD/Jj4bvWGT7EFIunNcaZ+Vvw+EsDxy9QPj4c1NQSl99SqK1ninkbd2CdCVNnnY8hvaYWBjD1q0ODJtA3tWQGt0Ogq8xH7I2TuFNcgPDs0mkEZxCx4XwtHLoWG4Ub/xKvG+tCT4Ee1UCr1prISEpiz1XTaIcOdRnPq6lApX423qd/XTZ+zm9ptbbQZTpz1JCDnDRj2DAlVHaYC9z7PMPMbjrobOKMS68/E57sMLi498Gzmd2g09kEzpdeM4WMj4yYGCSFeWKWrQ1s7LciuqkGFIq+8mWIfH8Y9UnAxYtxuHXhEfSMBqN4gTom40ZswaPwcISHP8ZuM+GyddLQstyM3XO6olqRPBpTXRQZfTjeiMCrlGdYVXMTpu9KRM0aRcjNEZY0HrKz8lCLGZxI1++Ned6P8OzKQjS/7YAh828Krvk65HvMwzTVKFQbuxgjaN59Fj6Sz83A6F0N4Lp7IjR/185lZRCuMVsOfjouz++LXqNXwss/Fvx69ViDn81dKTkoKAq6/eoKUOAUIOuOO+xtmHJgMx6LT8Yji0lreSUmrek1jNHUTFcVJK+QMRoUBQOUalBSkEVBfgGTMlKQZRoUdi0WaQ44MjKozl4kBSnha2opRdStKxje0zClPyBPuAEkyUJWriwUlGqyC4rLKnSGnYsl2oqkMcnKQq6sApRqMueZaxQ628HFsi2qq9rj8IVl6EFCsN+hP/T6u+Du5x6RyMqjJvWXl4vcQgUoKwryvZoSFGQLkF9AG29Z1JIvXllGmsOBjEz1Ys2MmNJv3flIvzwffXuNxkovf8Ty66Hep0SGTM2axcYV4weHQ0CINJqbmUDVzweXrh/DDRVTGJcaWBEx6a4G7lVxYXCgan8YF5b1AAnZD4f+eujvchdpzGBGVkEJNWk6MunV2c4FlqIJWRYxZSGfyRcpkW6Qro9ZJWDyRVE+HfePeuNKrAYcb/nDWY+PkLNXocx0VKKDCG1GknDw06ertshgl2mXhi2Aq0U3dDVfjrmdAnH2ZnVot2sGpTpa6KuvVmUMYrrGelhYmOCIQbodbJYyBpPOSCz3dESvanHwD4hE5LF5GMfk89WkV4iOzkPQtTB0nDobA7RU0Kx9K+bGQoQGREF3nC06qWlj8AQDyIUEsd9pSLezwVLGaNYZuRyejr0g/eImHjY0w5TeGmjU9A/If2aaSTlkumHGvsNYbqCJLpP3w9vbE3N71WDcG0BHvx1UFD7vGS/OHwGRkTg2bxxT/68i6VU0opmyKN1kKCbZdEbzLm3RND8L2UzR/JD+CN6LrGFhtxa33mQjO48PjmZ/GHStjz+6DoOhqhz4jDFdPn1+wq6zPHH58BHyXRZh27B7sJyVgb+326IZ03fH+QcgMvIY5o1j2q+rSXgVHY28oGsI6zgVswdoQaVZe7QSzmUoQ7UGTF+v24Sprypo36Ur9Ns0hmwFYVcOGXSbsQ+HlxtAs8tk7Pf2hufcXoz1IYMGOvpop6JQpr0rQ0VhSzfB0Ek26Ny8C9o2zUdWcYbhkfciWFvYYe2tN8jOzgOfo4n+Bl1R/4+uGGaoCjk+Y0yLSZ+fkGPgNBgIizaPsNhuNtz9XoMrXY3R3Bm6TRSgqNIeXbrqo01jWRSGBiBKdxxsO6lBe/AEGMiFIIipONJNhmHqxO7Q0h+GHvwXePHFKaufp3x8KshvfED6I28ssraA3dpbeJOdjTwOU78666KJgiJU2ndBV/02YKIuFnHhfC0c4dI31ZqoocHrUIRk06M8BAe9RFPt0mtE8jMC8ShRDVrqtFmVgnQ1gtzs3OKTn6EyfpdCRhMjXY7iXuQDrFU5A8ftjwQnxCEDzZEuOHovEg/WquCM43Y8KqKvjVRQV9sGe31vsGvZ3ri2C+M0aApVPt502kR/o16IPbMCB4PbwPDP4qfpn0Nati7ajF2OCdK7sfoc+xL/EzWUUUexOmN7yKJ9R3U8uuxb/Jo/5x7O3amHXr0+vbKRbzYE0+17oygmWuDylXCU8Ec9efzRsGGxAVIhfKRcngOzlYWYd3IHjKrI02EKXR+7T58+giMGarQRZiRYdA/Hjslj8slz8Ny6DEZ/5CObywyDqJ3DS0Hw3edMN8mUtJAAPK6ji44jVuAKLQM3rsHDrhVattFA9P3bxWmfeR5TujsgqZkqwm7eAvusPz8UNwKloNW6bkl+fBZ+EoLuxYC2GwVht/FYWQ/t2MEfQ/XWaKuVC66qGaZOm4YpI1WQlZwPDjVqGD2E8JlL2kIrlwtVs6mYNm0KRqpkITmfA37QZjh4SsF6wxFcf+wD88zruP25waGQGq3RRjUMN28Vv7nID72BQCkttP7iwEiUItw7dgzyk0/inOdWLDP6A/nZXPDYRBYPR9UEZi0D4LLAjzGOR6JhqeCqi0l3O6w7JC6MQgRtdoCnlDU2HLmOxz7myLz+AMqttZDLVYXZ1GmYNmUkVLKSkU8TsiLElAXdWkyXWJSONFr9+SkIj0gVPKWhAxzGsP9d9jFHDRO9LmBZdx6CPaagn25/uNzNEzOI0IASTVfh4KcUUlCsW1fwqrw6FBSkkZ/7M7rc70dfX5/dAOATwgGmLFT12qBRdUUoK6vDfKsv/BlDIvjlC3iMkIOSkjRSEkU/fJKGknJ1pCYXv9otTExEXv1GxWkkHOTJqkKvTSNUZwZS1bLeg04lz3oWgcpUpR+FFJ0qp26Orb7+jKEVjJcvPDBCbMeeiZPLNyLf7jhuXt8HmwqnutUSkz4VWArfAzPYFxtO5h0cvFoTwzq9wrEzL8GlZU9ZGermW+Hrzxj/wS/xwmME5JSUIJ2SyKb5J5jM4RahkGlKCuJfl0wvk2IG11JFhWx9Zako7F/BV4SdeXI5Nubb4fjN69hno1Vhf0sfeJVNn5+iplpL2B68i4B99qh7bgJmnaSNnRQ4HCkUFZakLqSZdqV6anLxR/6FiUjMq49GbMURkPsKSVIN0fDzBsSXERsfMfmdeRLLN+bD7vhNXN9ng5KiL8UBR4opL5+izpQgLqOFLUB4LSxAFYTzNXDoTh7sD9WxWGgSielde+GvAT0x5akRXCY0Z88V3V8Ho7/+Qs+ezsictBgWDWiiVUenof0R49If/YcPh/HKAKYDisGuUe2hZ+COkNDtMNLrjFkXCz7rd3n4SD5oA/2ef2KEoQXm+dXGyCE6gnPl4ScfhI1+T/w5whAW8/xQe+QQ6DA9gtzg2ZgltxX9Ow/CSCMDDBm7RbDqhZh4fwY6baLHM2/46xjikz0sOmWiHUy2RQncBTCdm+X0Xni4fhfYj4zYKRPtoNu2D9YUOmANo11r4nKMejkH3Xv/hX49pyFq1FpMbfka/4zVR58hI2E4oh96LoyDxUzjknTtOP0Mkm84obPeMKwN+c73GEIKb2L539vxLOUeXIbpsXpMtz8XnPy90DWyhVN6KJwGmmgStxcTl6Whx58p2GwwCEMH9MbEO9XQ+H1y8Ss4jiI+XLJHr359oG/zAEPWTCvzcScH6rbLYf16Prr3+BN9+zgiepgdbOauhkXMTHTtNhB9uljievc1WNCnhuCeLyGFZC8b9O7fF13G3kS/ldPRQRimdHPYu05A+pIe0B80CF0HLsTD2s2hWo2DBppNELd3IhaHjYTrhHQs6aGPQYO6YuDCh6jdXBVyLTujeeA89OozFEP7T0VAR3uYNa9E6yStg6mrLRAzsyu6DeyDLpbX0X3NAlRaDosMOg0bjJTNBhg0dAB6T7yDao3fI5lN5ArgNIKhWVskvm2PUcPKrl4jPt1tjcWFIY2WnZsjcF4v9Bk6FP2nBqCj/SgMmOSKCelL0EN/EAZ1HYiFD2ujuWo18BM2o3/D0The9um5uLJQqxfM/nqOJf2Y+t9zDC4U1BcYmw2g2SQOeyc64nTZSee/gqIgbHbwhJT1Bhy5/hg+5pm4fjtFzCBiAk5UuFImH0lB9xBTPDLD7cfK0KMjM+FAsviiKgHdTYuuM14hTH6YTO0KX5v+MLaygeVoZ1zMlIG+/d+Q3zkY/U1Gw8x0OXNhNbSzmQRlDyMMHWWMIY6vMWbmcMZcLI90MwOYVPsH5gYjMNojHvKfGUtVFm7oVozpb4hND55ir/Ug2O19gUIxbqSBCaZ29YVNf2NY2VhitPNFxvQVhxxa6Mjh/gZ7GI9YgMsVfeDMqScmfQTnfiTi8uF9Eo7PmItI8+04dGAlNPbZwflODhqYTEVXXxv0N7aCjeVoODMRktG3x9/yOzG4vwlGm5li+Q3GqpHRRY8mfphvYgzjFXfBrVb8rJbTqDt65OyAuelYjJ3vgwQirgywl3473FBsHdMfhpse4Oleawyy24sXhWLcviJsuRY6kLu/AfbGI7Cg4gxDPePy6fMz4EbuxngDU9g7ueNiSgvo61Czm4NG3XsgZ4c5TMeOxXyfBEi1s8EkZQ8YDR0F4yGOeD1mJoYzFYeXdA6Lx4zCsL/WgjvJAb2/qt8oj/j4iMnvGi2gI3cfG+yNMWLBZZSkJNOvdO+Rgx3mphg7dj58EqSh26MJ/OabwNh4Be5yq7ED34rC+SpevXpFRMlLiSaRMWnkg+C48M5s0nbIJhL+Moak5PIErp8ofB9HIp69JMk5XIFLxZT1u2J4JC81lkRGxJC0AoHTZ+DlpZLYyAgSU+7ijyQjIZKEh0eR+HcfGF8/8TXx/nl8IKkx0aXjwMslKdHPSFhkAskoFLj9RwkNDSXjxo0THBVT+I4pF3HppJAUkHexz0lcurgCwqRrbBx599myw9wfV/Z+6mcUU46+XEI/kUeOmKkRq1MZbF6+EVNHWArfk/iolyQp86PAgVLIhBfJxKE4owvfx5Ool0mk1CVsGYkgUYmZ5KtLasE7EhvF1KGvkVOGAia9nzPpXYlqyJJ7wZ7oT7xIcgXH5Smf7hWG8SGVxEREkcRMUeWF5H18FHmZlMnUbiHvyJE5i8kNsZEUVxZ4JCc5hsQL0r2EQia9IuNIWWc9PT2yZ88e0qlTJ4HL9zFgwADWP3V1dYELJZsELO1JNLR6kiFDupNWemPIgWhGd/Zd4jpQi2h3H0T66LYmg1beJpl5h4iRmi05x+aroPyd/kDyjpiSPzTakC76/Uiftlqk+7zLJJUpjryUg8SoaXPSZ94pklJB8fzVzJo1i9y4cUNwVDG0bY+Jek5i3+R8ym9uJkmMjiZJ2SLlgptL3sTFf6HOMzDta1qKaNmpAG4MWdffmOzPFhz/EGi/FkOinseSNzmfiwFTRxISiNimrQxi04eh8M480m/SpS/U24/kqctAYn2iEj1yBeGUg5fHtFdR5HnsG/JJIpdkJkaT6KTsT20Yk4dJMUlENAtZaN6+fEkSRMRXLmwuiVnXnxj/2AyrtO6Cdwml4lwhYtOHofAOmddvErn0BS8+PnUhA61PCI4qpjAjkUS/LF+GuJmJ5GUpdy7JfRPH2EcChw9nyfhuDuRsdBxj75XNnPJ8b3zK5TfTZyUkiOtvaBl6SV6WnGOOk2JKtwEMFYbzGaSlpdn22MbGhiA/P1/gLB7WIB66i6QJjiVI+FVkZWWRJ0+eCI6qKp8Mkv80vHfEd709GdKhH3EN+cUjubxwcutecqkB74/k1xjExXxgDKaIqERSagxADaRyg7fy5B0xI2pWp0gG40f0m9zSDwBKBpJVg2fPnpF3794JjqogvHiy3UCbtO/Vj1jtfCZw/DfwgVx2HEB6d2lNOs2+/gWDmEsi1psSh/P/D20Xj8RvNyDa7XuRflY7ybPPWu1Viw+XHcmA3l1I606zyfUvGHLciPXE1OG84OgnUHCFzBy2lNyvZEPx0+PzCxA1iKXevn1L6tWrJ3heLIaCt0h4LwOVxkoQmV0iQcJPJy4uDmfOnMGsWbMELlWTnDdxyFPUQMP/9E60XLwJ8Ud0zY7o0VK4esr/B+3atcPUqVPBNJoICgoSuH47AwcOxKhRo7Bq1Sq2jP8o8r3N0eryGER5Gv6cuYk/EA8PD3Tp0gW6uroCFwkSJEj49VSrVg07d+7EvXv3RNchrgDZP6AmMYYl/AZo2czJqUr7a4lHodF/3RimVEOj9gPQ6//MGP43ITd8C26uHVTljWFKXl4ePn6smh/8SZAg4b9JyTrEEiRUNRo2bMg+SZMgQUIlUGgEjX/JyIxuitSsWTPBkQQJEiT8fjglO4FJkFDFoK+T169fLzj6DRTEIyKaPqHmItTLDceK9/utOnBD4eV2TLAN8Y+D9+IUVjsfQFCewIGB9+I01u65XbwzkwgVuZeF/z4UJ9bNxYSxo2HtsBI+T4p35RIiNsyEi1jvtBALFzrC0WkRnFdtx8mQtyWL2edGncOGOeMxZvQ4TGXuvV+V9iaW8Fno9JPQ0FDBkQQJEiT8fjgKCsIFUyVIqFrQue2DBw8WHFGKEHdxDSabGcBo3EJ4hmQBheHwWuoiOP8j4SJ87RhMOVm8Ti1HWhqcz67k/jvgQFqaU7zW6g+jEA/2uGKP52q4nfy07z037gp2HwlEZplliCtyF4X/5jQm9bHAgWxdjJrqgDHt0+A+8i+43C/Zzk9smLzEG9h3MgH12+pCt21raMpFskvtLbpbAH7qUUw0csMr3TGYMWciBsqege2wpbhXVfYmlvBZevfuDRUVFcGRBAkSJPx+OHRzAAkSqiJ0jWzRtUrzby+C2ZLn6OiwHI6G0thvOQlHMrTQoe4dnIimZmshwg4thdtFuguiGOOZUhiD86smw9zIFBNcTiKKscmKgjzg4h3BmMAMvFicct2GmxGXcehaPGIYP/YwhltRfg4+sBcUIOa8G6ZYGMHY2hGeT6i/RXi03w0HT+zATAtjWExehfNxZbb3KQrC3tXb4D5/LCzm+CCGV0H8cp/Cy2kcjI3HY5WPFzZt96c3I8jDBd6CR8G82FNw3ca484uQn/OBLlGOoL2rsc19PsZazIFPDA9FcRexZrIZDIzGYaFnCFjf857BZ+kEmBoaw9bpENiolyXvJjwvNsTM5X0QfvAI4r/7oWsRHm5cgoDeW+GzYhwGde+BweM34ZBLV6RFCD4o+0yYHOWWGDRqNEaPHgPrmRuwbEQurl15hg8Rd/Co9jBMthwA/U49YTR/M5YP5iA5TfKU+N8ArdfCNfAlSJAgoSrAycoS1ytKkPD7SUlJwYkTJwRHhQg8fhbZqo2REegL/xh5qMhcx+lbH6HjsB1Oc/bjedBaTF6dgOYdG4kxnifDOyUfdxabYEG4LiYvnoVuL5dgjGsguM8vwfNGQvGreF4y7nifRbiUOlqpK0C5RVfoNQZeXDkI3xgusq7MwgjHcOhOWoS5g/Ox3dwOnklFeHHJDY67U9F/7iKMVTiLKU5n2FiXwH2OC6vWIkDNHn+btYPiPXHxy8LlOeZY93YAZi80ROH+BXA++ZTejOeXPHEjodjY4yXfgfdZxp37AlcO+iKGy5y/sAprA9Rg/7cZ2inewyKzJXje0QHLHQ0hvd8Sk72TELl9Cta8GQjHVQvQJ3E17DeGFg8CRMi8fBi3dMxgYWaFISmHceDpd87H4L3G7fvp6Dygu8hmCdJoZrMFO8e3Zo8qGyY/IwQBTz5AtVlT1OxkAuNCdwztNxZz3fbj4lMZGLiugKmqxMj6N3Dp0iXExsYKjiRIkCDh98P5448/BD8lSKhaaGhoYMGCBYIjgqysXMgqKKGmrCxkZRXQ2c4Flm0ZA0i6EWZ+XI3eBl7QWb0ORg0/ijGe/XDa7wHOXlWG3cpJ6N+xB2zdz+PABG2B/2VQ1Ea7Zkqoo9UX+mrCLa0KcffEVahMWYuJ/Tqh+5hVWKAfhBNX6Y5DsuhhNw8GnTpisGlf1E15VXyLCFLy3WBu0xd9umrgmbj4+frj7HVVTFhuhZ5dRmDRYjOoVNa+k5JHN3Mb9O3TFRrPjuNstioaZwTC1z8G8ioy8Dvtz2iSR/r9o/C+EgsNx1vwd9ZDqc26+Kk443UXLQd1RmFaUwzslw8fD3+U3QDuqyD5+FAoCzm5CoR8IUxu5C6YtmuDtm2Zv94z8KSXOzZaNgBHoS9W376PA4xR/THUC45DW6HFoFW4Kxnf/yuYPHkyu5ydBAkSJFQVOP+GZa0k/DehH3xeuHBBcFQdrdtqIZerCrOp0zBtykioZCUjn1MNmX6L0FpbFpl5daCpTpcIFG88j22di6w8eSgpFxtnnDrNoKuhxPySova2AD74FX4gxkNubiEUlBUFS4tVg5KCLAryC8GXkkHNmsXmJYcjDWkiZlKtrDxqskFXFL8PyC2Qh6JCse/SdeuhjnANs1JRZOIo+PkJWcgXew6SlYVcxk+lmtRvWSh0toPLWD1oTPTChWXdwQv2wJR+uujvcreUsct/dQxeD6SRenwabGzGY0NEdeSd3YsL7L7B30g1FbRQK0B8bHqpOBeFHMKqQyFfDLOazmSceBKOsLBwPAt7iLNuJtCsxkfyzb049EQRvaydsOWIH57G3MUM3ja4naxo61QJVYkbN24gISFBcCRBggQJvx8OEddxS5BQBaBl89M62dJobu+KCelL0EN/EAZ1HYiFD2tDU/4qFswIwPQb/eCxphEOTF2HkMIKjGeZVmijEY37t4utrczzU9B9wgmghgyK0tOQy7jxU8IRIVitgM6vJ0TUjKuB1m1UEXbzFjLoYX4obgRKQat1na9ce7ei+LVDR61I+N94T81ypNx/iGjB7IEaMkVIT2NjiJTwCHxuQYXqrdtCK5cLVbOpmDZtCkaqZCE5n4uQzQ7wlLLGhiPX8djHHJnXb+N1iT88PPf2QfyIbayxwv75nYdTq5vYf+y1GFCoDv4AAEmlSURBVAO8sijjr7GDEbPHDdfTBL4UvsD+ZUtwNo58c5jVky5j6eK9eCa06GUVoSQvB3n5yj5Sl/A7ofVa0vdIkCChKsFRUqJPyCRIqHo0aNAARkZGgiMGpR5wuvYMwSe2YefZIISfnwN91WHY/ewJBmx2hdXkzVjS6CD+Xv1YrPHcXL05bJdb4/X87ujxZ1/0cYzGMJtBkO1lhr+eL0G//v3Rc8wFFNSnRhUHDTSbIG7vRDieTi0OnzHKdaauhkXMTHTtNhB9uljievc1WNDn04d/lUO8cd9cQxv2ayYizakHeg3oBaPtzwXXy6KX2V94vqQf+vfviTEXCsBGsQKkm9vDdUI6lvTQx6BBXTFw4UPUbt4cbTo3R+C8XugzdCj6Tw1AR3szNBf6ww3B4WPvMGRMP8gJnMBpCjPLbgg54IkoxnD+GLIRf+m1QZs29K89xu6NZ+ddV+QupM7IdfAwfgmHLnroO2Qwuun+id21l2LvbP4XwxQPB3+MXo/1bc/DpH0XDBo+DP06DsaBJiuw0kSyrvq/Abp6DJ0SJUGCBAlVBalXr14RyfI3EqoiT58+xcaNG3HgwAGBy9dShIyEOKRXbwj1xkqf5ssWpiM+IQeKauqoI7Rl+bl4E5+OGk3VUEdG4Mbcnx4XixwlTah/cmQoZNzjkVVLDZp/fM++YBXEj5uJ5Dd8KCasRFcXDYT7TmOd+blvEJ9eA03V6kA0NhVRlJGAuPTqaKjeGEpCzwvSEBuXgRqNm6OJ0q99msrPS0VcwntwGmhCo+7XDiLEw8tNQXxiFqo10IBa7cqkytfzb9m6+d/EnDlz2M05+vXrJ3CRIEGChF9Pqa2bJU+IJVRV6BNiQ0NDwdG3IIPaatpoLmpsUmrUhbqWiDFM4dRCI01RY5gig7oaLcsYw5QajLv2dxrDlAriV00ZjVXKG72cWo2gWUljmCJTWw3azUWMYYpsfWjqaP9yY5jCkW+AZq10fpgxTJGu1RDNWmr/NGNYws/hzz//lDwhliBBQpVCModYQpWFls3/cvmU6eSIiwesBEcSJPz/8F+v2xIkSKh6SFtYWCyjT4mLioqQm5vLPj6mK098/PiRvYCuU8zhcFBYWIi8vLyS81wul23Q6Hm6wHpBQQHy8/PZ39nZ2eDTL+GZP+H5Dx8+sH/0N3Wj5+iHFfRa6if1m/ohPE/9pmHQ89WrV2fP0zjQuGRmZrIfPNE40rjQ+2ncqQbqLjwv0fTv1vTkyRMcOnQIf/311/+NJuo/9YeG90VNRVKoW1v+/0vTD8onGifKr9C0b98+dOnSBY8ePcLEiRPZ89+Dp6cnO986ICAAdnZ25TTROHyNJnos1ESvo9d/bT6J5sPn8oneQ899bT6V1bRlyxY0atQIysrKP1wTDYfG51dr+pn59K2ahHH+Fk00brR+SDSV7lMlmr5ek2j/U9U0ubq6stO3Xr9+Denw8PBldevWxf3799n5mrShpnPbnj17xkZs2rRpoGsV+/n5Yffu3dDR0cHSpUsRHx/PRnjmzJlo2rQpzp07xzb0LVq0wMKFC5GWlsZGdN68eWjWrBl8fHxw8uRJ9jXZ7NmzWUHJycnsta1atcL+/ftx+fJlqKqq4u+//2YT8OXLl1i0aBE7h2/btm3w9/dnG9FJkyaxOx3RvfBXrFgBPT09rF+/HsHBwaDG/ZQpU9h/RTVR0RERESWa6tevL1YTTdRZs2aV0qSlpVVK09y5c9G8efNymmhii9NE52jTOIlqat++PbZu3VqiiXa0dImssppoJ6yoqFhOU+vWrdl8EmqaPn16OU1LliwRq4kamaL5lJGRUU6TpqYme09ZTdQ4EKdp8eLFbD4JNTVs2LCcJnpenCY6d2fTpk0lmiIjI9lC6+joiAEDBiAkJITV1LJly3L5ROMhqomuWyxO06lTp9h8EtVErxWnifLixYsSTe7u7qzxUlbTypUry2miZZd28kJNwrIn1FQ2n4Sa6BJUVBMtR6L5RONfVhPV6e3tXaKJ1kHaACUlJZXKpytXrpTUJ8rz589ZTbTsiWqi9YlqogMQoaZ169axmujW7jRNateuzWravHlzKU20QRNXn2jZE2oS5tPZs2dLaaLL6lFNtI2gbkeOHMHp06ehrq7O3iPURMsBLRt79+4t0STMJ6GmDh06sJpu377NTrURaqJlh8aV1idRTXROsDCfqCbqf1lN1B+qiabLzzCIr1+/zraD165dY9OH5hNt4EU1UcPxzp07bPrStXtr1qyJx48fs/VEV1cXa9euZeNVq1atEk13795l76OaaL2j/tEOgZY9mt80vH/++YctezQc2hHQzoKmOU1bmgdeXl5sOZs/fz7S09PZP/qb5hM9d+bMGTafaNmj91I/aD5RXR4eHmwYtByX1dSxY0c2vemmO127dmXjJCcnV04TPRaniZZtWkaFmmbMmFFOEy174jTR8kXjL6pJWPaEmmh9on6W1UT9FqeJhkXziWqi+UT7Slr2RDXRsidOE72ellmhJtrmUH/LatLW1i6nSU1NTaymd+/efVETbSPEaaLpKapJWPbKalq9enU5TbQ+imoSlr2ymq5evcqWj7KaaLtXNp+oDlFNtDyK0/Tq1aty+SSsT6KaaLtXVpO8vDxbf8pqou6i+SRan4SahPWprKbExER2cCXURNtpqonaQaKaaJ6JaqL1iWqibaZQU9u2bdlvF3x9fUtpioqKKqWJ1o969eqxbQTNJ6EmWp/c3NzYdlCoibbltJ0Ualq+fDmriSKqiba3oppoe0w10bIn1CTMp/fv35fSdPjw4VKahPnk5ORUShMtezTOtM2lmmhfKCx7Qk3CfKL23Zo1a0o00XaZanVwcGA10f5MWJ+E+USh4VMbS1QTbYuEmqgOoUEslZqaSmhjK0FCVSMmJoY1ZukAQoKE3wUdINCORPJR3Y+DPuDo3r072/lJkCBBwu+CPqgq+aiOjnQkSKiK0LIpIyP5WEqChP83aCdEnwpJkCBBQlWBQ18fSpBQFaGvtYYMGSI4kiBBwv8LdLk1+gr418NH6q0DOBkh2PHmXwQ/9RYOnIwQHP1+qlp8JEj4Xjh0Ht+Php/2BDcCk/Hva3IkVCXo62Q67/P/Am4ovNyOge2HC+IREU23TOci1MsNx765c+Yh9uw6bL78mt0IIzfqHDbMGY8xo8dhqvMB3Bfdzo6fibCTazF7/BiMsZmG5Qfu4Y0gWN7ry9i81RdvRLaG44Z5Y8W+h8hjfH59eSOcFi5k5x46Ojph6Up3HA9++2nzDf57hJ5Yh7kTxmK0tQNW+jxBButX6XuFf06rT+NFUSzOrtuMy5+2ypPwS/n6slcQHwG22P4A6FxzOg//6+Aj+cZ+nP4uY5aPtAAvnI/8Hj9+D/y0AHidjxQcVUBuEA6vWoEVq/bjbrpohX6Gw86bcOPt5/Z//Dq+Kz5fTS6CvY8gMEtwWA4+3l5ZhQm2tpiw6Bhif2GzwntxAQf8Xn1qD6skhbi7xR62tuMx+0CYxDargO9Yh5iH5z7O2HmvSHAshIc4z+kwmLAdT6pkqlcUbzHw3+KO+0QM7doOunqdMGDpDaZYMeQ8wb4ZRujdqQN6mTnj4iumKvCTcHz+LHjFC6pFxgUsmeLBBBeHw9MMMGzYcBiO/hurzkajoPgKxpsDmDWyB9q318cgm614wHQ2RbfXwHTYUAwdSv8M4HAoVnD1fw86ud/c3Fxw9G+HA2lpDqSYpih87RhMOZnKNqAcaWlwvnnWEmNwXvfAgTuMX6lHMdHIDa90x2DGnIkYKHsGtsOW4h4tbEw5vjx7AAw3v0Izg0mYOq47OBfs0dt4JyKYasBLvoX9B28jVaS/Koo6i23HnyCfCSP51gEcj62Ltnp60NVtDXWZp1hrOAwrHzE389/g9KQ+sDiQDd1RU+Ewpj3S3EfiL5f75e6lH63QP91WTaHIf43rHgdwJ1Wy9NbvoQgRZ3fiwotKNtLccKwdMwUnP7dn+FdAP2KhHxkJ4b/eAxMLDwh39xYPF6+v7cKxsEq03f9VqtWFemsNpJ3fh4C3InWLm4PUhCSkfxAcV0Dl8uErqCg+Xws/Gw88D+BeVkURI8gJ90Niy6mYbdcHjX/hbJyPUWfwz6UEtj3/PHy83mMCC4805tevpjraGM3GrMEcBD5IrERc/5uUWYeYj9xXoXgQGIlUodXGK0ReARf8ghREhEQhjW2LuMjLSkf4lSPwe/kemZlZyMkvbli5+bmoa3sYTy8uRIdSuw1U7DcvIxrBQc/xVrRtzk9G+MN7CAxPQOYX2+x8JIc/xL3AcCSUuphxD3uIoKg0pvmnVBxvcRT6LsH4Y42w9GIwnoYE4NhMfdRAHq47WmFXtSk4evcGNnW5jxl/eyCBl4uYB/fwMrs4PfkFCQi6w4yeSTZePkhGy6kr4TS2MW5Ns8eOGB74qcfw96gdILaeuPMoAAendACdvMJ98wSPaozAqnXrsG7dGsz+qwnr3+coSI1E4MNQRMfHIYk2GLwC5OYJOw0u8nMLmP8LYNI17GEQooozkoWbn4dCPg+ZsY/wKCaDrSzc/ByIJg09LvHyF0GXRaFfgX6iEDHnV2GyuRFMJ7jgZBRzjp+Ge3sWwMZ4OEaYToDLqRfFg5a8Z/BZOgGmhsawdTqEJ+yThSLEXVyDyWYGMBq3EJ4h4h435OGZz1JMMDWEsa0TDhXfyNwah4trJsPMwAjjFnqCvbXoEfa7HcSJHTNhYWyByavOI45NIzF+8IuQn/MBRUmXcehaPGKYeOy5n48iJl0/FKXBd5MrTgkfa3DDcGiZB4KYelIUdxFrJpvBwGgcFnqGoHSMpaGqpsp+ycyLuINHtYdhsuUA6HfqCaP5m7GcafyS03jgPtoEx8udsf3CNkwd2Qc9+o/GYp+jsH3nCufjbyvROEtBqeUgjBo9GqNHj4Xd/G1w/vMNfP1e4cPDjVgS0BtbfVZg3KDu6DF4PDYdckHXtAjEseVH9N7iP4uRndGwuirUmHirqnLYECTQIuuDpRNMYWhsC6dDT9i8Lnq0H24HT2DHTAsYW0zGqvNxxW2Z2HJfhEf7V2Pfkc3429QIY2bvwcP3NHcrKNOMEZEdsgczLRj3CStwvjjDUBBzHm5TLGBkbA1HTxoPPpIuH8K1+BimDuzB/YKK/Ks89Ct84bJIObe3YdZSL6YP8MGi6Q6Yse4KUphoc596Yo6tGRMPK8z3DEUue7WAgkgcdV2PS+wbhnxEHlsKWxNT2C05igjRJuOb4OP9zR3wuOSLLdMtMWbGfjylfuZH4thSW5iY2mHJ0QgmVGZw67MP+7c5YPya4/BZYovZXi/A479H4N55sDI2gY2TF8KYiHPDvbB8X3DxwxB+Ei6u34HbTLLlRx7DUlsTmNotwdHvjzggq4meIwejTT2RepXpD/eFhxGn1BDKInsJ5YQehhMTtqGxJVz93iOrgnz4LsTFh6Zv4F7MszKGiY0TvGgCMWn51HMObM2MYGw1H56hgtzODcfRZZMw2nQyPKMq7quLkYJ8A220atYAxTJzEHrYiSkXTDm1dIUfrQvMwM57pzdObfobo8wmwf1uBhMbcWEzeXtkB3zObMfscRaYuCkA7MP1nFAcdmLKANOvWLr6ga1elIx72DBpFCwcduABfT1Wrgzk4Pa2WVjqFYwgn0WY7jAD666kiG97xcaRcS5bH5jrfPbtxzaH8Vhz3AdLbGfD60VF9YEDJVUdtFSpXemNnf6TJCYmMjYxJYfcWzmAtOo4jJiO6EjUdcaRI/FcUnhnDmnfeTAZ3nMgMRrQkmiO2E2isy+Qub06k5YNapJ6Wp1Jly5dyeBlAYwfBeTm0oFEv50aqdNlBXnGLfb5s353HEiG9vqTGPZuTjQsjpA3PEK4L/8hxm07kCGjrYiFkR3ZFvpR4I8YuC/JP8ZtSYcho4mVhRGx2xZK2Ks/RhEP83akw2AzYthVi3Sceo6k5lQUb/F8uDieqOv+Tc7FFwhcGAouE/vmQ8muFCailLzTZJyaAdmbFkVW9+pCnAVx5SVvI4Pbzmbi8YQs7dydrIxgEiP3JpneqitZEV5Eknf+RTSszzApU5q8o6OIJuP+QXD8eQpJ+E4jottuEDEfNYzo1lch9pcLmHSdTdoO3UXS6CUfThBLnfHkAuPhxygPYt6uAxlsZki6anUkU8+lMhfkkaOj25IhY0eQngMNSM/mLYn9+bckYnVPouNwozgeVEOndsQx8DP58BMICwsj9vb2giNGyu25RE9nNNl+PZjc8RhLdNo7Ed8jY0nzXo7k3ONwEnxmPunW2IgcTOeSKLfeRG+CNwl+9oDst9IhnZY+IVkBc0nH9jZkz60Q8vCkE+nbyoIcoQVOBG6UG+mtN4F4Bz8jD/ZbEZ1OS8mTj3kkYG5H0t5mD7kV8pCcdOpLWtGymnOEmNZuRAYuPUuCgs+RuV2aEoujmeL9yDpCzNSsyOmUcHJgrBZpY/cPuRufRY6YqRGr0zkkeHFHou/ylC27BTccSNshO8irnAAyt2N7YrPnFgl5eJI49W1FLI68IaVinPuOvMtj/s2+SRZ2aEDUe40hc9bsIxceJwnKEJfErOtFmowrW6a4JHx5Z9LU7gLJejCf6HZcQkJEsjfv2ChS/y9ahgrJg/m6RG/OdfIqOZkkJyeQSP/txLyZGhl/PoNEu/UgDceeZEqROOi9bUlL63/IFV9f4sv++ZFbYamshtx37yq4r2qhp6dH9uzZQzp16iRw+T4GDBjA+qeuri5wYeBGEbfeemSCdzB59mA/sdLpRJY++UjyjpiS2o0GkqVng0jwubmkS1MLwhQx8v64uHKfR46YKpM6+tOJ97375OgsfdLC3IskRYgv00dMFEm9vo7kxL1AcnZOF9LU4ighmZfJZJ3WxHLnDRJ014tM79KCGB9MJO/DD5CxWm2I3T93SUy4OP8EOirJggULiL+/P/v7Y0oEuX96Juncy4lcuX+fPAgrLrvcV0/IvWevSHL0aTKx/Uiy9x1TnhZ0IRYHH5N/RvclYzyesdcV3l1A+o7cRB7GRxM/pz5kwOoIpnRXxEfy1GUgsT5RujaUhkfiNvYlf+iNJx6BEcTHWpeMOfqe3F3Ql4zc9JDER/sRpz4DyOqIXHLOrgXptfQfMrNLa2K/dzUxGOJOwnwsSUfjHSQoPopcnNuNdFpwnxRmnCBW7ezIWabBp+3DgEEbSXT+XbKg70iy6WE8ifZzIn0GrCa0m6iIj09dyEDrE4Kjz5FGdg3vTVZFCjwrTCERD66RRX16fXLjJZKtf3Yg0y4nkLQ38eQVk7YV5UNFfHN83h0jlh2NyY6geBJ1cS7p1mkBuV/IJa+e3CPPXiWT6NMTSfuRe8k7JvRbs7qTYWv8SWziQ7K010CyKaF0e/0J2s71J8b7swXHVOJW8meHaeRyQhp5E/+KMBKZTuQssVHTJmN3B5KXV6aTjkw7m8wTH/ZZGzWiNWorufv8DnHurU8WBRWSxK1/kg7TLpOEtDck/tU7poWjXtqQps3NyY4Hz8nlaYzdsiOZpB0rWwZuk1cR98npmZ1JL6cr5P79ByQsqYLUFRtHMfUh8Ryxa9GLLP1nJunS2p7sXW1AhrgnfrY+FN6ZR/pNusRYahKESEtLs+2xjY0N4dB13ij8N0fgekQD665fwPFzd3F0ZBg27gtnzhAU5GrA4cxVnLq0F0bxXjiZ+hfWBQRgw3AVDFh+Cw8f3scV517MtTXQ18UXd30mo7XI0+HP+V1YoI3ZZy7j9LmlaP/4Fp58BD6G+SO4jiFctu2H96m9mKpb6lFzaT6GwT+4DgxdtmG/9ynsnarLboNb4LsRm/JssW/3emw5vAYdbmzD8ewhFcRbPLJ/rcJBywws69MGfezW4kp8IfAhGSm8RlBVFox4ZZqgSZ33SHsreLonDl4kPKx6oF2HGYgduwqTdAgSYpPQsHkL1BRc8gmCjPMz0LFNG7Rp0wGTjmcI3MWQdwnrNgOzr1zBUZ9jmNvjc2O/Avhu3IQ8233YvX4LDq/pgBvbjhef4qXiTYNZOHv1NE44tsWz+y+gPdYSGr6H4ZvDjExDjuJiDXNYlX7k/9OhaxjSdQ+LKULI2atQtluJSf07ooetO84fmIDOow4g5Og41EuLxNOXmSD8DKTnEMgqyiP9/lF4X4mFhuMt+Du3xOPjZ5Gt2hgZgb7wj5GHiowfTt/6gPy3r9k1El+9TkE2RxHy6fdx1PsKYjUcccvfGXq8QBw/mw3VxhkI9PVHjLwKZPxOg7mVKSQ9YDfPAJ06DoZp37pIeZUOKVkxfgiTTkkb7ZopoY5WX+irCR2rod1oI0hfOI5wbj5uHfVHc3Nj1As+jrPZqmicEQhf/xjIq8jA7/QtlHrrKV8XdeWYfxX6YvXt+zgwvjU+hnrBcWgrtBi0Cnez6MYYuZBTUETpmRlSUFauhQ85ueCXOfMJoTsPCacWwHKUEfrptkCnCRfQdNEJrBtaC/kfCiErJ4eK31DykRl+Bcd9fNgl9Ng1oR8ksU885OvWBY26BAYpWSjKp+P+UW9cidWA4y1/OAsKjWwPO8wz6ISOg03Rt24KXqXzUNtUXLlnUlWqNoYtcIVFt64wXz4XnQLP4hapoDxKyaOPvRNMunXGUIuBqJ/yGoV3T+CqyhSsndgPnbqPwaoF+gg6cRVEux2aKdWBVl99qNf6TPmuJBMmTGDXE6VUa6CDzrpNoKCogvZdukK/TWP2Cd+H9EfwXmQNC6btvfUmG9l5tNTw8HyrHXaprMLe8a2Y63iI8w9AZOQxzBtnB5erSXgVHY3iZ8/fgzTa2SyFbWcdjFzuCcfuyfAPiETksXkYZ+eCq0mvEB3NhMLRRH+Drqj/R1cMM1SFHP8DQgOioDvOFp3UtDF4ggHkQoLwVnEIrHuG4/jldEQcuwoli9FQfeWPgMhIHJs3DnYuV5H0KhrUyx+OTAPo6LeDioJIPec0wECLNni02A6z3f3wmitdYT78aApDAxClOw62ndSgPXgCDORCEPQ2D+mPvLHI2gJ2a2/hTXY28ope4ObDhjCb0hsajZriD/mvm1vGaTAQFm0eYbHdbLj7vQYjkUW6yVBMsumM5l3aoml+FrLJh/Jh06Im3QTDpk5Edy19DOvBx4sXXDQYaIE2jxbDbrY7/F5zBe2eNFRHOGC8vhb0dVWQn/UOT8qVgRBwtDtDt4kCFFXao0tXfbRpXHHqlo+j+PrA0ewPg6718UfXYTBUlQP/44efVB/+G3CEu4Rw41/idWNd6LGLTtRA6zaayEhKYs9V02iHDnUZA7CaClTqZ+M90yB/DZ/zW1qtLXTrMH7XkIOcNA88JuNlh7nAvc9TTOvWCvpmywSvxSpAdhhc3Pvg6bRuaKVvhmWX6AdGfGTExCApzBOzbG1gY78V0U01oFD4lXOYOPXRe543Hj27goXNb8NhyHzc/FgTNYpykSN8e8PLRlZeLca4KDaQRUMgQoNCWguWm3djTtdqKJJvjDocDuTkaiAnK5OdnlAaKdQesQWPwsMRHv4Yu81qC9zLw0uNRkKt1tClefMlmA4zJiYJYZ6zYGtjA/ut0WiqIVhhhKOMjv27sfFqYHcMd127g6NiBuuO9+F1MQUPjl5FPYsx0P7FqyS9efMGR48eFRxRwy4P8krKxY0Qpw6a6aqBe3U++vYajZVejKHKq4O6NeilHKhN9MKFZd3BC/bAlH666O9yF2mMYSiroISasrKQlVVAZ6ZjG9v2I+6624MZHcJm/GKcJuPhdWEZuvOC4TGlH3T7u+BuXhaycmWhoFST3exBVqEz04GNRVsmIlIyNVGTNQY47HxgZsAJjtrE8n584W2otPZomCpcwtG713D8fhuMGtkAUllZyGXiqVSTxpcJvzPTwI1tK8b45CP55l4ceqKIXtZO2HLED09j7mIGbxvcTmZBrYU6cmNefHq9x1KEqMjXUNFqDll5Och+yEWuyPmi3DxwazJ1kj2SRjPLf3A94AGePfaGhWwC3sn9AUVONai0UENBfCxKfS9TFIJDqw4hhH3rKY0mQxdjl4cHu3i9h8c/2DKhPTtolSACRw0TvS5gWXcegj2mMAOP/nBhC40UZGrWLE4vpn5KS9Mtj/lIvyyu3NPLFVG3rmBgXF0BCtL5yG9UQXmUkmHaIUFOVJMGh/GXl5uLQgVlJm8FzkoKkC3IR4FI/n5L+S7L+fPn2XXGhUgx2qSKCounO7Fk4uTyjci3O46b1/fBRktY6qWhNWE5+jxYBFd/+ipZCorKylA338oMGhkDM/glXniM+CGGnHBJUllVPcZ4qcO08eow38oMphmDI/jlC3iMEBeKFBSUqyM1uXgqUmFiIvLqN4ISRw59rP/Eq6Mb8E+AGsYaN4S0ojKU1c2xlRlk+wcE4+ULD4j18qdQDS1tD+JuwD7Y1z2HCbNOslNSyufDj0eaacOrpyYXT0EoTERiXn00IqexfGM+7I7fxPV9NmCzmxkkylbLYuwN5sKsZ4j42g9wq7WE7cG7CNhnj7rnJmDWScE0jLJkniwfdily8SpJCg0bMoOGlrY4eDcA++zr4tyEWRDvJQdKYsuAFFOFpVBU+C2pW1F9KMvPqw//BZg+vDhhqzVRQ4PXoQjJpkd5CA56iabaWuy5EjKDEZKkBi112ohKQboaQW52BYVMhEr5LYqMJka6HMeDyPtY0+Q0HLc/EpwQhww0R7rg+INI3F/TBKcdt+NREZ0vo4K62jbY63sDN24wf9d2YZwGW8sqHe8S5JthyHR79C6KQTSvPTqqP8Jl3/fsqZx753CnXi/0+qMO6ii8R+Kr4gnSRUxjn1JPOP9XGrJ122Ds8gmQ3r0a595Xg1avLii4dAQBn3kA/CWka/+B2hkJiPvAGMdJl+H3VDAOrF4d0vk5yGHaj6xHQYjMZ3pKjhJUVepC22YvfGl6MH/Xdo0rvl4sdTDcpi8iDy7GjhvqGG2uwlTzz8Nnyof3Nh+EFI+xBPCZYuONbT4hTJUWgZ+JYO9t8Cl9cSnoWqWfPvqsjpZtNBB9/zbYlM88jynd7bDu0DHITz6Jc55bsczoD+Rnc8HjFyJoswM8payx4ch1PPYxR+b1B1BurYVcrirMpk7DtCkjoZKVjHxOLQxacUVQRjxgmbUVDp5SsN5wBNcf+8A88zpup7REW61ccFXNMHXaNEwZqYKs5Hww9qBYioI2l/cj8ZNFQTtaatSUQprpbM0a4prTWgR1ssBQZhxUvXVbaOVyoWo2FdOmTcFIlSwk53PEGpPVmfxfungvngkNE1lFKDGGrry8NOoY2GNEnDuWnH1dMpc8J2gTXC+pwGpsO8iqM+FkXcfJO+lsA07nS588FwINXV1m+FoaaRVjbN4+DKEzbLElggvlv8ZicMweuF0XfihSiBf7lzFhxYEjaYUrT1EQNjt4Qsp6A45cfwwf80xcv/1acLIsRbh3TFy5Z+o5PwlB92LYecYFYbfxWFkPraPElMcKjIsardtANewmbrHtUj5CbwRCSqs16jIduZQUY4wzmSy2fH+lsUJ3dRRdY5zTqDt65OyAuelYjJ3vgwSeHFroyOH+BnsYj1iAy+mCCxmklAfAbZ81XswZg00hH9DAZCq6+tqgv7EVbCxHw/lixW3KN8NpAJOpXeFr0x/GVjawHO0M8cFIo5X1JCh7GGHoKGMMcXyNMTOHoxZzplp7K4x4vwu+OlYYqky9NMHUrr6w6W8MKxtLjHa+WLqN/Aa4oVsxpr8hNj14ir3Wg2C39wUKxbjxuJHYPd4ApvZOcL+Yghb6OqzRVD4fiv39VsTFR6qdDSYpe8Bo6CgYD3HE6zEzMbx+C+jI3ccGe2OMWHAZbHZLN4OBSTX8Y26AEaM9EC9fQYNbAdzI3RhvYAp7J3dcTGkBfZ0KGiQ5MWFTeEk4t3gMRg37C2u5k+DQWxqRu8fDwNQeTu4XkdJCH+K9rIZ2NuLKAAeNuvdAzg5zmI4di/k+lfkQT0jF9aE0/2vvPMCiON4//gWNIdiwxR6KFGmiEaVYEAWVKCqISjAKomL+akxiokZNSDTRJKZorIldjNg1ogYLKKKIAoooAsrRlB6adPSO97+z3OFxHIixEX/7eR4f2bnd2fc7887s7O67M6ovpz28rpSWllYFUlAeBS6xJm2DgTRiaG8ysv2agvJYzMl8MmjTgwaMHEHWhsbk+Gu4NO5PQjnHZlHPrsZkO2oUOX17gUgsok0Te5Oxfmdq0bwT6Rub0ycseLWevGvHukoobac79R9gT6Md7amvsQ19FfQ4LkgRSdpOcu8/gOxHO5J9X2Oy+SqI+L3Lb9L6sfqk1ceOxoxzpJFua6QxkkrsVoqYkja7Uf/BI2nM2NE0xMyQhiw5SzkSCeUGLqUBOgY0aMQQ6mU8nFZcKuD2l1DW8XnUV6cXDR1lR30NB9LCU5wy+RhizjJ/r55kvSKaHkky6OTCQaTTox8NH+1AQ6w9aVeahEr2T6Q2bTXJyNiYjI3NyHldLG+NUiTZ5DfLiDR7D6EBgyaSk5U+efmXExUF0MfG3cjUdghZjxhDNr2rYojLb66nsfpa1MduDI1zHEluayK5TEpov6s+TefrSYFHYbTEtBl1mXqUmMInUebnQW837ayQVxn5ebxNTTtX2VBNmR95vN2UOk8/UWec2oMHD+j69evSLY7CEFphp08G1vZk08uY7L+7QHEHPUmf1aXDULKycSJ7YyP69GIFFQZ700BtfRro4EDWRmbktlNE4oJLtMJel3TM7cjOXI8MRv9MYcXSvGUUBpP3QG3SH+hADtZGZOa2k0Rc1RVcWkH2ujpkbmdH5noGNPrnMCoukcYF8wIeUdjid8lmlUh5HoWyfSWUucuJuuna0IIjidIY4qoSkGTtIqd2WvThGVlkbQFdWmFPujrmZGdnTnoGo+nnWgZLESfRoXkDSU+/H9mNeo+G9DYk61m+JJLGdhZFbqbp1oZkMnAkjRpmTj1NHWjx8RRpbFkFxWyfQiZtNagLp027gwZ1G+pNgTksXq8qhrjvV5FVsfk8RXRxoRl1tP2Fbj+SUPa5ZeSgr0kmNiNpuKU+afZxp223mCZ2rBG17KjH+TLzZ+m/Ph7kw4Li/iO8lBhirm8I9h5I2voDycHBmozM3Ggn53glvhNIc8rRqjbCtcfF79rQKtFDSlfq9/nk69KBtE36k4WtDZnqW9MC/yySKPXpkhq+9yjyKzK3WcU5YR6d97YlXX1LGjbYmPQsPqIj97i6kmTSLqdupGuzgI6IgpS2kachOjqa/vnnH+mWFHEBpcbHU0quLMKxnHJSUqh6sz4kJZSVEEd3EjOoqN545obEENeNpCSLEuLuUGJGkVx7UIK4mDKSkinnibZzfX5WAsXdSaSM+g1/ipjdBlKRT6ki+fKWUqselPNs9oipOCOJkuULqDyHUlJyFeJbJVScnUkF9RcNR+0YYkZFfiqJ4hvgQ7XOXUbHplvR3GMiSsosro7BZX1afqqI4mvZqYQ6fEBckErxDbGpFs/eHoQY4trIxxCz2ElpchUlmSKKTciuHqTwg1aH1RQdn0CZxbUvYhV5SRRzO57Si57cIyrmXTesk0ik2JgEym5AzbFOKjE2hhJq7fyI8lNiuc43jmt4ZVyuj2mY3Vxj5Gy+fSuWUvJZ+LwcZVzHKEonxcMlRekUHyOizAZ+LfQoL4ViY5WXbcMoocyERMoqKyYfpx78R3U8nH2iuHtUoCjvUT6lxEZTdBzXULnBWb0UBtJcbjC5KLShzaeMsu5l1a5fzpZ7WbVrvSzrHme3dEMJUVFR5O7uLt2SwXUKSXcoSa5XKM9JpDtJSjooVkcxcZRaoxAqKC85juLTCuq5oHE6EmIoLrVAriPkqMij5Lh4Snty78xRRx48FZSTGMtpUPCpOqjIS6a4+LQGXBS4zrYog0SxnL/nKcv7ERWmi7iyyiGlVc9dFBJjojmbC5XY/AQkxZQpuk0xiTmvXWf7cgbEVZRxg6OYuNTa7VYJtf1eOsg9ks/5nogyavQp9fljbVjecYp9dQXnH7FJVOW2T5efIvPnz6dz585Jt14mYor52YXmHn/yVaixIY75mVzmHpduvXoalz0SSt4whgz6DCLbKZu4G3Vp8r+mnE59Moq8QxvWR/87uHMsGUaDBw+W+2dLU3+Pkf7+PCkj/8Xcufobk/n8wNeuj34W5AfEKoWFhVTfanUPQz6D+Up9BJ6chQ7SNIHGSCl2O/fCRa/b2DxS8UX301KC0N8XY+3uQKQN2wi/5TbQkP7yMmGLxkRGRmL48OHSFAGBl0/v3r0xZ84ccJ0mwsPDpan/Hjs7O0yaNAkrV67kF595fpRi70Qj+LvFwWdc445XCQ4Ohra29itarU5AQECgChaauWnTJly+fBmqbK7X+mjW9wsc3+KKdtJtgcaKGsatP4tvBz/rYJjxBjqbjcTMTYEIeEWDYQabpzQnJ0e6JSAgUD/qGP3beayyb/zB23l5eaj4Vx8XCQgICLwYVEtKSqR/1oFaB2h2af3ED6oEXjWqaNlFGx2fyzxWzaBl9R6G9ur0Sifxzs/Px6VLl6RbAgICT6JlZ210ai7daMREREQgMzNTuiUgICDw6mni4uLyDfval02/xl7fNW/eHImJiSgqqlq0PjY2ln+knJuby8/Vqq6uDpFIxK8gxp4ux8XF8V8LZ2dnIy0tDW+99Rbu3r3L3/0/fPgQd+7c4aeMYlNosQ6Q/c2OEYvF/GpFbF+WZ2pqKv+K/M0330RMTAw/fRUbrLPfW7RogZSUFN4Gdq7bt2/zX+oXFhbytrDfk5OTeQ1s1gx2vKqqqqDpP66J7Subq1Sop2fXVFxcjPj4+AZpYrbLa2L/sxuUxq6JPXmU1/TgwQN+eq+GaGL7yWt64403+DcUe/fuRf/+/XHt2jV4eXnxvz8LPj4+MDExwYULF+Do6NggTcwWeU2s/JnNzHa2zXxOpontz3xSponlx5BpYue7f/8+X6bsPKyMZfXE7MjKyqquJ1Y38vXE0tLT05+5nliYnq6uLm/f66LpdawnQVOVJnYcy//faGL2MrsboonlKa+J2cTyfhmaWL7ymlhZMvtkmphddWlieuQ1sTpkdSnTxMqjLk3M5lep6aeffuKXkmc2NeGEfcNiuZihx44dg5GRET95PhPMDty4cSM6d+6Mmzdv4vTp0zAwMMDu3bv5Cwsz5o8//uCXjg0LC0NQUBC/Pv327dtRXl7OF9C2bdv4NBYzduXKFX6xBXYMM5RdfHbu3ImePXvi7NmzuHHjBp/X+vXr+YJiBSq7eJw4cYIvbGbLb7/9xk/bw8QfOHCA//3QoUP8dps2bfjjO3ToUEMTu6ix/GSaunTpolQTK3hFTazjltfE5lNVponBBhWKmlicnKImU1NTfi5OmaY1a9bwU4wpamIDDGWaDA0Na2hiMTCKmth5mNMoamIXYnlNrIEqamI+oUzTmTNnlGpi5SevqVOnTnw9yWtivyvTxPb38/Or1sQGTkzTF198gYCAALDFY5gmfX39Wpo0NTVraGL+xvQoarp69WotTTt27FCqiTVieU3MNlbuipoOHjxYq57WrVtXQ5PM92SaZPUUFRXFn1emidnDNLE4VXlNzH5FTUynvKbff/+9usOQ18TOIWtPMk3sXIqa1q5dW6cmDQ2NGvXE6le+nli+ippkvifTJKsnZi+zW6aJtSWmif3NNDG9TDdrT/KamO+xc8prYuXMylOmid04MU0y31PUZGxsjMOHD1dr2rBhA+9XMk2szFi/p0xTaGjoCxkQs6n+WLneunWL9z1mM+vMWd/LfI9pYm2ddd4yTcx2NuCQaZKvJ6ZJVk+sv2Rl5uvry2ti7ZRp6tq1K6+JtSt536usrKz2Pdb+L168WF1PLHSJXTxYf8HSWJ/IYqnZvixPdjFiNxa7du3i/f3UqVO8pm7dutXSZGZmhr/++otv23p6erwO1m4UNbGLkzJNrJ5kvsc0MT+R1ZNME7ODXVsUNbG3TYqaZL4n08R8T5kmf39/pZr+/PPPak2snjp27Mj3EfKaWF2z/xU1scGFvCZ2wWY3c4qaWDmxepLXxOxkfqmoid2EymtiT+IVNbH2pEwTG2iwm1KZpqNHjyrVxOpHURPrI95+++1qTTLfU9TE+lllmrZs2cLXk7wm1tfJa2LHnD9/vpYmNhBS1CRrT/KaWHtSrKe2bdvygytFTazveJImWXt6kiaZ7+no6NSoJ9aeWD3JNLF9WTkp0xQdHV1DExuMymtiDyCYrex3Vk8yTaw9KWpi2tkgUaZpz5491YNTRU3y7YmN2WS+J9+e5OtJpknme4qaWF7snDJNzPdYXy7TxGxhmpjvyTTJ6okNhuU1scEtGwey9sT2YwNjWXuS1ZOsj2Ca2PdIMk2sbGWa2N+yAbFKTk4OtWsnRAgLND7YYIYNVubOnStNERB4+fx3Pqr778AujH379uUHIQICAgKvCvZ2k90I8B/VsacsAgKNEfbkwcLCQrolICDwusBuMtiTKgEBAYHGgiqL+xMQaIywJ8TsdYiAgMDrBXu1zF6ZCrwkKrMQtPMwYmRLVb5yKpEVtBOHG49BAgJQZfEmtalEXmI0Uqq+L3kKSpAWk4DcWjO51ZX+nKnMQ2J0Cp7a7Jdln8BTweJ+pk59vLy0OMoXqw7FVi8//FyRpODk6l/gF/o3fvvpmDRRhgTJJ1Zj+5WqjykajDgKe348UOsi9EJ1MCTJOLF6O648qE/TsyOO2oMfD8Q8k47y5BiInr7BCjwN4hv4c9Vh3GlE/dv48eP5WL7GQOU/p7ByxjRMm7EUBxLlCulhMk6vWYjZs+Zh1al0Pkl8+098vfoc/pGtvF4cjj9XfotvV+5ASK7CcuwvmooQ/DaTs3v6fOy89YRWWJmN4D3HEfvCOp2npRLZwXtwvPEYJCAAVRYMXZtynPx8HFaEPOU8kQ9v4FfXeTiUJ92WUVf686b8JD4ftwJPa/ZLs0/gqWAf/LFAdxkPY/7CH3+LXtCAOAPB27chMCoYu7YGSBNlSJB6bhsORj5hikJFHsbg2KYTuKtg8AvVwZCk4ty2g4gsTKtH07PzMOYYNp24++91iKOxym02DmcJd6IvlIfROPLHKSQ2orEH+4DmiVN+Vt7H5vGu2Jr9bwaalbi/eTxct2Zzf9UPFUUjILUn5sz3hE2XJtLUSmTsmofFkT3h5jUFw/Sq5rITF2UhJS0XZfwWR9N20DLWRvbx7Qj+h6SJL4k3TOA0/1OMUA3DldQX2IaeqR5eAA22p+E+ICDAUGVf2spTnhmDsNAopJc+btyVJemICbuCiDtZ3FBZjtJ0RF+9jLDoFBRUd7YqUJHkQhQRgbu58j0wl04lyLgdibjsh9I0jspi3Iu6grBY+bwrUZLO2XElAneyHqeKS0tQUSlBQeI1XEvI54YpMsqRGROG0Kh0yJldN09jt6J9lRUoLpGzn0NcWoxy4Zr+3GEzDFy/fl26VQUVRWHLJ5MxadoX2Holl+/oKrMvY/MiDziPdoTLjGU4cpfdET1E+LbvsX7tQkx2/Qz7EsqQdPIHfDhhDJymfgGfyAd8ftU01Ya2liZ0BvSAprYOn1R8yxdL3J3hPOMHBFV3vpXIvrwZizycMdrRBTOWHQF/upLb2Oc9Ay7jnDFtyW7ckGVPhYjc/AlcufQZ3x5HktS1lOlgfpxw/EfMdnWCs/ti+EgzUarvYTi2fb8eaxdOhutn+5AgKcYt3yVwd+bO80MQeHOVaKpCgjsHlmPDRZY/p+fsL1i0NQJMhiTpL/zwewg4j1ZiS80yPZgla2wSpBz/AUs3hSCvsgS393ljhss4OE9bgt3VBaFIJdL8d+NMcgJO/rAZoVzjKk84jh9nu8LJ2R2LfW6g6kjlZfI6UnJ7H7xnuGCc8zQs2V2l/+G1Hfh+uy/W/J8LnNzmY/PVvHp9hStEHP9xNlydnOG+2OexHzYyWLgE+wpcRlHUn1gybTyn/QOsCOA0Fl3E+k+9sSciHPuWzsPcj3/CqcxKiG/64LNpEzgfmYKFPlGcn3KelHceG7f+jbO/zcMHbh9jx80sXFz/Kbz3RCB831LMm/sxfjqVKS035ag07wgDox7oyK9pUoLsZBGu30pF175W6NKmPbp1bI2CC2vxxZ9JaN1JA9VLn6jpYODYETBpLz9TfyliD3hj2ngXeH61HzGlXBJ387d3014cWf1/mDRhFtaG5HP2iHHT5zNMm8DV4ZSF8Ini1HD77du+A+vnTscPB/fhq2nzsecud3EpjcUB72kY7+KJr/bHcGfgUG2Ndwx7onub5zdbfEProTIvDNsWTIHzeA8s2XOLrwdxtC827vsLG+ZPhavXau4Gob4SbyBcP/nnEk43139+sCIAeQ+U28M5Bnw+m4YJnN9PWeiDqOIi5T7Ala/vr0e4/pLLuzQUm38L4PvKWrqrzi7wv0Z5uWxV6wq6tdGJTExtafyE96hXh+4005/7rSKUvnO0pdETXWlsP20y8jpGORIicfwWcjZ9lxzen0KuTp60PuoRt+8lmm9kQP1tLclu7GDS7eFG+zK5nfl0Ixpgb0XDnIZRTx1H+kMkJiq6TN8NM6K+o1zIsa8WGU71pWQuuSL0O3K0HU0TXcdSP20j8jqWw9lXQvvfNyWHyY400G4MDdTtSTOP53E736KNTiZkajueJrzXizp0n0nM7Lp4KruV2JeY9BvZWy2jW7K10iXptH5EP/oq8pkXTxdQoKioiGJjY6VbnAf4jqdWGpY0/0AohR6YT5Z6E2lPZg4dnKxLgxb70fXoCPproRV1cdpFuZy/7B7XgrqPX0/ng0Lp+unPqW8fD9ocFElXDy+hIUau5JvB1bEcJTk5VCwpodycYqLCv2mWYR/y8gmhsBPLaXint8huYyZR3kGarDuIFvtdp+iIv2ihVRdy2pVNcT8OJrMZeyni9hXaMcWQzL1v0KMSXxrfqj0NWXyILocdo8/6dyPX/YV16JBQgf+HZGj8AW06F04he+ZRfz1n2pVah76S3TSuRXcav/48BYXGUsbfs8iwjxf5hITRieXDqdNbdrSRy7OGJjlyd7uQgacfV0oFtHdCe1IzWUihFRJKXmNPVl/fpBylthTVLNPtE0hzyiGKOzCd3u07nQ5yjVcc9yMNNptBeyNu05UdU8jQ3Jtu1NE0CqJ30mR9E/LcEkLJOf70oaExfbDpHIWH7KF5/fXIeVcq5Sm1o2a9vWjMzMz4te7Nzc2lKc/GsGHD+Py0tLSkKRziOPpxsBnN2BtBt6/soCmG5uTNFVyJrwtptLWgeXsvU+j+T8miXl/JI/8PDcn4g010LjyE9szrT3rOuyi1aDc56cygv+vpF1828fHxlJ+fX7UhSaV1w9+lj/xTKDsjme7lVBA9yqSY0KP0Sb9BtOQU106u3KK0Mq6Y7t2gy7fvUbroKHn1GUvbuEuDJOlXGtLBjKZvDaOYfe7Uy82XEmJC6egn/WjQklMUGnqFbrGD60Cc8BMNdd5BhdJtqrhMa6ZNIgfT9qQ5cCK5uk6hn4LLqSIzhq6cWUo2g1ZSLHedekw2/T56MK2UJlaELKIhY1fT1WQRBSyxoWHfx5C47Bh5aBrQ5D/CKP7UPOrrsJHSJWK6d+My3b6XTqKjXtRn7DbKKfMjT71B5L3lE+pvPJO2fT+GHNYmUsiiITR29VVKFgXQEpth9H2MzIAKurTAlmY9qXIf3aRldu50qO5ieIp6yKEDH/Ql543hlBx3kj63MqdFoRVUdsyDNPUn0bqQO3Tp68FksTSc6r4qPqKby+zIvX6DKHXdcHr3I39Kyc6g5Hs5VFGHX3COQTcu36Z76SI66tWHxm7LpExlPsDVw3TrTymYk0Z5W2iszfcU91CJboH/GZo0acL3xx4eHqTK5iXkKfkbP69tgkUBATh04CA+Hyi962xmiaV+ATj4+2qs2/Z/6HzOH5GPgEe3LiCi7TgsW78De49sw5xeTav2RxOYLz6B03/5wbtXBM6xnRlEMP3sOM4c+RvbnJKx53ACMnxXwFf7JwSeOAi/kP0Ye+tXbI8Wc6dcCr+Ag/h99Tps+7/OOOcfWZWHJAsZHT/FsdNHcWixKW6HxnJm/4y1TRYhIOAQDhz8HDKz66LhdlcotW9nthbeqUjF/bJQ/DDlG5wrvI+0/Hegpy3LR+B5wSb3ZnMEPkYVbR0XYvkES1hO+AYf97mCY0FqcNkZif1T2yM79ibiCwiV+bkoYrf4Ks1hNdEDQ2z64MGJYyh8pwvyw87iQkJzdG8WgKNBNd+OqLdrh+aq6mjbrjkqrvrhvNYsLJ9sjX6jFmHpRC3OQzjauGBn5H5MbZ+N2JvxKKBK5OcWo1mr5sgN3Y+9pxKhvTgIF742A/MIleY2mLlkPKz6vQdXu7eReZ8tRa1MRwFCDp1G99mr4GVrDmu3lVhkEY5Dp1Xq1KfS3AoTPYbAxlIb0X7noTVrOSZb98OoRUsxUavq1a+8Jnk07EfA4EYQrheF4WKWDUa14v6/l43AoCIMGaWDq0ptKZArU0sYqBHKri6Do1c0nHf+DhfNJlBRa4XmuaHYv/cUErUXI+jC1zCro2m0NuiNHq3bQn+IBTpdPYTT3WdjlZctzK3dsHKRBcIPncCZuux43VBRQ6vmuQjdvxenErWxOOgCvuYLTgVtOP9b4WoFy4nL8bl5GI6dz1fuKyfOcGXTHbNXecHW3BpuKxfBIpwr10ZYXGw+UTa3MI9qR9i5muDal56YvzYA98Wc7zbtCMN+vdC1ZSt079MflhYm6KIGlOVew96l7nD1XIWgjEIUllQ9y2vS2wPe0/rBcOxy+CwegncM+6FX15Zo1b0P+ltawIQd3FCaWeHj7X9i+Rgd9P+Qu07s9cHng95Es46GsOjdHS1VpPspRYKkC8GIjT2ABVM9sex0Gu6JRGBXwSZd38Msj37Q7W+KbqUPUEhlyL22F0vdXeG5KggZhYVgclR1hmKM5dvoYDkK495RR2VFIi4ExyL2wAJM9VyG02n3IBJJr6vPk4bWg0oUguN6Yeo0c2gajMCMMeqIDGdP+5ug66g58LLWh8WoAai8exc136U+LaroaOcKk2tfwnP+WgTcF6NJHX7BOQau7V0Kd1dPrArKQGFhBTo01AeU6Rb4n0SVreDBkGSJkNK8Jwzb1lykuTLvHL4aaow+IybBfZ4PbldI+JhBtVHLsNbmJj6yMoIFd1H/+740ZqCJFnr1bse58ptQb94EEon0tWpTbfR+l6U3Rffub6MwLxvJ8ffRpZcZWrLf3zSGiU4+Nwh6hLxzX2GocR+MmOSOeT63USGRvmdW1UDfoVZoq8o1FM8DCFlhgSxRCpr3NOTSqnZ5Eg23+5Fy+7K00KNlJpLOH8aZqyfhe0aEjDd00EOYve65w6YEZAtPPEYF6lxHWDW+egMtW6qivDgL/guHYND732HPhQRI2rbjapC7/+L3UUPzt1jnRnjwoBhqLVvjLTU1qKm1RD/uwjLZtO6Oj4qKUa7eEi14v1JFm7ZVy5dX5vpj4ZBBeP+7PdzAWsINNNnZVKDptQcnvrGGJGIrZtv2wtBlIfxrTZVm6lCXDgibNlEFVfIj9do6SstRXFyBlhqt+PNwe6N1SzVOXzpO1qVPrTl4edxWUXE5l2eLqmNV26Bt6/obhGqH4bDrEI6zx88hVmciZlsXIfT0cQRmDsB7ZirKbSmtQGV1mVbxCKZwcSzF/s0X+Ff8qppe2HPiG1hLIrB1ti16DV2GEP79bv1IiotR0VIDraRmN23dEmrlJcgvUmZH+ev3SlNVE157TuAbawkits6Gba+hWMYXnApacTc1Vff5zFeaoJSra6X1U5KPooqW0HhciGipVo7SisZXWmyRAbZaXRVN0XPaLoQEb8fMdn6Y8elh/hU8VFShqsIWb+F34ijA4eW/otTzIM4HboeHvlz7VVHhSopD7R2YmXTmclSBqqoKHj4++CXB1ZeGBrQmrsPZCxcQHBGPu1sdH4dYyFNwGMt/LYXnwfMI3O4BeTk1aQENDS1MXMfdzHOD7Yj4u9jq+BQD/AbTwHpo0hoab2QhnQ+JqEBqagne7ty66jcpxffSoNKpU9VDhGegac9p2BUSjO0z28Fvxqc4zAyq5ResKJfj11JPHDwfiO0e+tLzKvMBrm2IuWO5DrQ8+T5YtEWdugX+56ieh7iJRnto5CUjuYS7OKX5I+Bm1R1oeeAWbG+xAJfCLuDEBlfoyp72NNPB2GUHcSU2FD90PYrFG65Jf3gSBYiITIOWgS66anbE/ahIFLLkkgiEx3eDgb4YgVu2o8WCSwi7cAIbXHU5d62LJtBor4G85GSUcHfmaf4BkJpdNw22u6ly+wy1ods9B39vS8GglWORtdsXSW17QPf5hXEJSGEXTLZqzWMkyIwIwR3Wv5VEIvh6W5ga3sSBA83x4WE/+Kz7Bk4dSlEolqBSFt7K8waMTfVRLH4HE+Z8hI9mj0X3B+koVa3bs94w7Q2d2GBcZE/XJOm4fDWRvxF8ePkADjT/EIf9fLDuGyd0KC2EWFKOsDVz4aPijl98A3F930QUBF6E7F6rNkp09GoHY5N3cOt8EPh3NqVROBemAn2DuzjUAH2mvXUQG3yRa13M3Mu4+qQvqFS7wmFoUxz78QxaDbCBpW0f3P3tZ8SZO6BfszeV22LcVjoAk8Fd/C0m4Mu1qzAgcD6WBRXhYfgazPVRgfsvvgi8vg8TCwJxsc6C4AYxKsTdJLD7TRO8c+s8gqpOiKhzYVDR7wULU2V2sBvX14yH4Vgz1wcq7r/AN/A69k0sQOBF9kFpJdLCLyOBPWorv4WL1zVg1ru98vrpZQHTd27hfFUhcsnnEKaiD+OGPi14ibDVpKoXhBLH4o/pY+AycwnWnsyEnoVh1QBStTOsBxRh40QXTJ68EPtS3oSeoTpCf5kJZ8dF8K93xlBVdLYegKKNE+EyeTIW7kvhWt2zIEbUOjcMHbcaV25ug7u9J7bdlUActQ5uQ8dh9ZWb2OZuD89tIrQfPweWZz0w1HkKPD54H1+frOMRvboeDNVD8ctMZzgu8kedclTbY/wcS5z1GArnKR744P2vUVeWz0RD6yHNFB6zNLDV6T1McnbA4vtu+GR0C25H7hrs9yXcJo3CyFVizJo7mL95//eIEfvHdIxxmYkla08iU88ChsygWn4h4YrSEOqhv2CmsyMWVTuGEh9o1gsDugZg4XhnOH8bAnFT7jaqLt0C/3vcu3evKpBCkkV/zTQkzd5DyNrKiVyHvUuz/MtJHLeeRmrp0wC7QWQ53J7MTbzIv1xCaTvdqf8AexrtaE99jW3oq6DCqlhc0/fo92yWYRkd+sCQpp8oI3p0nZZZdKYe1iNopLUhGY9ZTREl3C55gbTEWpsMBo6gob2NyPbrIMojMcWtH0la+gPIbpAlDbc3JxMvf27nEtrvql+VnxySrL9opqEm9R5iTVZOrjTs3Vn1xBA/pd1K7XtE17/sTep9v6ao8lj63kqdtGYHUiMKz3ttiIqKInd3d+kWiyGeQFqmFtS/3xAabKxPg5ecoaxH6XTQU5+6GtuSw1ArsnGyJ2OjT+liRQntdtKkaX5Sfym4RCvsdUnH3I7szPXIYPTPFFYzrFaBArq4zJb0eg6goZbmZNlbm0ZszCRJ+kHy1O9KxrYONNTKhpzsjcno04uUE+xNA7X1aaCDA1kbmZHbThGJS3xpguYUOsqb8IgivzInm1Ui5ToknHfmnSdvW13StxzGpeuRxUdH6F5d+vJ3k5PmNJLJo4KLtMxWj3oOGEqW5pbUW3sEH0NcH49uLaO+6pb0/R0x5+t/knObrjT9JGuYddgiqVmmTIfmlKNci5FQ9lEP0u+9gILTg8l7oDbpD3QgB2sjMnPbSSKxhJJX21JH1wP8cdVIMmmXUzfStVlAR9Jz6Ly3LenqW9KwwcakZ/ERHbknqcMO6fEviZcSQ0yFFOw9kLT1B5KDgzUZmbnRTpGYjyHuoG1C/S1sycZUn6wX+NftKxIJ5Z33JltdfbIcNpiM9SzooyP3SFLS+GKI58+fT+fOnZNucVTkU6oonlJyFY0UU0FqPMWn5Er72HLKSUmhWrvVgbggleLj69+/Vgzx84BrK1kJcXQnMYOK6vu8pDyHUqq11Y+kJIsS4u5QYkaRXGzuc4whZjS4HriU4gxKSs6p3i47Np2s5h4jUVImFdeIsVZGQ2KIGRWUnyqqcd4qattTnpOixG4lPiAuoLSENCqUt7FO3QKvO/IxxCgulh8VlFFWUioVKDizuJBzqKTHjl+FhEqyEik2JoGyG+JDkmKug4il2JR8ucbMKKFMUSwlZMs3DDEVcs6elNNA5yzLoqTUAu6ohvCUdiu1T+BlkJubSxcuXJBuPaaMq7+avsFdJBPvUNITO7MKykuOo/i0AgUfrJuSTBGJMoo5r5GDu4gl3kmqfZHl/DAhJo5SFRtQHdTWwWBa4hT8raH6mK+KKKP4eY0YldnSELh+JCGG4uTbZI4vffal3ABIRgVXlrFcWUq/YynPSaS4hGwuB3n+rR3Ph5czIK6iLCuBYuIe98FVNx1HKJ9Lr+WHdZUL8884rn97NcXVIK5cuULp6enSrVeLJHkDjTHoQ4Nsp9Cm2w3tGRoBZf60mLvx6W9sTvMDn9A3iGPoZ5e5dPwF+kT5qU9olHco18s2BDHF/OxCc1+kQQICDUB+QKzCBh1t27aVPi8WEGg8sDmIz5w5g+nTp0tTBP6rlN6+gKi2g2DV+b8X7MCWGZ4zZw64ThPh4eHS1H+PnZ0dJk2ahJUrVyIpKUmaqpzSvRNh5O+GOJ9xr9Vr3H379vHlykInBAQEBF4VTZs2xaZNm3D58mWoVrz0jw4EBBpGcXExYmNjpVsC/2XUjW3+k4PhV4366N9wfpX9axfTKBKJUD3DkYCAgEAjQOXq1avERsgCAo0NtooiGxQrX15cQODl0LdvX2zYsAE7dux4bk+IJ0yYgA8//BDXrjX0Y+TXC7bojpqaGt5889k+uxIQEBB4Flj/zt7+sSfEKn369KnxvbqAgICAwGMiIyOf+4DYzc2NDwXi+l9pqoCAgIDAy4b171u2bEFISAhUZs2aJQyIBQQEBOqBDYTZMuJEz95dqqiooEePHvzAWEBAQEDg1cIedqirq+P/AccP/l6bIvVwAAAAAElFTkSuQmCC&quot;&gt;" style="rounded=0;whiteSpace=wrap;html=1;" vertex="1" parent="1">
          <mxGeometry x="114" y="4140" width="730" height="220" as="geometry" />
        </mxCell>
        <mxCell id="Fg6kzlsoRwOaC9sN9TLb-1" value="19.01.2023" style="text;html=1;strokeColor=none;fillColor=none;align=center;verticalAlign=middle;whiteSpace=wrap;rounded=0;" vertex="1" parent="1">
          <mxGeometry x="20" y="4398" width="60" height="30" as="geometry" />
        </mxCell>
        <mxCell id="Fg6kzlsoRwOaC9sN9TLb-2" value="maltego" style="text;html=1;strokeColor=none;fillColor=none;align=center;verticalAlign=middle;whiteSpace=wrap;rounded=0;" vertex="1" parent="1">
          <mxGeometry x="114" y="4398" width="60" height="30" as="geometry" />
        </mxCell>
        <mxCell id="Fg6kzlsoRwOaC9sN9TLb-3" value="maltego -----top left ---new to create new graph" style="text;html=1;strokeColor=none;fillColor=none;align=center;verticalAlign=middle;whiteSpace=wrap;rounded=0;" vertex="1" parent="1">
          <mxGeometry x="190" y="4470" width="260" height="30" as="geometry" />
        </mxCell>
        <mxCell id="Fg6kzlsoRwOaC9sN9TLb-4" value="Drag and drop the domain from left side" style="text;html=1;strokeColor=none;fillColor=none;align=center;verticalAlign=middle;whiteSpace=wrap;rounded=0;" vertex="1" parent="1">
          <mxGeometry x="189" y="4510" width="260" height="30" as="geometry" />
        </mxCell>
        <mxCell id="Fg6kzlsoRwOaC9sN9TLb-5" value="right click and run selected modules" style="text;html=1;align=center;verticalAlign=middle;resizable=0;points=[];autosize=1;strokeColor=none;fillColor=none;" vertex="1" parent="1">
          <mxGeometry x="195" y="4548" width="210" height="30" as="geometry" />
        </mxCell>
        <mxCell id="Fg6kzlsoRwOaC9sN9TLb-6" value="import and export tab to export the report" style="text;html=1;align=center;verticalAlign=middle;resizable=0;points=[];autosize=1;strokeColor=none;fillColor=none;" vertex="1" parent="1">
          <mxGeometry x="190" y="4598" width="240" height="30" as="geometry" />
        </mxCell>
        <mxCell id="Fg6kzlsoRwOaC9sN9TLb-7" value="archive.org -----to check the website 1year back" style="text;html=1;align=center;verticalAlign=middle;resizable=0;points=[];autosize=1;strokeColor=none;fillColor=none;" vertex="1" parent="1">
          <mxGeometry x="105" y="4880" width="280" height="30" as="geometry" />
        </mxCell>
        <mxCell id="Fg6kzlsoRwOaC9sN9TLb-8" value="Transform hub to install the required modules" style="text;html=1;align=center;verticalAlign=middle;resizable=0;points=[];autosize=1;strokeColor=none;fillColor=none;" vertex="1" parent="1">
          <mxGeometry x="180" y="4645" width="260" height="30" as="geometry" />
        </mxCell>
        <mxCell id="Fg6kzlsoRwOaC9sN9TLb-9" value="machines -- to create a new machine with regular jobs&lt;br&gt;machine is pre defined transform" style="text;html=1;align=center;verticalAlign=middle;resizable=0;points=[];autosize=1;strokeColor=none;fillColor=none;" vertex="1" parent="1">
          <mxGeometry x="135" y="4693" width="310" height="40" as="geometry" />
        </mxCell>
        <mxCell id="Fg6kzlsoRwOaC9sN9TLb-10" value="theharvester - os anti framework" style="text;html=1;align=center;verticalAlign=middle;resizable=0;points=[];autosize=1;strokeColor=none;fillColor=none;" vertex="1" parent="1">
          <mxGeometry x="120" y="4778" width="200" height="30" as="geometry" />
        </mxCell>
        <mxCell id="Fg6kzlsoRwOaC9sN9TLb-11" value="Scanning" style="text;html=1;align=center;verticalAlign=middle;resizable=0;points=[];autosize=1;strokeColor=none;fillColor=none;" vertex="1" parent="1">
          <mxGeometry x="215" y="4928" width="70" height="30" as="geometry" />
        </mxCell>
        <mxCell id="Fg6kzlsoRwOaC9sN9TLb-12" value="Object to find alive systems in a network, open ports and services, vulnerability of the target" style="text;html=1;align=center;verticalAlign=middle;resizable=0;points=[];autosize=1;strokeColor=none;fillColor=none;" vertex="1" parent="1">
          <mxGeometry x="25" y="4988" width="510" height="30" as="geometry" />
        </mxCell>
        <mxCell id="Fg6kzlsoRwOaC9sN9TLb-14" style="edgeStyle=orthogonalEdgeStyle;rounded=0;orthogonalLoop=1;jettySize=auto;html=1;" edge="1" parent="1" source="Fg6kzlsoRwOaC9sN9TLb-13">
          <mxGeometry relative="1" as="geometry">
            <mxPoint x="240" y="5073" as="targetPoint" />
          </mxGeometry>
        </mxCell>
        <mxCell id="Fg6kzlsoRwOaC9sN9TLb-13" value="1 alive systems in a network" style="text;html=1;align=center;verticalAlign=middle;resizable=0;points=[];autosize=1;strokeColor=none;fillColor=none;" vertex="1" parent="1">
          <mxGeometry x="15" y="5058" width="170" height="30" as="geometry" />
        </mxCell>
        <mxCell id="Fg6kzlsoRwOaC9sN9TLb-16" style="edgeStyle=orthogonalEdgeStyle;rounded=0;orthogonalLoop=1;jettySize=auto;html=1;" edge="1" parent="1" source="Fg6kzlsoRwOaC9sN9TLb-15">
          <mxGeometry relative="1" as="geometry">
            <mxPoint x="410" y="5073" as="targetPoint" />
          </mxGeometry>
        </mxCell>
        <mxCell id="Fg6kzlsoRwOaC9sN9TLb-15" value="Host Discovery" style="text;html=1;align=center;verticalAlign=middle;resizable=0;points=[];autosize=1;strokeColor=none;fillColor=none;" vertex="1" parent="1">
          <mxGeometry x="260" y="5058" width="100" height="30" as="geometry" />
        </mxCell>
        <mxCell id="Fg6kzlsoRwOaC9sN9TLb-17" value="ping scan techniques&lt;br&gt;nmap, pinging" style="text;html=1;align=center;verticalAlign=middle;resizable=0;points=[];autosize=1;strokeColor=none;fillColor=none;" vertex="1" parent="1">
          <mxGeometry x="420" y="5053" width="140" height="40" as="geometry" />
        </mxCell>
        <mxCell id="Fg6kzlsoRwOaC9sN9TLb-21" style="edgeStyle=orthogonalEdgeStyle;rounded=0;orthogonalLoop=1;jettySize=auto;html=1;" edge="1" parent="1" source="Fg6kzlsoRwOaC9sN9TLb-22">
          <mxGeometry relative="1" as="geometry">
            <mxPoint x="254" y="5130" as="targetPoint" />
          </mxGeometry>
        </mxCell>
        <mxCell id="Fg6kzlsoRwOaC9sN9TLb-22" value="2 open ports &amp;amp; services running" style="text;html=1;align=center;verticalAlign=middle;resizable=0;points=[];autosize=1;strokeColor=none;fillColor=none;" vertex="1" parent="1">
          <mxGeometry x="19" y="5115" width="190" height="30" as="geometry" />
        </mxCell>
        <mxCell id="Fg6kzlsoRwOaC9sN9TLb-23" style="edgeStyle=orthogonalEdgeStyle;rounded=0;orthogonalLoop=1;jettySize=auto;html=1;" edge="1" parent="1" source="Fg6kzlsoRwOaC9sN9TLb-24">
          <mxGeometry relative="1" as="geometry">
            <mxPoint x="413" y="5130" as="targetPoint" />
          </mxGeometry>
        </mxCell>
        <mxCell id="Fg6kzlsoRwOaC9sN9TLb-24" value="service discovert" style="text;html=1;align=center;verticalAlign=middle;resizable=0;points=[];autosize=1;strokeColor=none;fillColor=none;" vertex="1" parent="1">
          <mxGeometry x="269" y="5115" width="110" height="30" as="geometry" />
        </mxCell>
        <mxCell id="Fg6kzlsoRwOaC9sN9TLb-26" value="types of scanners" style="text;html=1;align=center;verticalAlign=middle;resizable=0;points=[];autosize=1;strokeColor=none;fillColor=none;" vertex="1" parent="1">
          <mxGeometry x="40" y="5188" width="120" height="30" as="geometry" />
        </mxCell>
        <mxCell id="Fg6kzlsoRwOaC9sN9TLb-30" style="edgeStyle=orthogonalEdgeStyle;rounded=0;orthogonalLoop=1;jettySize=auto;html=1;" edge="1" parent="1" source="Fg6kzlsoRwOaC9sN9TLb-27">
          <mxGeometry relative="1" as="geometry">
            <mxPoint x="10" y="5070" as="targetPoint" />
          </mxGeometry>
        </mxCell>
        <mxCell id="Fg6kzlsoRwOaC9sN9TLb-27" value="1.Network scanners" style="text;html=1;align=center;verticalAlign=middle;resizable=0;points=[];autosize=1;strokeColor=none;fillColor=none;" vertex="1" parent="1">
          <mxGeometry x="95" y="5248" width="130" height="30" as="geometry" />
        </mxCell>
        <mxCell id="Fg6kzlsoRwOaC9sN9TLb-28" value="2.Port Scanner" style="text;html=1;align=center;verticalAlign=middle;resizable=0;points=[];autosize=1;strokeColor=none;fillColor=none;" vertex="1" parent="1">
          <mxGeometry x="103" y="5300" width="100" height="30" as="geometry" />
        </mxCell>
        <mxCell id="Fg6kzlsoRwOaC9sN9TLb-29" value="3.vulnerability scanner" style="text;html=1;align=center;verticalAlign=middle;resizable=0;points=[];autosize=1;strokeColor=none;fillColor=none;" vertex="1" parent="1">
          <mxGeometry x="90" y="5340" width="140" height="30" as="geometry" />
        </mxCell>
        <mxCell id="Fg6kzlsoRwOaC9sN9TLb-31" style="edgeStyle=orthogonalEdgeStyle;rounded=0;orthogonalLoop=1;jettySize=auto;html=1;entryX=0.558;entryY=0.967;entryDx=0;entryDy=0;entryPerimeter=0;" edge="1" parent="1" source="Fg6kzlsoRwOaC9sN9TLb-28" target="Fg6kzlsoRwOaC9sN9TLb-24">
          <mxGeometry relative="1" as="geometry" />
        </mxCell>
        <mxCell id="Fg6kzlsoRwOaC9sN9TLb-32" value="ip address&lt;br&gt;&lt;br&gt;port number" style="text;html=1;align=center;verticalAlign=middle;resizable=0;points=[];autosize=1;strokeColor=none;fillColor=none;" vertex="1" parent="1">
          <mxGeometry x="425" y="5253" width="90" height="60" as="geometry" />
        </mxCell>
        <mxCell id="Fg6kzlsoRwOaC9sN9TLb-33" value="port&amp;nbsp;" style="text;html=1;align=center;verticalAlign=middle;resizable=0;points=[];autosize=1;strokeColor=none;fillColor=none;" vertex="1" parent="1">
          <mxGeometry x="445" y="5338" width="50" height="30" as="geometry" />
        </mxCell>
        <mxCell id="Fg6kzlsoRwOaC9sN9TLb-34" value="65536" style="text;html=1;align=center;verticalAlign=middle;resizable=0;points=[];autosize=1;strokeColor=none;fillColor=none;" vertex="1" parent="1">
          <mxGeometry x="490" y="5338" width="60" height="30" as="geometry" />
        </mxCell>
        <mxCell id="Fg6kzlsoRwOaC9sN9TLb-35" value="0 to 65535" style="text;html=1;align=center;verticalAlign=middle;resizable=0;points=[];autosize=1;strokeColor=none;fillColor=none;" vertex="1" parent="1">
          <mxGeometry x="480" y="5400" width="80" height="30" as="geometry" />
        </mxCell>
        <mxCell id="Fg6kzlsoRwOaC9sN9TLb-36" value="well known service ports&lt;br&gt;0 to 1023" style="text;html=1;align=center;verticalAlign=middle;resizable=0;points=[];autosize=1;strokeColor=none;fillColor=none;" vertex="1" parent="1">
          <mxGeometry x="276" y="5450" width="150" height="40" as="geometry" />
        </mxCell>
        <mxCell id="Fg6kzlsoRwOaC9sN9TLb-37" value="regestered&lt;br&gt;1024 to 49151" style="text;html=1;align=center;verticalAlign=middle;resizable=0;points=[];autosize=1;strokeColor=none;fillColor=none;" vertex="1" parent="1">
          <mxGeometry x="470" y="5450" width="100" height="40" as="geometry" />
        </mxCell>
        <mxCell id="Fg6kzlsoRwOaC9sN9TLb-38" value="dynamic ports&lt;br&gt;49152 to 65535" style="text;html=1;align=center;verticalAlign=middle;resizable=0;points=[];autosize=1;strokeColor=none;fillColor=none;" vertex="1" parent="1">
          <mxGeometry x="612" y="5450" width="110" height="40" as="geometry" />
        </mxCell>
        <mxCell id="Fg6kzlsoRwOaC9sN9TLb-39" style="edgeStyle=orthogonalEdgeStyle;rounded=0;orthogonalLoop=1;jettySize=auto;html=1;entryX=0.576;entryY=-0.117;entryDx=0;entryDy=0;entryPerimeter=0;" edge="1" parent="1" source="Fg6kzlsoRwOaC9sN9TLb-35" target="Fg6kzlsoRwOaC9sN9TLb-36">
          <mxGeometry relative="1" as="geometry" />
        </mxCell>
        <mxCell id="Fg6kzlsoRwOaC9sN9TLb-40" style="edgeStyle=orthogonalEdgeStyle;rounded=0;orthogonalLoop=1;jettySize=auto;html=1;entryX=0.737;entryY=0.067;entryDx=0;entryDy=0;entryPerimeter=0;" edge="1" parent="1" source="Fg6kzlsoRwOaC9sN9TLb-35" target="Fg6kzlsoRwOaC9sN9TLb-38">
          <mxGeometry relative="1" as="geometry" />
        </mxCell>
        <mxCell id="Fg6kzlsoRwOaC9sN9TLb-41" value="Text" style="text;html=1;align=center;verticalAlign=middle;resizable=0;points=[];autosize=1;strokeColor=none;fillColor=none;" vertex="1" parent="1">
          <mxGeometry x="595" y="5258" width="50" height="30" as="geometry" />
        </mxCell>
      </root>
    </mxGraphModel>
  </diagram>
</mxfile>
